<?xml version="1.0" standalone="no"?>
<!DOCTYPE svg PUBLIC "-//W3C//DTD SVG 20010904//EN"
 "http://www.w3.org/TR/2001/REC-SVG-20010904/DTD/svg10.dtd">
<svg version="1.0" xmlns="http://www.w3.org/2000/svg"
 width="349.000000pt" height="349.000000pt" viewBox="0 0 349.000000 349.000000"
 preserveAspectRatio="xMidYMid meet">
<metadata>
Created by potrace 1.11, written by Peter Selinger 2001-2013
</metadata>
<g transform="translate(0.000000,349.000000) scale(0.100000,-0.100000)"
fill="#000000" stroke="none">
<path d="M1670 3424 c-41 -7 -93 -15 -114 -19 -22 -4 -50 -11 -63 -16 -12 -4
-44 -11 -70 -14 -59 -8 -110 -23 -143 -43 -62 -39 -255 -166 -273 -181 -116
-94 -138 -116 -222 -216 -68 -82 -105 -109 -235 -174 -129 -64 -226 -90 -335
-88 -47 1 -85 -1 -85 -4 0 -3 10 -19 23 -36 12 -17 29 -41 37 -53 61 -87 149
-195 232 -283 39 -42 47 -55 43 -79 -8 -47 -13 -81 -20 -133 -16 -135 -2 -468
23 -525 8 -19 16 -50 17 -68 9 -129 103 -238 221 -257 38 -6 42 -10 54 -48 33
-112 89 -254 146 -372 399 -824 1096 -1036 1641 -497 202 198 362 469 465 786
23 72 42 132 43 132 0 1 19 4 43 8 89 12 163 66 205 149 23 45 28 67 27 123
-1 38 -1 184 -1 324 -1 310 -16 415 -95 660 -28 87 -123 266 -190 359 -80 113
-194 229 -301 308 -156 115 -384 212 -588 249 -115 21 -384 26 -485 8z"/>
</g>
</svg>
