<?xml version="1.0" encoding="iso-8859-1"?>
<!-- Generator: Adobe Illustrator 19.0.0, SVG Export Plug-In . SVG Version: 6.00 Build 0)  -->
<svg version="1.1" id="Layer_1" xmlns="http://www.w3.org/2000/svg" xmlns:xlink="http://www.w3.org/1999/xlink" x="0px" y="0px"
	 viewBox="0 0 512 512" style="enable-background:new 0 0 512 512;" xml:space="preserve">
<g>
	<path d="M287.82,378.82c-8.5,8.499-19.8,13.18-31.82,13.18s-23.32-4.681-31.82-13.18c-5.857-5.858-15.355-5.858-21.213,0
		c-5.857,5.858-5.857,15.355,0,21.213C217.133,414.199,235.967,422,256,422s38.867-7.801,53.033-21.967
		c5.858-5.858,5.858-15.355,0-21.213C303.174,372.962,293.678,372.962,287.82,378.82z"/>
	<circle cx="196" cy="257" r="15"/>
	<circle cx="316" cy="257" r="15"/>
	<path d="M421,212c0-14.213,0-78.869,0-89.439c0-31.098-22.809-56.969-52.576-61.764c-11.73-21.026-35.349-33.501-60.171-30.301
		C297.792,12.015,277.951,0,256,0s-41.792,12.015-52.253,30.495c-24.824-3.2-48.442,9.277-60.171,30.301
		C113.809,65.592,91,91.463,91,122.561c0,10.671,0,74.957,0,89.439c-33.084,0-60,26.916-60,60s26.916,60,60,60v15
		c0,90.981,74.019,165,165,165s165-74.019,165-165v-15c33.084,0,60-26.916,60-60S454.084,212,421,212z M350.438,332
		c-57.86-36.46-131.019-36.459-188.88,0H121c0-14.6,0-113.501,0-128.93l47.395-48.975c54.405,30.998,120.805,30.998,175.21,0
		L391,203.07c0,15.354,0,114.322,0,128.93H350.438z M121,122.561C121,104.607,135.606,90,153.561,90
		c6.357,0,12.024-4.007,14.143-10.001C171.931,68.037,183.303,60,196,60c3.823,0,7.541,0.705,11.048,2.095
		c8.32,3.299,17.656-1.388,20.001-10.004C230.59,39.084,242.495,30,256,30s25.41,9.084,28.951,22.091
		c2.35,8.636,11.699,13.296,20.001,10.004C308.459,60.705,312.177,60,316,60c12.697,0,24.069,8.037,28.297,19.999
		C346.416,85.993,352.082,90,358.439,90C376.394,90,391,104.607,391,122.561c0,22.368,0-15.225,0,37.37l-34.221-35.362
		c-5.037-5.205-13.074-6.067-19.099-2.049c-49.619,33.079-113.74,33.079-163.359,0c-6.025-4.018-14.062-3.155-19.099,2.049
		L121,159.93C121,107.332,121,144.974,121,122.561z M61,272c0-16.542,13.458-30,30-30v60C74.458,302,61,288.542,61,272z M256,482
		c-69.369,0-126.676-52.595-134.162-120h44.153c2.656,0,5.267-0.707,7.561-2.045c0.259-0.151,0.513-0.31,0.762-0.476
		c49.622-33.078,113.748-33.078,163.368,0.002c2.464,1.643,5.359,2.319,8.32,2.319h44.159C382.676,429.205,325.369,482,256,482z
		 M421,302v-60c16.542,0,30,13.458,30,30S437.542,302,421,302z"/>
</g>
<g>
</g>
<g>
</g>
<g>
</g>
<g>
</g>
<g>
</g>
<g>
</g>
<g>
</g>
<g>
</g>
<g>
</g>
<g>
</g>
<g>
</g>
<g>
</g>
<g>
</g>
<g>
</g>
<g>
</g>
</svg>
