<?xml version="1.0" encoding="iso-8859-1"?>
<!-- Generator: Adobe Illustrator 19.0.0, SVG Export Plug-In . SVG Version: 6.00 Build 0)  -->
<svg version="1.1" id="Layer_1" xmlns="http://www.w3.org/2000/svg" xmlns:xlink="http://www.w3.org/1999/xlink" x="0px" y="0px"
	 viewBox="0 0 512 512" style="enable-background:new 0 0 512 512;" xml:space="preserve">
<g>
	<circle cx="196" cy="285" r="15"/>
	<path d="M287.82,378.82c-8.5,8.499-19.8,13.18-31.82,13.18s-23.32-4.681-31.82-13.18c-5.857-5.858-15.355-5.858-21.213,0
		c-5.857,5.858-5.857,15.355,0,21.213C217.133,414.199,235.967,422,256,422s38.867-7.801,53.033-21.967
		c5.858-5.858,5.858-15.355,0-21.213C303.175,372.962,293.678,372.962,287.82,378.82z"/>
	<path d="M489.283,62.137l-1.592,0.955c-43.468,26.079-99.218,17.862-132.563-19.539C330.452,15.875,294.321,0,256,0
		c-38.216,0-74.247,15.735-98.855,43.169C123.482,80.7,67.596,89.066,24.26,63.063l-1.542-0.926C12.734,56.149,0,63.357,0,75v52.918
		c0,54.314,39.182,99.722,91,109.93V346c0,91.532,74.019,166,165,166s165-74.467,165-166V237.848c51.818-10.208,91-55.616,91-109.93
		V75C512,63.357,499.268,56.148,489.283,62.137z M391,346c0,74.99-60.561,136-135,136s-135-61.009-135-136V239.704
		c14.01-1.004,27.843-4.655,40.508-10.719c0.584,0.394,1.189,0.765,1.841,1.081l107.732,52.338C269.597,308.353,290.3,330,316,330
		c11.412,0,21.839-4.278,29.78-11.304L391,340.665V346z M301,285c0-8.271,6.729-15,15-15s15,6.729,15,15s-6.729,15-15,15
		S301,293.271,301,285z M391,307.312l-30.625-14.878C364.974,264.893,343.661,240,316,240c-13.162,0-25.021,5.681-33.257,14.718
		l-87.561-42.539l1.192-0.596c2.072-1.036,4.392-1.583,6.708-1.583h105.836c2.316,0,4.636,0.548,6.708,1.583
		c34.092,17.046,48.261,26.177,75.374,28.121V307.312z M482,127.918c0,45.26-37.271,82.082-83.082,82.082
		c-23.799,0-35.923-8.273-69.875-25.249c-6.216-3.108-13.175-4.751-20.125-4.751H203.082c-6.95,0-13.909,1.643-20.125,4.751
		C148.871,201.794,136.829,210,113.082,210C67.271,210,30,173.178,30,127.918V99.072c53,20.206,112.631,5.209,149.478-35.872
		C198.403,42.101,226.294,30,256,30c29.776,0,57.745,12.217,76.735,33.518C369.609,104.879,429.401,119.204,482,99.09V127.918z"/>
	<path d="M296.606,64.393c-5.857-5.858-15.355-5.858-21.213,0L256,83.787l-19.394-19.394c-5.857-5.858-15.355-5.858-21.213,0
		c-5.858,5.858-5.858,15.355,0,21.213L234.787,105l-19.393,19.393c-5.858,5.858-5.858,15.355,0,21.213
		c5.857,5.857,15.355,5.858,21.213,0L256,126.213l19.394,19.394c5.857,5.857,15.355,5.858,21.213,0
		c5.858-5.858,5.858-15.355,0-21.213L277.213,105l19.393-19.393C302.464,79.749,302.464,70.251,296.606,64.393z"/>
</g>
<g>
</g>
<g>
</g>
<g>
</g>
<g>
</g>
<g>
</g>
<g>
</g>
<g>
</g>
<g>
</g>
<g>
</g>
<g>
</g>
<g>
</g>
<g>
</g>
<g>
</g>
<g>
</g>
<g>
</g>
</svg>
