<?xml version="1.0" encoding="iso-8859-1"?>
<!-- Generator: Adobe Illustrator 19.0.0, SVG Export Plug-In . SVG Version: 6.00 Build 0)  -->
<svg version="1.1" id="Layer_1" xmlns="http://www.w3.org/2000/svg" xmlns:xlink="http://www.w3.org/1999/xlink" x="0px" y="0px"
	 viewBox="0 0 512 512" style="enable-background:new 0 0 512 512;" xml:space="preserve">
<g>
	<circle cx="196" cy="195" r="15"/>
	<path d="M481.484,247.736C486.17,211.531,457.847,180,422,180v-15v0C422,74.019,347.533,0,256,0C164.323,0,90,74.185,90,165v15
		c-35.881,0-64.165,31.565-59.484,67.736C12.024,258.195,0,278.041,0,300c0,33.084,26.916,60,60,60c10.925,0,21.167-2.949,30-8.072
		V497c0,8.284,6.716,15,15,15h302c8.284,0,15-6.716,15-15V351.928c8.833,5.123,19.075,8.072,30,8.072c33.084,0,60-26.916,60-60
		C512,278.041,499.976,258.195,481.484,247.736z M452,240c0,16.542-13.458,30-30,30v-60C438.542,210,452,223.458,452,240z M392,165
		L392,165c0,15.124,0,300.88,0,315.88c-50.661-7.611-91-53.005-91-105.879V165c0-8.284-6.716-15-15-15c-24.813,0-45-20.187-45-45
		V30.825c4.927-0.539,9.93-0.825,15-0.825C330.991,30,392,90.561,392,165z M120,255c0-98.603-0.287-95.527,0.952-105.934
		c35.498-4.159,67.601-22.056,90.048-49.692V105c0,36.219,25.809,66.524,60,73.493v118.928c-4.79,1.689-9.864,2.579-15,2.579
		c-12.02,0-23.32-4.681-31.82-13.18c-5.857-5.858-15.355-5.858-21.213,0c-5.857,5.858-5.857,15.355,0,21.213
		C217.133,322.199,235.967,330,256,330c5.058,0,10.084-0.516,15-1.517V375c0,4.732,0.25,9.43,0.733,14.084
		C266.524,389.688,261.267,390,256,390C181.009,390,120,329.439,120,255L120,255z M208.33,38.567
		c-9.017,39.132-40.04,69.849-79.574,78.786C142.59,81.072,171.736,52.206,208.33,38.567z M90,210v45v0v15
		c-16.542,0-30-13.458-30-30S73.458,210,90,210z M60,330c-16.542,0-30-13.458-30-30c0-9.643,4.647-18.452,12.032-24.001
		C52.99,290.563,70.412,300,90,300C90,316.542,76.542,330,60,330z M120,482V349.498C150.048,392.094,199.804,420,256,420
		c7.421,0,14.831-0.503,22.155-1.486c8.597,25.385,24.403,47.208,44.553,63.486H120z M452,330c-16.542,0-30-13.458-30-30
		c19.588,0,37.01-9.437,47.968-24.001C477.353,281.548,482,290.357,482,300C482,316.542,468.542,330,452,330z"/>
</g>
<g>
</g>
<g>
</g>
<g>
</g>
<g>
</g>
<g>
</g>
<g>
</g>
<g>
</g>
<g>
</g>
<g>
</g>
<g>
</g>
<g>
</g>
<g>
</g>
<g>
</g>
<g>
</g>
<g>
</g>
</svg>
