<?xml version="1.0" encoding="iso-8859-1"?>
<!-- Generator: Adobe Illustrator 19.0.0, SVG Export Plug-In . SVG Version: 6.00 Build 0)  -->
<svg version="1.1" id="Layer_1" xmlns="http://www.w3.org/2000/svg" xmlns:xlink="http://www.w3.org/1999/xlink" x="0px" y="0px"
	 viewBox="0 0 512 512" style="enable-background:new 0 0 512 512;" xml:space="preserve">
<g>
	<path d="M256.82,378.82c-8.5,8.5-19.8,13.18-31.82,13.18s-23.32-4.681-31.82-13.18c-5.857-5.858-15.355-5.858-21.213,0
		c-5.858,5.858-5.858,15.355,0,21.213C186.133,414.199,204.967,422,225,422s38.867-7.801,53.033-21.967
		c5.858-5.858,5.858-15.355,0-21.213C272.175,372.961,262.677,372.961,256.82,378.82z"/>
	<circle cx="165" cy="285" r="15"/>
	<circle cx="285" cy="285" r="15"/>
	<path d="M497,210h-77v-15C420,87.477,332.523,0,225,0S30,87.477,30,195v23.072C12.084,228.463,0,247.841,0,270
		c0,33.084,26.916,60,60,60v17c0,90.981,74.019,165,165,165s165-74.019,165-165v-17c33.084,0,60-26.916,60-60
		c0-10.925-2.949-21.167-8.072-30H497c8.284,0,15-6.716,15-15S505.284,210,497,210z M60,195c0-90.981,74.019-165,165-165
		s165,74.019,165,165v15c-9.395,0-79.845,0-90,0v-15c0-24.813-20.187-45-45-45h-60c-24.813,0-45,20.187-45,45v15
		c-11.415,0-77.049,0-90,0V195z M270,210h-90v-15c0-8.271,6.729-15,15-15h60c8.271,0,15,6.729,15,15V210z M30,270
		c0-16.542,13.458-30,30-30v60C43.458,300,30,286.542,30,270z M360,347c0,74.439-60.561,135-135,135S90,421.439,90,347
		c0-12.872,0-94.643,0-107c11.973,0,262.492,0,270,0C360,252.419,360,334.133,360,347z M420,270c0,16.542-13.458,30-30,30v-60
		C406.542,240,420,253.458,420,270z"/>
</g>
<g>
</g>
<g>
</g>
<g>
</g>
<g>
</g>
<g>
</g>
<g>
</g>
<g>
</g>
<g>
</g>
<g>
</g>
<g>
</g>
<g>
</g>
<g>
</g>
<g>
</g>
<g>
</g>
<g>
</g>
</svg>
