<?xml version="1.0" encoding="iso-8859-1"?>
<!-- Generator: Adobe Illustrator 19.0.0, SVG Export Plug-In . SVG Version: 6.00 Build 0)  -->
<svg version="1.1" id="Layer_1" xmlns="http://www.w3.org/2000/svg" xmlns:xlink="http://www.w3.org/1999/xlink" x="0px" y="0px"
	 viewBox="0 0 512 512" style="enable-background:new 0 0 512 512;" xml:space="preserve">
<g>
	<path d="M287.82,377.82c-8.5,8.5-19.8,13.18-31.82,13.18s-23.32-4.681-31.82-13.18c-5.857-5.858-15.355-5.858-21.213,0
		c-5.858,5.858-5.858,15.355,0,21.213C217.133,413.199,235.967,421,256,421s38.867-7.801,53.033-21.967
		c5.858-5.858,5.858-15.355,0-21.213C303.175,371.961,293.677,371.961,287.82,377.82z"/>
	<circle cx="196" cy="286" r="15"/>
	<circle cx="316" cy="286" r="15"/>
	<path d="M481.484,278.736C486.175,242.488,457.806,211,422,211h-0.686c-1.046-11.581-3.297-22.924-6.698-33.884
		C453.473,167.086,482,131.844,482,90c0-49.626-40.374-90-90-90c-42.453,0-77.855,29.098-87.993,67.108
		C288.616,62.426,272.48,60,256,60s-32.615,2.426-48.007,7.108C197.854,29.094,162.448,0,120,0C70.374,0,30,40.374,30,90
		c0,41.766,28.449,77.066,67.384,87.116c-3.402,10.96-5.652,22.303-6.698,33.884H90c-35.81,0-64.174,31.494-59.484,67.736
		C12.024,289.195,0,309.04,0,331c0,33.084,26.916,60,60,60c12.468,0,24.057-3.826,33.662-10.36C109.46,454.445,175.772,512,256,512
		c80.154,0,146.527-57.496,162.338-131.36C427.943,387.174,439.532,391,452,391c33.084,0,60-26.916,60-60
		C512,309.04,499.976,289.195,481.484,278.736z M452,271c0,16.542-13.458,30-30,30v-60C438.542,241,452,254.458,452,271z
		 M241,90.831V105c0,58.449-47.551,106-106,106h-14.169C127.794,147.833,178.109,97.763,241,90.831z M271,90.831
		C334.309,97.809,384.253,148.258,391.169,211H377c-58.449,0-106-47.551-106-106V90.831z M392,30c33.084,0,60,26.916,60,60
		c0,29.517-20.932,53.922-49.07,59.021c-7.729-14.594-17.702-28.138-29.758-40.194c-12.291-12.291-26.13-22.415-41.051-30.205
		C337.6,51.086,362.679,30,392,30z M60,90c0-33.084,26.916-60,60-60c29.321,0,54.4,21.086,59.878,48.622
		c-14.921,7.79-28.76,17.914-41.051,30.205c-12.056,12.056-22.029,25.599-29.758,40.194C80.932,143.922,60,119.517,60,90z M90,241
		v60c-16.542,0-30-13.458-30-30S73.458,241,90,241z M60,361c-16.542,0-30-13.458-30-30c0-9.643,4.647-18.452,12.032-24.001
		C52.989,321.563,70.412,331,90,331C90,347.542,76.542,361,60,361z M392,346c0,74.991-61.009,136-136,136s-136-61.009-136-136
		c0-10.517,0-94.512,0-105h15c36.06,0,70.139-14.22,95.959-40.041c10.217-10.217,18.619-21.729,25.041-34.143
		c6.422,12.414,14.824,23.926,25.041,34.143C306.861,226.78,340.94,241,377,241h15C392,251.488,392,335.483,392,346z M452,361
		c-16.542,0-30-13.458-30-30c19.588,0,37.011-9.437,47.968-24.001C477.353,312.548,482,321.357,482,331
		C482,347.542,468.542,361,452,361z"/>
</g>
<g>
</g>
<g>
</g>
<g>
</g>
<g>
</g>
<g>
</g>
<g>
</g>
<g>
</g>
<g>
</g>
<g>
</g>
<g>
</g>
<g>
</g>
<g>
</g>
<g>
</g>
<g>
</g>
<g>
</g>
</svg>
