<?xml version="1.0" encoding="iso-8859-1"?>
<!-- Generator: Adobe Illustrator 19.0.0, SVG Export Plug-In . SVG Version: 6.00 Build 0)  -->
<svg version="1.1" id="Layer_1" xmlns="http://www.w3.org/2000/svg" xmlns:xlink="http://www.w3.org/1999/xlink" x="0px" y="0px"
	 viewBox="0 0 512 512" style="enable-background:new 0 0 512 512;" xml:space="preserve">
<g>
	<path d="M287.82,378.82c-8.5,8.5-19.8,13.18-31.82,13.18s-23.32-4.681-31.82-13.18c-5.857-5.858-15.355-5.858-21.213,0
		c-5.858,5.858-5.858,15.355,0,21.213C217.133,414.199,235.967,422,256,422s38.867-7.801,53.033-21.967
		c5.858-5.858,5.858-15.355,0-21.213C303.175,372.961,293.677,372.961,287.82,378.82z"/>
	<path d="M452,181h-0.574C443.722,79.831,358.412,0,256,0C153.001,0,68.232,80.441,60.574,181H60c-33.084,0-60,26.916-60,60
		s26.916,60,60,60v16c0,107.309,87.739,195,196,195c108.161,0,196-87.589,196-195v-16c33.084,0,60-26.916,60-60S485.084,181,452,181
		z M422,317L422,317c0,5.057-0.243,10.058-0.693,15h-70.87c-57.86-36.46-131.017-36.46-188.88,0H90.693
		c-0.45-4.942-0.693-9.943-0.693-15c0-15.615,0-60.337,0-76h1.537c6.955,33.562,37.469,60,74.463,60
		c36.219,0,66.522-25.808,73.491-60h33.018c6.968,34.192,37.272,60,73.491,60c20.03,0,38.999-7.759,53.412-21.847
		c10.863-10.618,18.08-23.818,21.051-38.153H422V317z M120,226c0-24.393,21.065-45,46-45c24.813,0,45,20.187,45,45s-20.187,45-45,45
		C141.065,271,120,250.393,120,226z M301,226c0-24.813,20.187-45,45-45c24.935,0,46,20.607,46,45s-21.065,45-46,45
		C321.187,271,301,250.813,301,226z M383.649,90H346c-45.224,0-86.401-22.057-111.375-58.627C241.624,30.469,248.758,30,256,30
		C307.267,30,353.175,53.365,383.649,90z M203.642,38.468c13.32,22.685,31.9,41.924,54.26,56.068
		C284.238,111.194,314.701,120,346,120h57.552C415.336,142.785,422,168.628,422,196v15h-1.537c-6.955-33.562-37.469-60-74.463-60
		c-36.219,0-66.522,25.808-73.491,60h-33.018c-6.968-34.192-37.272-60-73.491-60c-36.993,0-67.507,26.437-74.463,60H90v-15
		C90,122.755,137.687,60.445,203.642,38.468z M30,241c0-16.542,13.458-30,30-30v60C43.458,271,30,257.542,30,241z M256,482
		c-75.844,0-139.97-50.82-159.724-120h69.716c2.961,0,5.856-0.876,8.32-2.519c49.623-33.079,113.75-33.28,163.372-0.2
		c2.464,1.643,5.359,2.519,8.32,2.519h69.722C395.97,430.98,331.844,482,256,482z M452,271v-60c16.542,0,30,13.458,30,30
		S468.542,271,452,271z"/>
</g>
<g>
</g>
<g>
</g>
<g>
</g>
<g>
</g>
<g>
</g>
<g>
</g>
<g>
</g>
<g>
</g>
<g>
</g>
<g>
</g>
<g>
</g>
<g>
</g>
<g>
</g>
<g>
</g>
<g>
</g>
</svg>
