<?xml version="1.0" encoding="iso-8859-1"?>
<!-- Generator: Adobe Illustrator 19.0.0, SVG Export Plug-In . SVG Version: 6.00 Build 0)  -->
<svg version="1.1" id="Layer_1" xmlns="http://www.w3.org/2000/svg" xmlns:xlink="http://www.w3.org/1999/xlink" x="0px" y="0px"
	 viewBox="0 0 512 512" style="enable-background:new 0 0 512 512;" xml:space="preserve">
<g>
	<path d="M287.82,378.82c-8.5,8.5-19.8,13.18-31.82,13.18s-23.32-4.681-31.82-13.18c-5.857-5.858-15.355-5.858-21.213,0
		c-5.858,5.858-5.858,15.355,0,21.213C217.133,414.199,235.967,422,256,422s38.867-7.801,53.033-21.967
		c5.858-5.858,5.858-15.355,0-21.213C303.175,372.961,293.677,372.961,287.82,378.82z"/>
	<circle cx="196" cy="317" r="15"/>
	<circle cx="316" cy="317" r="15"/>
	<path d="M421,242c0-11.157,0-81.348,0-96.581c28.354-10.824,60-24.894,60-55.419c0-18.995-12.398-46.065-71.462-67.159
		C368.296,8.112,313.769,0,256,0S143.704,8.112,102.462,22.841C43.398,43.935,31,71.005,31,90c0,30.527,31.65,44.596,60,55.419
		c0,15.223,0,85.428,0,96.581c-33.084,0-60,26.916-60,60s26.916,60,60,60h0.689C99.293,445.978,170.075,512,256,512
		s156.707-66.022,164.311-150H421c33.084,0,60-26.916,60-60S454.084,242,421,242z M391,182H121v-32h270V182z M377.639,212
		c-17.407,18.923-42.057,30-68.721,30H203.082c-26.664,0-51.313-11.077-68.721-30H377.639z M61,90
		c0-9.908,13.543-25.332,51.553-38.907C150.639,37.491,201.583,30,256,30s105.361,7.491,143.447,21.093
		C437.457,64.668,451,80.092,451,90c0,10.237-18.168,19.134-47.663,30H108.663C79.168,109.134,61,100.237,61,90z M61,302
		c0-16.542,13.458-30,30-30v60C74.458,332,61,318.542,61,302z M256,482c-74.439,0-135-60.561-135-135c0-13.727,0-91.279,0-106.208
		C143.383,260.684,172.488,272,203.082,272h105.836c30.591,0,59.697-11.314,82.082-31.208c0,14.935,0,92.464,0,106.208
		C391,421.439,330.439,482,256,482z M421,332v-60c16.542,0,30,13.458,30,30S437.542,332,421,332z"/>
</g>
<g>
</g>
<g>
</g>
<g>
</g>
<g>
</g>
<g>
</g>
<g>
</g>
<g>
</g>
<g>
</g>
<g>
</g>
<g>
</g>
<g>
</g>
<g>
</g>
<g>
</g>
<g>
</g>
<g>
</g>
</svg>
