<?xml version="1.0" encoding="iso-8859-1"?>
<!-- Generator: Adobe Illustrator 19.0.0, SVG Export Plug-In . SVG Version: 6.00 Build 0)  -->
<svg version="1.1" id="Layer_1" xmlns="http://www.w3.org/2000/svg" xmlns:xlink="http://www.w3.org/1999/xlink" x="0px" y="0px"
	 viewBox="0 0 511.999 511.999" style="enable-background:new 0 0 511.999 511.999;" xml:space="preserve">
<g>
	<path d="M287.819,378.819c-8.5,8.5-19.8,13.18-31.82,13.18c-12.02,0-23.32-4.681-31.82-13.18c-5.857-5.858-15.355-5.858-21.213,0
		c-5.858,5.858-5.858,15.355,0,21.213c14.166,14.166,33,21.967,53.033,21.967s38.867-7.801,53.033-21.967
		c5.858-5.858,5.858-15.355,0-21.213C303.175,372.96,293.677,372.96,287.819,378.819z"/>
	<circle cx="195.999" cy="284.999" r="15"/>
	<circle cx="315.999" cy="284.999" r="15"/>
	<path d="M435.294,241.733c7.139-6.626,11.914-15.346,13.635-25.105c12.957-73.482-36.02-143.433-109.506-156.391l-41.776-7.366
		c9.129-16.119,27.726-25.577,46.986-22.179c8.154,1.44,15.938-4.009,17.376-12.167c1.438-8.158-4.009-15.938-12.167-17.376
		c-35.665-6.294-69.992,13.864-82.793,46.327l-45.803-8.076C147.939,26.471,77.78,75.597,64.853,148.906
		c-3.665,20.789,7.644,40.809,26.146,48.978v42.115c-33.084,0-60,26.916-60,60s26.916,60,60,60h0.675
		c7.451,83.817,77.661,152,164.325,152c86.669,0,156.875-68.187,164.325-152h0.675c33.084,0,60-26.916,60-60
		C480.999,271.841,461.497,248.163,435.294,241.733z M94.397,154.115c9.049-51.319,53.634-86.794,103.182-86.794
		c10.459,0,17.178,1.397,25.557,2.875c-18.648,18.117-30.285,43.85-34.897,70.004c-1.438,8.159,4.009,15.938,12.167,17.377
		c8.16,1.442,15.938-4.009,17.376-12.167c3.666-20.79,12.343-39.209,24.432-51.864c6.102-6.388,18.494-16.722,32.907-14.182h0.001
		c0,0,0.001,0,0.001,0c14.416,2.542,22.524,16.493,26.073,24.582c7.032,16.026,8.886,36.302,5.22,57.092
		c-1.619,9.181,5.443,17.607,14.79,17.607c7.142,0,13.471-5.121,14.754-12.397c4.526-25.67,2.647-53.972-8.85-77.718l7.102,1.252
		c57.017,10.054,95.225,64.62,85.171,121.638c-1.44,8.167-9.21,13.604-17.376,12.167h0l-295.442-52.094
		C98.42,170.055,92.961,162.26,94.397,154.115z M60.999,299.999c0-16.542,13.458-30,30-30v60
		C74.457,329.999,60.999,316.541,60.999,299.999z M255.999,481.999c-74.439,0-135-61.458-135-137V204.5l0,0l270,47.608
		c0,9.105,0,81.353,0,92.891C390.999,420.541,330.439,481.999,255.999,481.999z M420.999,329.999v-60c16.542,0,30,13.458,30,30
		S437.541,329.999,420.999,329.999z"/>
</g>
<g>
</g>
<g>
</g>
<g>
</g>
<g>
</g>
<g>
</g>
<g>
</g>
<g>
</g>
<g>
</g>
<g>
</g>
<g>
</g>
<g>
</g>
<g>
</g>
<g>
</g>
<g>
</g>
<g>
</g>
</svg>
