<?xml version="1.0" encoding="iso-8859-1"?>
<!-- Generator: Adobe Illustrator 19.0.0, SVG Export Plug-In . SVG Version: 6.00 Build 0)  -->
<svg version="1.1" id="Layer_1" xmlns="http://www.w3.org/2000/svg" xmlns:xlink="http://www.w3.org/1999/xlink" x="0px" y="0px"
	 viewBox="0 0 512 512" style="enable-background:new 0 0 512 512;" xml:space="preserve">
<g>
	<path d="M287.82,348.82c-8.5,8.5-19.8,13.18-31.82,13.18s-23.32-4.681-31.82-13.18c-5.857-5.858-15.355-5.858-21.213,0
		c-5.858,5.858-5.858,15.355,0,21.213C217.133,384.199,235.967,392,256,392s38.867-7.801,53.033-21.967
		c5.858-5.858,5.858-15.355,0-21.213C303.175,342.961,293.677,342.961,287.82,348.82z"/>
	<circle cx="196" cy="257" r="15"/>
	<circle cx="316" cy="257" r="15"/>
	<path d="M331,0c-27.613,0-53.762,9.294-75,26.428C234.762,9.294,208.613,0,181,0C114.832,0,61,53.832,61,120
		c0,2.793,0,133.316,0,137c0,11.517,4.354,22.032,11.495,30C65.354,294.968,61,305.483,61,317s4.354,22.032,11.495,30
		C65.354,354.968,61,365.483,61,377s4.354,22.032,11.495,30C65.354,414.968,61,425.483,61,437c0,8.046,2.371,15.797,4.519,19.543
		l27.468,47.917c2.67,4.657,7.625,7.532,12.992,7.54c0.007,0,0.014,0,0.021,0c5.36,0,10.313-2.86,12.992-7.503
		c0.202-0.351,26.592-46.075,26.78-46.431c2.335-4.403,3.898-9.199,4.668-14.13C179.62,468.29,216.65,482,256,482
		c39.338,0,76.358-13.701,105.534-38.042c0.596,3.839,1.688,7.576,3.27,11.169c0.462,1.048-1.49-2.43,28.183,49.333
		c2.67,4.657,7.625,7.532,12.992,7.54c0.007,0,0.014,0,0.021,0c5.36,0,10.313-2.86,12.992-7.503l26.521-45.963
		c0.089-0.154,0.176-0.311,0.259-0.468C449.192,451.617,451,444.333,451,437c0-11.517-4.354-22.032-11.495-30
		c7.142-7.968,11.495-18.483,11.495-30s-4.354-22.032-11.495-30c7.142-7.968,11.495-18.483,11.495-30s-4.354-22.032-11.495-30
		c7.142-7.968,11.495-18.483,11.495-30c0-3.641,0-133.466,0-137C451,53.832,397.168,0,331,0z M421,317c0,8.271-6.729,15-15,15
		s-15-6.729-15-15s6.729-15,15-15S421,308.729,421,317z M421,377c0,8.271-6.729,15-15,15s-15-6.729-15-15s6.729-15,15-15
		S421,368.729,421,377z M391,257c0-8.271,6.729-15,15-15s15,6.729,15,15s-6.729,15-15,15S391,265.271,391,257z M421,120v92h-15
		c-74.439,0-135-61.458-135-137V53.083C287.561,38.167,308.641,30,331,30C380.626,30,421,70.374,421,120z M181,30
		c22.359,0,43.439,8.167,60,23.083V75c0,75.542-60.561,137-135,137H91v-92C91,70.374,131.374,30,181,30z M91,377
		c0-8.271,6.729-15,15-15s15,6.729,15,15s-6.729,15-15,15S91,385.271,91,377z M91,317c0-8.271,6.729-15,15-15s15,6.729,15,15
		s-6.729,15-15,15S91,325.271,91,317z M121,257c0,8.271-6.729,15-15,15s-15-6.729-15-15s6.729-15,15-15S121,248.729,121,257z
		 M106.042,466.913C91.114,440.871,91,441.751,91,437c0-8.271,6.729-15,15-15s15,6.729,15,15
		C121,442.164,120.239,442.31,106.042,466.913z M256,452c-43.714,0-83.927-20.688-109.323-55.775
		C149.445,390.391,151,383.875,151,377c0-11.517-4.354-22.032-11.495-30c7.142-7.968,11.495-18.483,11.495-30
		s-4.354-22.032-11.495-30c7.142-7.968,11.495-18.483,11.495-30c0-7.199-1.708-14.002-4.727-20.042
		c28.653-7.325,54.979-22.469,76.496-44.382c14.008-14.266,25.18-30.574,33.231-48.227c8.051,17.652,19.223,33.961,33.231,48.227
		c21.517,21.913,47.843,37.058,76.496,44.382C362.708,242.998,361,249.801,361,257c0,11.517,4.354,22.032,11.495,30
		C365.354,294.968,361,305.483,361,317s4.354,22.032,11.495,30C365.354,354.968,361,365.483,361,377
		c0,6.875,1.555,13.391,4.323,19.224C339.928,431.313,299.714,452,256,452z M406.042,466.913C391.114,440.871,391,441.751,391,437
		c0-8.271,6.729-15,15-15s15,6.729,15,15C421,442.164,420.239,442.31,406.042,466.913z"/>
</g>
<g>
</g>
<g>
</g>
<g>
</g>
<g>
</g>
<g>
</g>
<g>
</g>
<g>
</g>
<g>
</g>
<g>
</g>
<g>
</g>
<g>
</g>
<g>
</g>
<g>
</g>
<g>
</g>
<g>
</g>
</svg>
