<?xml version="1.0" encoding="iso-8859-1"?>
<!-- Generator: Adobe Illustrator 19.0.0, SVG Export Plug-In . SVG Version: 6.00 Build 0)  -->
<svg version="1.1" id="Layer_1" xmlns="http://www.w3.org/2000/svg" xmlns:xlink="http://www.w3.org/1999/xlink" x="0px" y="0px"
	 viewBox="0 0 512 512" style="enable-background:new 0 0 512 512;" xml:space="preserve">
<g>
	<path d="M445.564,67.005C402.636,23.796,345.969,0,286,0c-61.662,0-117.921,25.089-159.564,67.005
		C83.594,110.126,60,166.947,60,227.011c0.002,2.669,0.06,79.802,0.063,85.064C23.739,329.282,0,366.177,0,407
		c0,57.897,47.103,105,105,105c30.495,0,58.849-12.974,78.618-35.368C212.812,499.556,248.51,512,286,512
		c44.042,0,85.619-17.164,117.072-48.331C431.009,435.988,447.821,400.33,451.31,362H452c33.084,0,60-26.916,60-60v-75
		C512,166.947,488.406,110.126,445.564,67.005z M482,227v23.072c-8.833-5.123-19.075-8.072-30-8.072h-15
		c-113.174,0-209.628-86.042-224.117-197.771C235.489,35.061,260.166,30,286,30C394.075,30,482,118.374,482,227z M184.701,58.408
		c1.816,10.578,4.274,20.936,7.35,31.027C148.333,119.939,120,171.757,120,227v15c-10.918,0-21.354,2.946-30.183,8.062L89.8,227
		C89.8,155.607,127.982,92.965,184.701,58.408z M90.055,300.256C90.961,284.523,104.044,272,120,272v60
		C105.221,332,90.07,320.97,90.055,300.256z M105,482c-41.355,0-75-33.645-75-75c0-29.183,16.984-55.543,42.959-67.822
		C83.958,353.065,100.95,362,120,362h0.69c3.177,34.912,17.416,67.599,41.04,94.069C147.582,472.472,127.077,482,105,482z M286,482
		c-74.991,0-136-60.561-136-135V227l0,0c0-41.614,20.383-82.524,52.976-108.296C241.211,204.661,325.223,265.77,422,271.536
		c0,9.311,0,67.197,0,75.464C422,421.439,360.991,482,286,482z M452,332c0-14.63,0-57.204,0-60c16.542,0,30,13.458,30,30
		S468.542,332,452,332z"/>
	<circle cx="226" cy="287" r="15"/>
	<circle cx="346" cy="287" r="15"/>
	<path d="M317.82,378.82c-8.5,8.499-19.8,13.18-31.82,13.18s-23.32-4.681-31.82-13.18c-5.857-5.858-15.355-5.858-21.213,0
		c-5.857,5.858-5.857,15.355,0,21.213C247.133,414.199,265.967,422,286,422s38.867-7.801,53.033-21.967
		c5.858-5.858,5.858-15.355,0-21.213C333.174,372.962,323.678,372.962,317.82,378.82z"/>
</g>
<g>
</g>
<g>
</g>
<g>
</g>
<g>
</g>
<g>
</g>
<g>
</g>
<g>
</g>
<g>
</g>
<g>
</g>
<g>
</g>
<g>
</g>
<g>
</g>
<g>
</g>
<g>
</g>
<g>
</g>
</svg>
