<?xml version="1.0" encoding="iso-8859-1"?>
<!-- Generator: Adobe Illustrator 19.0.0, SVG Export Plug-In . SVG Version: 6.00 Build 0)  -->
<svg version="1.1" id="Layer_1" xmlns="http://www.w3.org/2000/svg" xmlns:xlink="http://www.w3.org/1999/xlink" x="0px" y="0px"
	 viewBox="0 0 512 512" style="enable-background:new 0 0 512 512;" xml:space="preserve">
<g>
	<path d="M287.82,331.82c-8.5,8.499-19.8,13.18-31.82,13.18s-23.32-4.681-31.82-13.18c-5.857-5.858-15.355-5.858-21.213,0
		c-5.857,5.858-5.857,15.355,0,21.213C217.133,367.199,235.967,375,256,375s38.867-7.801,53.033-21.967
		c5.858-5.858,5.858-15.355,0-21.213C303.174,325.962,293.678,325.962,287.82,331.82z"/>
	<circle cx="196" cy="225" r="15"/>
	<circle cx="316" cy="225" r="15"/>
	<path d="M256,0C131.641,0,31,100.632,31,225v272c0,8.284,6.716,15,15,15h420c8.284,0,15-6.716,15-15V225
		C481,100.642,380.368,0,256,0z M451,482H61V225c0-107.523,87.477-195,195-195s195,87.477,195,195V482z"/>
	<path d="M256,60c-90.961,0-165,74.019-165,165v60c0,90.981,74.019,165,165,165s165-74.019,165-165v-60
		C421,134.05,346.993,60,256,60z M121,270v-45c0-15.772,2.728-30.918,7.722-45h254.557c4.994,14.082,7.722,29.227,7.722,45v45H121z
		 M256,90c46.708,0,87.947,23.846,112.194,60H143.806C168.053,113.846,209.292,90,256,90z M256,420
		c-69.369,0-126.676-52.795-134.162-120.2h268.324C382.676,367.205,325.369,420,256,420z"/>
</g>
<g>
</g>
<g>
</g>
<g>
</g>
<g>
</g>
<g>
</g>
<g>
</g>
<g>
</g>
<g>
</g>
<g>
</g>
<g>
</g>
<g>
</g>
<g>
</g>
<g>
</g>
<g>
</g>
<g>
</g>
</svg>
