<?xml version="1.0" encoding="iso-8859-1"?>
<!-- Generator: Adobe Illustrator 19.0.0, SVG Export Plug-In . SVG Version: 6.00 Build 0)  -->
<svg version="1.1" id="Layer_1" xmlns="http://www.w3.org/2000/svg" xmlns:xlink="http://www.w3.org/1999/xlink" x="0px" y="0px"
	 viewBox="0 0 512.006 512.006" style="enable-background:new 0 0 512.006 512.006;" xml:space="preserve">
<g>
	<path d="M287.823,378.823c-8.5,8.499-19.8,13.18-31.82,13.18s-23.32-4.681-31.82-13.18c-5.857-5.858-15.355-5.858-21.213,0
		c-5.857,5.858-5.857,15.355,0,21.213c14.166,14.166,33,21.967,53.033,21.967s38.867-7.801,53.033-21.967
		c5.858-5.858,5.858-15.355,0-21.213C303.178,372.965,293.681,372.965,287.823,378.823z"/>
	<path d="M496.421,402.298c9.677-10.657,15.582-24.799,15.582-40.295c0-21.959-12.024-41.805-30.516-52.264
		c4.686-36.203-23.637-67.736-59.484-67.736v-17c0-36.128-11.687-70.502-33.796-99.407c-19.39-25.349-46.104-44.895-75.936-55.736
		l-5.676-28.38c-4.806-24.033-26.083-41.476-50.592-41.476s-45.786,17.443-50.592,41.476l-5.676,28.38
		c-29.832,10.841-56.546,30.388-75.936,55.736c-22.11,28.905-33.796,63.279-33.796,99.407v17c-35.813,0-64.174,31.496-59.484,67.736
		c-18.491,10.459-30.516,30.305-30.516,52.264c0,15.495,5.905,29.637,15.582,40.295L1.587,430.295
		c-3.705,7.41-0.701,16.42,6.708,20.125c7.409,3.704,16.42,0.702,20.125-6.708L40.85,418.85c6.019,2.034,12.456,3.153,19.153,3.153
		c15.802,0,30.188-6.151,40.915-16.171c23.891,62.016,84.393,106.171,155.085,106.171s131.194-44.155,155.085-106.171
		c10.727,10.02,25.113,16.171,40.915,16.171c6.697,0,13.133-1.119,19.153-3.153l12.431,24.861
		c3.707,7.413,12.718,10.411,20.125,6.708c7.41-3.705,10.413-12.715,6.708-20.125L496.421,402.298z M452.003,302.003
		c0,16.542-13.458,30-30,30c0-32.346,0-0.138,0-60C438.545,272.003,452.003,285.461,452.003,302.003z M392.003,317.003
		c0,8.271-6.729,15-15,15h-31c-24.813,0-45-20.187-45-45c0-8.271,6.729-15,15-15h61c8.271,0,15,6.729,15,15V317.003z
		 M256.003,30.003c10.258,0,19.163,7.301,21.175,17.359l7.391,36.955c0.008,0.039,0.015,0.078,0.023,0.116l4.935,24.676
		c4.234,21.173-11.969,40.893-33.524,40.893c-21.594,0-37.751-19.757-33.524-40.893l4.936-24.679
		c0.008-0.036,0.014-0.072,0.022-0.108l7.392-36.96C236.84,37.304,245.745,30.003,256.003,30.003z M192.63,105.744
		c-6.219,38.999,23.925,74.259,63.373,74.259c39.494,0,69.585-35.304,63.373-74.259c43.769,23.198,72.627,69.138,72.627,119.259
		v19.581c-4.695-1.665-9.742-2.58-15-2.58h-61c-19.555,0-36.228,12.541-42.42,30h-35.161c-6.192-17.459-22.865-30-42.42-30h-61
		c-5.258,0-10.305,0.915-15,2.58v-19.581C120.003,174.883,148.861,128.943,192.63,105.744z M120.003,287.003c0-8.271,6.729-15,15-15
		h61c8.271,0,15,6.729,15,15c0,24.813-20.187,45-45,45h-31c-8.271,0-15-6.729-15-15V287.003z M90.003,272.003
		c0,21.294,0,38.683,0,60c-16.542,0-30-13.458-30-30S73.461,272.003,90.003,272.003z M60.003,392.003c-16.542,0-30-13.458-30-30
		c0-9.643,4.647-18.452,12.032-24.001c10.958,14.564,28.38,24.001,47.968,24.001C90.003,378.545,76.545,392.003,60.003,392.003z
		 M256.003,482.003c-70.702,0-128.967-53.835-135.401-122.377c4.525,1.533,9.365,2.377,14.401,2.377h31
		c36.219,0,66.522-25.808,73.491-60h33.018c6.968,34.192,37.271,60,73.491,60h31c5.036,0,9.876-0.844,14.401-2.377
		C384.97,428.168,326.706,482.003,256.003,482.003z M422.003,362.003c19.588,0,37.01-9.437,47.968-24.001
		c7.385,5.549,12.032,14.358,12.032,24.001c0,16.542-13.458,30-30,30S422.003,378.545,422.003,362.003z"/>
</g>
<g>
</g>
<g>
</g>
<g>
</g>
<g>
</g>
<g>
</g>
<g>
</g>
<g>
</g>
<g>
</g>
<g>
</g>
<g>
</g>
<g>
</g>
<g>
</g>
<g>
</g>
<g>
</g>
<g>
</g>
</svg>
