<?xml version="1.0" encoding="iso-8859-1"?>
<!-- Generator: Adobe Illustrator 19.0.0, SVG Export Plug-In . SVG Version: 6.00 Build 0)  -->
<svg version="1.1" id="Layer_1" xmlns="http://www.w3.org/2000/svg" xmlns:xlink="http://www.w3.org/1999/xlink" x="0px" y="0px"
	 viewBox="0 0 512 512" style="enable-background:new 0 0 512 512;" xml:space="preserve">
<g>
	<path d="M287.82,378.82c-8.5,8.5-19.8,13.18-31.82,13.18s-23.32-4.681-31.82-13.18c-5.857-5.858-15.355-5.858-21.213,0
		c-5.858,5.858-5.858,15.355,0,21.213C217.133,414.199,235.967,422,256,422s38.867-7.801,53.033-21.967
		c5.858-5.858,5.858-15.355,0-21.213C303.175,372.961,293.677,372.961,287.82,378.82z"/>
	<circle cx="196" cy="256" r="15"/>
	<circle cx="316" cy="256" r="15"/>
	<path d="M421,211V45c0-24.813-20.187-45-45-45c-11.515,0-22.033,4.347-30,11.486C338.033,4.347,327.515,0,316,0
		s-22.033,4.347-30,11.486C278.033,4.347,267.515,0,256,0s-22.033,4.347-30,11.486C218.033,4.347,207.515,0,196,0
		s-22.033,4.347-30,11.486C158.033,4.347,147.515,0,136,0c-24.813,0-45,20.187-45,45v166c-33.084,0-60,26.916-60,60s26.916,60,60,60
		v16c0,90.981,74.019,165,165,165s165-74.019,165-165v-16c33.084,0,60-26.916,60-60S454.084,211,421,211z M136,30
		c8.271,0,15,6.729,15,15c0,8.284,6.716,15,15,15s15-6.716,15-15c0-8.271,6.729-15,15-15s15,6.729,15,15c0,8.284,6.716,15,15,15
		s15-6.716,15-15c0-8.271,6.729-15,15-15s15,6.729,15,15c0,8.284,6.716,15,15,15s15-6.716,15-15c0-8.271,6.729-15,15-15
		s15,6.729,15,15c0,8.284,6.716,15,15,15s15-6.716,15-15c0-8.271,6.729-15,15-15s15,6.729,15,15v83.787l-34.394-34.394
		c-5.055-5.056-12.978-5.84-18.927-1.874c-49.619,33.079-113.74,33.079-163.359,0c-5.949-3.966-13.871-3.182-18.927,1.874
		L121,128.787V45C121,36.729,127.729,30,136,30z M61,271c0-16.542,13.458-30,30-30v60C74.458,301,61,287.542,61,271z M391,347
		c0,74.439-60.561,135-135,135s-135-60.561-135-135c0-3.567,0-172.222,0-175.787l47.219-47.219
		c54.499,31.136,121.063,31.136,175.563,0L391,171.213C391,192.705,391,329.392,391,347z M421,301v-60c16.542,0,30,13.458,30,30
		S437.542,301,421,301z"/>
</g>
<g>
</g>
<g>
</g>
<g>
</g>
<g>
</g>
<g>
</g>
<g>
</g>
<g>
</g>
<g>
</g>
<g>
</g>
<g>
</g>
<g>
</g>
<g>
</g>
<g>
</g>
<g>
</g>
<g>
</g>
</svg>
