<?xml version="1.0" encoding="iso-8859-1"?>
<!-- Generator: Adobe Illustrator 19.0.0, SVG Export Plug-In . SVG Version: 6.00 Build 0)  -->
<svg version="1.1" id="Layer_1" xmlns="http://www.w3.org/2000/svg" xmlns:xlink="http://www.w3.org/1999/xlink" x="0px" y="0px"
	 viewBox="0 0 512.001 512.001" style="enable-background:new 0 0 512.001 512.001;" xml:space="preserve">
<g>
	<path d="M287.818,378.821c-8.5,8.5-19.8,13.18-31.82,13.18c-12.02,0-23.32-4.681-31.82-13.18c-5.857-5.858-15.355-5.858-21.213,0
		c-5.858,5.858-5.858,15.355,0,21.213c14.166,14.166,33,21.967,53.033,21.967s38.867-7.801,53.033-21.967
		c5.858-5.858,5.858-15.355,0-21.213C303.174,372.962,293.676,372.962,287.818,378.821z"/>
	<circle cx="195.998" cy="256.001" r="15"/>
	<circle cx="315.998" cy="256.001" r="15"/>
	<path d="M506.006,184.007l-241-181c-5.336-4.008-12.68-4.008-18.016,0l-241,181c-11.466,8.612-5.379,26.794,9.008,26.794l76,0.2
		c-33.084,0-60,26.916-60,60s26.916,60,60,60v16c0,90.981,74.019,165,165,165s165-74.019,165-165v-16c33.084,0,60-26.916,60-60
		s-26.916-60-60-60h76C511.339,211.001,517.509,192.646,506.006,184.007z M60.998,271.001c0-16.542,13.458-30,30-30v60
		C74.456,301.001,60.998,287.543,60.998,271.001z M390.998,347.001c0,74.439-60.561,135-135,135s-135-60.561-135-135
		c0-14.744,0-114.184,0-136h270C390.998,232.683,390.998,332.293,390.998,347.001z M450.998,271.001c0,16.542-13.458,30-30,30v-60
		C437.54,241.001,450.998,254.459,450.998,271.001z M59.948,181.001L255.998,33.76l196.05,147.241H59.948z"/>
	<path d="M296.777,305.57c-5.761-5.953-15.257-6.109-21.21-0.348c-5.953,5.761-6.109,15.257-0.348,21.21l30,31
		c5.763,5.955,15.259,6.107,21.21,0.348c5.953-5.761,6.109-15.257,0.348-21.21L296.777,305.57z"/>
	<path d="M236.777,326.432c5.761-5.953,5.605-15.449-0.348-21.21c-5.953-5.762-15.45-5.606-21.21,0.348l-30,31
		c-5.761,5.953-5.605,15.449,0.348,21.21c5.954,5.763,15.452,5.603,21.21-0.348L236.777,326.432z"/>
</g>
<g>
</g>
<g>
</g>
<g>
</g>
<g>
</g>
<g>
</g>
<g>
</g>
<g>
</g>
<g>
</g>
<g>
</g>
<g>
</g>
<g>
</g>
<g>
</g>
<g>
</g>
<g>
</g>
<g>
</g>
</svg>
