<?xml version="1.0" encoding="iso-8859-1"?>
<!-- Generator: Adobe Illustrator 19.0.0, SVG Export Plug-In . SVG Version: 6.00 Build 0)  -->
<svg version="1.1" id="Layer_1" xmlns="http://www.w3.org/2000/svg" xmlns:xlink="http://www.w3.org/1999/xlink" x="0px" y="0px"
	 viewBox="0 0 512.002 512.002" style="enable-background:new 0 0 512.002 512.002;" xml:space="preserve">
<g>
	<path d="M257.82,377.785c-8.5,8.5-19.8,13.18-31.82,13.18s-23.32-4.681-31.82-13.18c-5.857-5.858-15.355-5.858-21.213,0
		c-5.858,5.858-5.858,15.355,0,21.213c14.166,14.166,33,21.967,53.033,21.967s38.867-7.801,53.033-21.967
		c5.858-5.858,5.858-15.355,0-21.213C273.175,371.927,263.677,371.927,257.82,377.785z"/>
	<circle cx="286" cy="285.965" r="15"/>
	<path d="M181,285.965c0-8.284-6.716-15-15-15s-16,6.716-16,15s7.716,15,16,15S181,294.25,181,285.965z"/>
	<path d="M503.708,392.549C471.813,376.602,452,344.543,452,308.883V124.83c0-61.026-43.012-114.011-100.048-123.247
		c-49.955-8.087-99.903,16.093-124.906,59.396c-0.349-0.002-0.696-0.013-1.046-0.013c-91.533,0-166,74.019-166,165v15
		c-33.084,0-60,26.916-60,60s26.916,60,60,60h0.686c7.568,83.771,78.69,151,165.314,151c64.332,0,120.381-37.161,147.964-91.002
		c0.012,0,0.023,0.002,0.035,0.002h123c6.957,0,13-4.783,14.599-11.554C513.197,402.641,509.931,395.66,503.708,392.549z
		 M347.156,31.197C389.824,38.107,422,78.36,422,124.83v124.207c-8.833-5.123-19.075-8.072-30-8.072v-15
		c0-79.156-56.349-145.407-131.2-161.341C281.129,39.231,314.137,25.851,347.156,31.197z M392,330.965v-60c16.542,0,30,13.458,30,30
		S408.542,330.965,392,330.965z M226,90.965c26.162,0,50.617,7.378,71.378,20.137C281.674,169.534,227.97,210.965,166,210.965
		H90.844C98.386,143.56,156.117,90.965,226,90.965z M30,300.965c0-16.542,13.458-30,30-30v60C43.458,330.965,30,317.507,30,300.965z
		 M226,481.965c-74.991,0-136-61.009-136-136c0-12.924,0-93.52,0-105h76c38.702,0,76.455-13.632,106.306-38.385
		c23.044-19.109,40.375-43.96,50.244-71.595c24.372,24.41,39.451,57.979,39.451,94.98c0,1.568,0,118.403,0,120
		C362,420.956,300.991,481.965,226,481.965z M385.769,390.965c2.763-9.749,4.622-19.782,5.545-30H392
		c13.744,0,26.415-4.656,36.542-12.459c2.988,8.821,6.962,17.322,11.908,25.326c3.768,6.096,8.04,11.825,12.756,17.133H385.769z"/>
</g>
<g>
</g>
<g>
</g>
<g>
</g>
<g>
</g>
<g>
</g>
<g>
</g>
<g>
</g>
<g>
</g>
<g>
</g>
<g>
</g>
<g>
</g>
<g>
</g>
<g>
</g>
<g>
</g>
<g>
</g>
</svg>
