<?xml version="1.0" encoding="iso-8859-1"?>
<!-- Generator: Adobe Illustrator 19.0.0, SVG Export Plug-In . SVG Version: 6.00 Build 0)  -->
<svg version="1.1" id="Layer_1" xmlns="http://www.w3.org/2000/svg" xmlns:xlink="http://www.w3.org/1999/xlink" x="0px" y="0px"
	 viewBox="0 0 512 512" style="enable-background:new 0 0 512 512;" xml:space="preserve">
<g>
	<path d="M202.967,400.033C217.133,414.199,235.967,422,256,422s38.867-7.801,53.033-21.967c5.858-5.858,5.858-15.355,0-21.213
		c-5.857-5.858-15.355-5.858-21.213,0c-8.5,8.5-19.8,13.18-31.82,13.18s-23.32-4.681-31.82-13.18
		c-5.857-5.858-15.355-5.858-21.213,0C197.109,384.678,197.109,394.175,202.967,400.033z"/>
	<circle cx="316" cy="287" r="15"/>
	<circle cx="196" cy="287" r="15"/>
	<path d="M256,0C115.106,0,0,115.956,0,257v240c0,8.284,6.716,15,15,15h482c8.284,0,15-6.716,15-15V257C512,116.095,397.044,0,256,0
		z M121,242h270v105c0,74.439-60.561,135-135,135s-135-60.561-135-135V242z M391,180v32H121v-32H391z M482,482H350.758
		C393.208,452.115,421,402.745,421,347c0-4.394,0-177.565,0-182c0-8.284-6.716-15-15-15H271v-30h15c8.284,0,15-6.716,15-15
		s-6.716-15-15-15h-15V75c0-8.284-6.716-15-15-15s-15,6.716-15,15v15h-15c-8.284,0-15,6.716-15,15s6.716,15,15,15h15v30H106
		c-8.284,0-15,6.716-15,15c0,4.435,0,177.606,0,182c0,55.745,27.792,105.115,70.242,135H30V257C30,131.832,131.383,30,256,30
		s226,101.832,226,227V482z"/>
</g>
<g>
</g>
<g>
</g>
<g>
</g>
<g>
</g>
<g>
</g>
<g>
</g>
<g>
</g>
<g>
</g>
<g>
</g>
<g>
</g>
<g>
</g>
<g>
</g>
<g>
</g>
<g>
</g>
<g>
</g>
</svg>
