<?xml version="1.0" encoding="iso-8859-1"?>
<!-- Generator: Adobe Illustrator 19.0.0, SVG Export Plug-In . SVG Version: 6.00 Build 0)  -->
<svg version="1.1" id="Layer_1" xmlns="http://www.w3.org/2000/svg" xmlns:xlink="http://www.w3.org/1999/xlink" x="0px" y="0px"
	 viewBox="0 0 512 512" style="enable-background:new 0 0 512 512;" xml:space="preserve">
<g>
	<path d="M287.82,378.82c-8.5,8.5-19.8,13.18-31.82,13.18s-23.32-4.681-31.82-13.18c-5.857-5.858-15.355-5.858-21.213,0
		c-5.858,5.858-5.858,15.355,0,21.213C217.133,414.199,235.967,422,256,422s38.867-7.801,53.033-21.967
		c5.858-5.858,5.858-15.355,0-21.213C303.175,372.961,293.677,372.961,287.82,378.82z"/>
	<circle cx="316" cy="286" r="15"/>
	<circle cx="196" cy="286" r="15"/>
	<path d="M421,241h-6.238C396.444,176.46,339.736,127.913,271,121.689V75c0-24.813,20.187-45,45-45s45,20.187,45,45
		c0,8.271-6.729,15-15,15s-15-6.729-15-15c0-8.284-6.716-15-15-15s-15,6.716-15,15c0,24.813,20.187,45,45,45s45-20.187,45-45
		c0-41.355-33.645-75-75-75s-75,33.645-75,75v46.689C172.264,127.913,115.556,176.46,97.238,241H91c-33.084,0-60,26.916-60,60
		s26.916,60,60,60v16c0,74.439,60.561,135,135,135h60c74.439,0,135-60.561,135-135v-16c33.084,0,60-26.916,60-60
		S454.084,241,421,241z M61,301c0-16.542,13.458-30,30-30h0.689C91.242,275.942,91,280.943,91,286v45C74.458,331,61,317.542,61,301z
		 M391,377c0,57.897-47.103,105-105,105h-60c-57.897,0-105-47.103-105-105v-91c0-74.439,60.561-135,135-135s135,60.561,135,135V377z
		 M421,331v-45c0-5.057-0.241-10.058-0.689-15H421c16.542,0,30,13.458,30,30S437.542,331,421,331z"/>
</g>
<g>
</g>
<g>
</g>
<g>
</g>
<g>
</g>
<g>
</g>
<g>
</g>
<g>
</g>
<g>
</g>
<g>
</g>
<g>
</g>
<g>
</g>
<g>
</g>
<g>
</g>
<g>
</g>
<g>
</g>
</svg>
