<?xml version="1.0" encoding="iso-8859-1"?>
<!-- Generator: Adobe Illustrator 19.0.0, SVG Export Plug-In . SVG Version: 6.00 Build 0)  -->
<svg version="1.1" id="Layer_1" xmlns="http://www.w3.org/2000/svg" xmlns:xlink="http://www.w3.org/1999/xlink" x="0px" y="0px"
	 viewBox="0 0 512.002 512.002" style="enable-background:new 0 0 512.002 512.002;" xml:space="preserve">
<g>
	<path d="M287.821,377.821c-8.5,8.5-19.8,13.18-31.82,13.18s-23.32-4.681-31.82-13.18c-5.857-5.858-15.355-5.858-21.213,0
		c-5.858,5.858-5.858,15.355,0,21.213c14.166,14.166,33,21.967,53.033,21.967s38.867-7.801,53.033-21.967
		c5.858-5.858,5.858-15.355,0-21.213C303.177,371.963,293.678,371.963,287.821,377.821z"/>
	<circle cx="196.001" cy="286.001" r="15"/>
	<circle cx="316.001" cy="286.001" r="15"/>
	<path d="M504.966,153.29l-241-151c-4.871-3.052-11.058-3.052-15.929,0l-241,151c-5.668,3.551-8.299,10.426-6.452,16.854
		c1.848,6.429,7.728,10.857,14.417,10.857h15v316c0,8.284,6.716,15,15,15h422c8.284,0,15-6.716,15-15v-316h15
		c6.688,0,12.569-4.428,14.417-10.857C513.265,163.716,510.634,156.841,504.966,153.29z M256.001,32.702l188.808,118.299
		c-17.033,0-365.306,0-377.616,0L256.001,32.702z M422.001,271.001c16.542,0,30,13.458,30,30s-13.458,30-30,30V271.001z
		 M392.001,346.001c0,74.991-61.009,136-136,136s-136-61.009-136-136v-75h10.132c31.006,0,60.802-9.554,86.166-27.629
		c16.161-11.517,29.558-25.827,39.702-42.227c10.144,16.399,23.541,30.71,39.702,42.227c25.364,18.075,55.16,27.629,86.166,27.629
		h10.132V346.001z M60.001,301.001c0-16.542,13.458-30,30-30v60C73.459,331.001,60.001,317.543,60.001,301.001z M233.08,181.001
		c-20.368,36.586-59.462,60-102.947,60c-14.064,0-25.344,0-40.132,0c-10.925,0-21.167,2.949-30,8.072v-68.072
		C61.619,181.001,229.364,181.001,233.08,181.001z M60.001,482.001V352.929c8.833,5.123,19.075,8.072,30,8.072h0.686
		c4.446,49.213,30.695,92.983,70.509,121H60.001z M350.806,482.001c39.256-27.624,66.004-71.133,70.509-121h0.686
		c10.925,0,21.167-2.949,30-8.072v129.072H350.806z M452.001,249.073c-8.833-5.123-19.075-8.072-30-8.072
		c-14.777,0-26.072,0-40.132,0c-43.485,0-82.579-23.414-102.947-60c3.715,0,171.461,0,173.079,0V249.073z"/>
</g>
<g>
</g>
<g>
</g>
<g>
</g>
<g>
</g>
<g>
</g>
<g>
</g>
<g>
</g>
<g>
</g>
<g>
</g>
<g>
</g>
<g>
</g>
<g>
</g>
<g>
</g>
<g>
</g>
<g>
</g>
</svg>
