<?xml version="1.0" encoding="iso-8859-1"?>
<!-- Generator: Adobe Illustrator 19.0.0, SVG Export Plug-In . SVG Version: 6.00 Build 0)  -->
<svg version="1.1" id="Layer_1" xmlns="http://www.w3.org/2000/svg" xmlns:xlink="http://www.w3.org/1999/xlink" x="0px" y="0px"
	 viewBox="0 0 512 512" style="enable-background:new 0 0 512 512;" xml:space="preserve">
<g>
	<circle cx="196" cy="286" r="15"/>
	<circle cx="316" cy="286" r="15"/>
	<circle cx="256" cy="181" r="15"/>
	<path d="M287.82,377.82c-8.5,8.5-19.801,13.18-31.82,13.18s-23.32-4.681-31.82-13.18c-5.857-5.858-15.355-5.858-21.213,0
		c-5.857,5.858-5.857,15.355,0,21.213C217.133,413.199,235.967,421,256,421c20.032,0,38.867-7.801,53.033-21.967
		c5.857-5.858,5.858-15.355,0.001-21.213C303.175,371.962,293.678,371.962,287.82,377.82z"/>
	<path d="M481.484,308.736C486.171,272.533,457.847,241,422,241v-15c0-64.199-37.081-119.946-91.07-147.207
		c0.786-21.238-7.16-41.25-21.777-56.204C294.914,8.022,276.037,0,256,0c-20.038,0-38.915,8.022-53.153,22.588
		c-14.601,14.938-22.564,34.943-21.777,56.204C127.081,106.054,90,161.801,90,226v15c-35.875,0-64.167,31.56-59.484,67.736
		C12.024,319.195,0,339.041,0,361c0,33.084,26.916,60,60,60c15.77,0,30.129-6.125,40.849-16.108
		C124.105,465.612,183.807,512,256,512c72.043,0,131.838-46.241,155.151-107.109C421.871,414.875,436.23,421,452,421
		c33.084,0,60-26.916,60-60C512,339.041,499.976,319.195,481.484,308.736z M452,301c0,16.542-13.458,30-30,30v-60
		C438.542,271,452,284.458,452,301z M391.047,210.057c-18.681-2.169-36.848-8.096-52.745-17.265
		c-1.078-4.105-2.721-8.083-4.946-11.792c8.177-13.63,8.773-30.821,0.587-44.999c-8.185-14.179-23.33-22.258-39.264-21.993
		c-5.247-9.45-13.676-16.677-23.679-20.341v-1.842C333.425,98.656,383.627,147.744,391.047,210.057z M207.77,192.453
		c7.084-5.991,7.078-16.921,0-22.907c-5.712-4.831-7.247-12.458-3.73-18.548c3.514-6.088,10.887-8.572,17.927-6.041
		c8.728,3.138,18.189-2.332,19.835-11.452C243.13,126.143,248.969,121,256,121c7.031,0,12.87,5.142,14.198,12.506
		c1.647,9.125,11.109,14.587,19.836,11.452c7.039-2.531,14.412-0.046,17.927,6.043c3.516,6.089,1.981,13.715-3.731,18.546
		c-7.081,5.988-7.08,16.92,0,22.907c5.713,4.831,7.247,12.458,3.73,18.548c-3.514,6.088-10.887,8.572-17.926,6.042
		c-8.726-3.136-18.189,2.328-19.836,11.452C268.87,235.858,263.031,241,256,241c-7.031,0-12.87-5.143-14.198-12.506
		c-1.647-9.119-11.104-14.589-19.835-11.452c-7.04,2.531-14.412,0.046-17.927-6.043C200.523,204.911,202.058,197.284,207.77,192.453
		z M256,30c21.361,0,39.818,16.155,44.076,36.915C286.034,63.067,271.256,61,256,61s-30.034,2.067-44.076,5.915
		C216.182,46.155,234.639,30,256,30z M241,91.825v1.842c-10.002,3.664-18.432,10.892-23.679,20.341
		c-15.862-0.257-31.079,7.814-39.263,21.991c-8.187,14.179-7.59,31.37,0.586,45c-2.225,3.71-3.868,7.688-4.946,11.792
		c-15.898,9.169-34.065,15.095-52.745,17.264C128.357,147.878,178.436,98.671,241,91.825z M90,271v60c-16.542,0-30-13.458-30-30
		S73.458,271,90,271z M60,391c-16.542,0-30-13.458-30-30c0-9.643,4.647-18.452,12.032-24.001C52.99,351.563,70.412,361,90,361
		C90,377.542,76.542,391,60,391z M256,482c-74.991,0-136-61.009-136-136v0c0-12.872,0-93.927,0-105.704
		c19.941-1.798,39.537-7.134,57.367-15.594c0.231,0.432,0.444,0.871,0.69,1.298c8.186,14.179,23.391,22.248,39.264,21.993
		C225.038,261.888,239.627,271,256,271c16.373,0,30.962-9.111,38.679-23.008c15.884,0.262,31.079-7.814,39.263-21.991
		c0.247-0.428,0.46-0.866,0.691-1.299c17.83,8.461,37.427,13.797,57.367,15.594c0,11.783,0,92.912,0,105.704v0
		C392,420.991,330.99,482,256,482z M452,391c-16.542,0-30-13.458-30-30c19.588,0,37.01-9.437,47.968-24.001
		C477.353,342.548,482,351.357,482,361C482,377.542,468.542,391,452,391z"/>
</g>
<g>
</g>
<g>
</g>
<g>
</g>
<g>
</g>
<g>
</g>
<g>
</g>
<g>
</g>
<g>
</g>
<g>
</g>
<g>
</g>
<g>
</g>
<g>
</g>
<g>
</g>
<g>
</g>
<g>
</g>
</svg>
