<?xml version="1.0" encoding="iso-8859-1"?>
<!-- Generator: Adobe Illustrator 19.0.0, SVG Export Plug-In . SVG Version: 6.00 Build 0)  -->
<svg version="1.1" id="Layer_1" xmlns="http://www.w3.org/2000/svg" xmlns:xlink="http://www.w3.org/1999/xlink" x="0px" y="0px"
	 viewBox="0 0 512 512" style="enable-background:new 0 0 512 512;" xml:space="preserve">
<g>
	<circle cx="196" cy="256" r="15"/>
	<circle cx="316" cy="256" r="15"/>
	<path d="M287.82,347.82c-8.5,8.5-19.801,13.18-31.82,13.18s-23.32-4.681-31.82-13.18c-5.857-5.858-15.355-5.858-21.213,0
		c-5.857,5.858-5.857,15.355,0,21.213C217.133,383.199,235.967,391,256,391c20.032,0,38.867-7.801,53.033-21.967
		c5.857-5.858,5.858-15.355,0.001-21.213C303.175,341.962,293.678,341.962,287.82,347.82z"/>
	<path d="M481.484,278.736C486.171,242.533,457.847,211,422,211v-15c0-90.888-74.374-165-166-165c-91.566,0-166,74.056-166,165
		v16.076C39.183,219.377,0,263.195,0,316v30c0,8.284,6.716,15,15,15c19.443,0,38.167-5.297,54.438-15.187
		c9.692,23.502,23.486,39.185,24.376,40.181c3.407,3.813,8.672,5.774,14.073,4.714c11.866,23.27,29.198,43.433,50.995,59.058
		C187.386,470.199,220.969,481,256,481c70.692,0,131.194-44.155,155.085-106.171C421.812,384.849,436.198,391,452,391
		c33.084,0,60-26.916,60-60C512,309.041,499.976,289.195,481.484,278.736z M452,271c0,16.542-13.458,30-30,30v-60
		C438.542,241,452,254.458,452,271z M256,61c47.053,0,88.598,23.846,113.025,60H142.975C167.402,84.846,208.946,61,256,61z M120,211
		v-15c0-15.772,2.748-31.118,7.779-45.2h105.3C212.71,187.386,173.617,211,130.132,211H120z M30,329.501V316
		c0-29.921,17.618-55.796,43.02-67.822C66.042,262.601,60,280.886,60,301c0,4.865,0.37,9.614,1.004,14.237
		C51.859,322.359,41.276,327.216,30,329.501z M90,301c0-19.272,7.883-36.967,14.999-49.013C112.119,264.038,120,281.73,120,301
		c0,19.272-7.883,36.967-14.999,49.013C97.881,337.962,90,320.27,90,301z M256,451c-55.713,0-105.494-33.551-126.086-84.178
		C139.288,351.334,150,327.79,150,301c0-23.652-8.351-44.775-16.759-60.06c59.086-1.221,111.149-37.45,133.138-89.94h117.842
		c5.031,14.082,7.779,29.227,7.779,45c0,1.568,0,118.404,0,120v0C392,390.439,330.99,451,256,451z M452,361
		c-16.542,0-30-13.458-30-30c19.588,0,37.01-9.437,47.968-24.001C477.353,312.548,482,321.357,482,331
		C482,347.542,468.542,361,452,361z"/>
</g>
<g>
</g>
<g>
</g>
<g>
</g>
<g>
</g>
<g>
</g>
<g>
</g>
<g>
</g>
<g>
</g>
<g>
</g>
<g>
</g>
<g>
</g>
<g>
</g>
<g>
</g>
<g>
</g>
<g>
</g>
</svg>
