<?xml version="1.0" encoding="iso-8859-1"?>
<!-- Generator: Adobe Illustrator 19.0.0, SVG Export Plug-In . SVG Version: 6.00 Build 0)  -->
<svg version="1.1" id="Layer_1" xmlns="http://www.w3.org/2000/svg" xmlns:xlink="http://www.w3.org/1999/xlink" x="0px" y="0px"
	 viewBox="0 0 512.25 512.25" style="enable-background:new 0 0 512.25 512.25;" xml:space="preserve">
<g>
	<path d="M287.917,409.07c-8.5,8.5-19.801,13.18-31.82,13.18s-23.32-4.681-31.82-13.18c-5.857-5.858-15.355-5.858-21.213,0
		c-5.857,5.858-5.857,15.355,0,21.213c14.166,14.166,33,21.967,53.033,21.967c20.032,0,38.867-7.801,53.033-21.967
		c5.857-5.858,5.858-15.355,0.001-21.213C303.271,403.212,293.774,403.212,287.917,409.07z"/>
	<path d="M462.491,286.879c-0.196-2.188-0.471-4.371-0.834-6.543c26.319-31.892,26.334-78.26,0-110.171
		c6.794-40.738-16.403-80.909-55.079-95.396c-14.488-38.676-54.659-61.871-95.401-55.078
		c-31.882-26.251-78.271-26.256-110.154-0.004c-40.778-6.848-80.943,16.322-95.413,55.085
		c-38.676,14.487-61.866,54.661-55.072,95.399c-26.252,31.884-26.252,78.276,0,110.159c-0.363,2.174-0.639,4.359-0.835,6.549
		c-11.45,10.933-18.605,26.328-18.605,43.371c0,33.084,26.916,60,60,60v17c0,57.897,47.103,105,105,105h120
		c57.897,0,105-47.103,105-105v-17c33.084,0,60-26.916,60-60C481.097,313.206,473.941,297.812,462.491,286.879z M77.421,265.361
		c-22.117-22.117-22.117-58.105,0-80.223c3.79-3.79,5.27-9.313,3.882-14.489c-8.096-30.213,9.898-61.38,40.11-69.476
		c5.176-1.387,9.22-5.43,10.606-10.606c8.115-30.285,39.19-48.226,69.476-40.111c5.178,1.388,10.7-0.093,14.489-3.882
		c22.118-22.118,58.106-22.117,80.224,0c3.788,3.789,9.313,5.269,14.489,3.882c30.21-8.095,61.379,9.897,69.475,40.111
		c1.388,5.176,5.431,9.219,10.606,10.606c30.213,8.096,48.207,39.263,40.11,69.476c-1.387,5.176,0.093,10.699,3.883,14.489
		c22.171,22.171,22.17,58.052-0.001,80.223c-1.647,1.647-2.857,3.622-3.585,5.753c-6.271-1.067-8.748-0.865-25.084-0.865
		c-0.002,0-0.003,0-0.005,0c-0.013,0-0.026,0.002-0.04,0.002c-13.697-18.205-35.475-30.002-59.96-30.002
		c-60.444,0-113.94-40.623-130.092-98.788c-2.378-8.563-11.643-13.186-19.91-9.959c-30.593,11.948-56.714,32.566-75.537,59.627
		c-16.409,23.59-26.227,50.688-28.784,79.12h-0.677c-3.44,0-6.807,0.307-10.09,0.865C80.278,268.984,79.068,267.009,77.421,265.361z
		 M239.587,300.25c-6.968-34.192-37.271-60-73.491-60c-15.146,0-29.247,4.527-41.051,12.279
		c9.095-36.969,33.405-68.41,67.605-86.508c18.056,45.549,55.542,80.316,101.047,95.64c-10.521,10.29-18.044,23.632-21.092,38.59
		H239.587z M166.097,270.25c24.813,0,45,20.187,45,45s-20.187,45-45,45s-45-20.187-45-45S141.284,270.25,166.097,270.25z
		 M346.097,270.25c24.813,0,45,20.187,45,45s-20.187,45-45,45s-45-20.187-45-45S321.283,270.25,346.097,270.25z M61.097,330.25
		c0-16.542,13.458-30,30-30v60C74.555,360.25,61.097,346.792,61.097,330.25z M391.097,407.25c0,41.355-33.645,75-75,75h-120
		c-41.355,0-75-33.645-75-75v-32v-0.041c12.544,9.438,28.129,15.041,45,15.041c36.219,0,66.522-25.808,73.491-60h33.019
		c6.968,34.192,37.271,60,73.491,60c16.871,0,32.456-5.603,45-15.041v0.041V407.25z M421.097,360.25v-60c16.542,0,30,13.458,30,30
		S437.639,360.25,421.097,360.25z"/>
</g>
<g>
</g>
<g>
</g>
<g>
</g>
<g>
</g>
<g>
</g>
<g>
</g>
<g>
</g>
<g>
</g>
<g>
</g>
<g>
</g>
<g>
</g>
<g>
</g>
<g>
</g>
<g>
</g>
<g>
</g>
</svg>
