<?xml version="1.0" encoding="iso-8859-1"?>
<!-- Generator: Adobe Illustrator 19.0.0, SVG Export Plug-In . SVG Version: 6.00 Build 0)  -->
<svg version="1.1" id="Layer_1" xmlns="http://www.w3.org/2000/svg" xmlns:xlink="http://www.w3.org/1999/xlink" x="0px" y="0px"
	 viewBox="0 0 512 512" style="enable-background:new 0 0 512 512;" xml:space="preserve">
<g>
	<circle cx="211" cy="225" r="15"/>
	<circle cx="331" cy="225" r="15"/>
	<path d="M302.82,316.819C294.32,325.319,283.02,330,271,330s-23.32-4.681-31.82-13.18c-5.857-5.858-15.355-5.858-21.213,0
		c-5.858,5.858-5.858,15.355,0,21.213C232.133,352.199,250.967,360,271,360s38.867-7.801,53.033-21.967
		c5.857-5.858,5.858-15.355,0-21.213C318.177,310.962,308.679,310.962,302.82,316.819z"/>
	<path d="M436,150V75.209c0.001-0.044,0-0.089,0-0.133V75c0-41.355-33.645-75-75-75H181c-41.355,0-75,33.645-75,75v22.174
		C49.5,137.95,16,203.132,16,273.167V497c0,8.284,6.716,15,15,15h90c8.284,0,15-6.716,15-15V379.758
		C165.885,422.208,215.255,450,271,450c90.981,0,165-74.019,165-165v-15c33.084,0,60-26.916,60-60S469.084,150,436,150z M406,150
		H223.201L406,95.16V150z M136,75c0-24.813,20.187-45,45-45h180c21.103,0,38.85,14.604,43.689,34.233L136,144.84
		C136,134.731,136,85.021,136,75z M106,482H46V273.167c0-52.703,22.001-102.222,60-137.331c0,6.526,0,142.627,0,149.164V482z
		 M406,285c0,74.439-60.561,135-135,135s-135-60.561-135-135V180h270C406,190.488,406,274.483,406,285z M436,240v-60
		c16.542,0,30,13.458,30,30S452.542,240,436,240z"/>
</g>
<g>
</g>
<g>
</g>
<g>
</g>
<g>
</g>
<g>
</g>
<g>
</g>
<g>
</g>
<g>
</g>
<g>
</g>
<g>
</g>
<g>
</g>
<g>
</g>
<g>
</g>
<g>
</g>
<g>
</g>
</svg>
