<?xml version="1.0" encoding="iso-8859-1"?>
<!-- Generator: Adobe Illustrator 19.0.0, SVG Export Plug-In . SVG Version: 6.00 Build 0)  -->
<svg version="1.1" id="Layer_1" xmlns="http://www.w3.org/2000/svg" xmlns:xlink="http://www.w3.org/1999/xlink" x="0px" y="0px"
	 viewBox="0 0 512 512" style="enable-background:new 0 0 512 512;" xml:space="preserve">
<g>
	<path d="M287.82,378.819C279.32,387.319,268.02,392,256,392s-23.32-4.681-31.82-13.18c-5.857-5.858-15.355-5.858-21.213,0
		c-5.858,5.858-5.858,15.355,0,21.213C217.133,414.199,235.967,422,256,422s38.867-7.801,53.033-21.967
		c5.857-5.858,5.858-15.355,0-21.213C303.176,372.962,293.678,372.962,287.82,378.819z"/>
	<circle cx="316" cy="287" r="15"/>
	<circle cx="196" cy="287" r="15"/>
	<path d="M453.169,153.674c-34.886-42.411-82.244-72.578-134.367-85.859c-0.392-2.361-0.957-4.716-1.734-7.045L316.812,60H376
		c8.284,0,15-6.716,15-15s-6.716-15-15-15h-69.205c-6.354-17.976-23.292-30-42.417-30h-16.755c-19.127,0-36.065,12.024-42.417,30
		H136c-8.284,0-15,6.716-15,15s6.716,15,15,15h59.188l-0.257,0.77c-0.776,2.329-1.342,4.684-1.734,7.045
		c-52.124,13.281-99.48,43.449-134.367,85.859C20.893,199.793,0,257.797,0,317c0,41.355,33.645,75,75,75h22.238
		C116.873,461.18,180.613,512,256,512s139.127-50.82,158.762-120H437c41.355,0,75-33.645,75-75
		C512,257.797,491.106,199.793,453.169,153.674z M247.623,30h16.755c6.466,0,12.185,4.122,14.23,10.257
		c3.503,10.511,6.577,19.732,10,30c3.241,9.725-3.98,19.743-14.23,19.743h-36.755c-10.252,0-17.471-10.021-14.23-19.743
		c3.416-10.248,6.508-19.523,10-30C235.438,34.122,241.156,30,247.623,30z M256,482c-74.439,0-135-60.561-135-135v-60
		c0-41.355,33.645-75,75-75h120c41.355,0,75,33.645,75,75v60C391,421.439,330.439,482,256,482z M437,362h-16.689
		c0.448-4.942,0.689-9.943,0.689-15v-60c0-57.897-47.103-105-105-105H196c-57.897,0-105,47.103-105,105v60
		c0,5.057,0.241,10.058,0.689,15H75c-24.813,0-45-20.187-45-45c0-103.349,70.18-193.724,168.601-219.603
		c8.242,14.25,22.824,22.603,39.021,22.603h36.755c16.18,0,30.772-8.338,39.022-22.603C411.82,123.276,482,213.651,482,317
		C482,341.813,461.813,362,437,362z"/>
</g>
<g>
</g>
<g>
</g>
<g>
</g>
<g>
</g>
<g>
</g>
<g>
</g>
<g>
</g>
<g>
</g>
<g>
</g>
<g>
</g>
<g>
</g>
<g>
</g>
<g>
</g>
<g>
</g>
<g>
</g>
</svg>
