<?xml version="1.0" encoding="iso-8859-1"?>
<!-- Generator: Adobe Illustrator 19.0.0, SVG Export Plug-In . SVG Version: 6.00 Build 0)  -->
<svg version="1.1" id="Layer_1" xmlns="http://www.w3.org/2000/svg" xmlns:xlink="http://www.w3.org/1999/xlink" x="0px" y="0px"
	 viewBox="0 0 512 512" style="enable-background:new 0 0 512 512;" xml:space="preserve">
<g>
	<circle cx="151" cy="255" r="15"/>
	<circle cx="271" cy="255" r="15"/>
	<path d="M496,135v-30c0-8.284-6.716-15-15-15h-30c-24.484,0-46.262,11.796-59.959,30h-0.05C361.546,49.597,291.96,0,211,0
		C103.492,0,16,87.487,16,195v122c0,107.523,87.477,195,195,195s195-87.477,195-195v-32.041C418.544,294.397,434.129,300,451,300h30
		c8.284,0,15-6.716,15-15v-30c0-24.508-11.818-46.305-30.052-60C484.182,181.305,496,159.508,496,135z M376,302H46v-92
		c4.911,0,319.475,0,330,0C376,220.756,376,291.655,376,302z M141.729,150l15,30H46.689c0.933-10.299,2.804-20.33,5.549-30H141.729z
		 M369.762,150c2.745,9.67,4.616,19.701,5.549,30H265.27l15-30H369.762z M231.729,180h-41.459l-15-30h71.459L231.729,180z M211,30
		c63.992,0,119.592,36.618,146.948,90c-14.9,0-281.455,0-293.896,0C91.408,66.618,147.008,30,211,30z M211,482
		c-85.925,0-156.707-66.222-164.311-150.2h328.622C367.707,415.778,296.925,482,211,482z M466,255v15h-15c-24.813,0-45-20.187-45-45
		v-15h15C445.813,210,466,230.187,466,255z M466,135c0,24.813-20.187,45-45,45h-15v-15c0-24.813,20.187-45,45-45h15V135z"/>
</g>
<g>
</g>
<g>
</g>
<g>
</g>
<g>
</g>
<g>
</g>
<g>
</g>
<g>
</g>
<g>
</g>
<g>
</g>
<g>
</g>
<g>
</g>
<g>
</g>
<g>
</g>
<g>
</g>
<g>
</g>
</svg>
