<?xml version="1.0" encoding="iso-8859-1"?>
<!-- Generator: Adobe Illustrator 19.0.0, SVG Export Plug-In . SVG Version: 6.00 Build 0)  -->
<svg version="1.1" id="Layer_1" xmlns="http://www.w3.org/2000/svg" xmlns:xlink="http://www.w3.org/1999/xlink" x="0px" y="0px"
	 viewBox="0 0 512 512" style="enable-background:new 0 0 512 512;" xml:space="preserve">
<g>
	<path d="M287.82,377.819C279.32,386.319,268.02,391,256,391s-23.32-4.681-31.82-13.18c-5.857-5.858-15.355-5.858-21.213,0
		c-5.858,5.858-5.858,15.355,0,21.213C217.133,413.199,235.967,421,256,421s38.867-7.801,53.033-21.967
		c5.857-5.858,5.858-15.355,0-21.213C303.176,371.962,293.678,371.962,287.82,377.819z"/>
	<path d="M451.748,186.048C446.57,83.192,360.795,0,256,0C151.222,0,65.431,83.176,60.252,186.049C24.702,198.499,0,232.438,0,271
		c0,26.595,11.599,50.529,30,67.02V406c0,24.813,20.187,45,45,45h52.78c31.553,38.276,77.744,61,128.22,61
		c86.771,0,157.774-67.388,165.325-151H422c49.626,0,90-40.374,90-90C512,232.438,487.298,198.499,451.748,186.048z M377,301
		h-78.573c-4.007,0-7.774-1.56-10.607-4.393l-21.212-21.213c-5.854-5.853-15.356-5.858-21.213,0l-21.213,21.213
		c-2.833,2.833-6.6,4.393-10.606,4.393H135c-24.813,0-45-20.187-45-45v-34.586c0-7.346,5.248-13.557,12.485-14.788
		c0.022-0.004,0.045-0.007,0.068-0.011c100.385-16.732,206.507-16.732,306.895,0c0.017,0.003,0.035,0.006,0.055,0.009
		c7.244,1.226,12.498,7.439,12.498,14.79V256C422,280.813,401.813,301,377,301z M256,30c85.685,0,156.41,65.257,165.099,148.68
		c-2.161-0.708-4.395-1.27-6.701-1.654c-0.02-0.003-0.043-0.007-0.067-0.011c-103.57-17.255-213.069-17.256-316.64-0.003
		c-0.03,0.005-0.059,0.01-0.089,0.015c-2.306,0.384-4.54,0.947-6.7,1.654C99.59,95.256,170.316,30,256,30z M60,219.039v2.375V256
		c0,24.485,11.797,46.264,30.002,59.96c0,0.013-0.002,0.026-0.002,0.04v15c-33.084,0-60-26.916-60-60
		C30,249.15,41.892,229.534,60,219.039z M75,421c-8.271,0-15-6.729-15-15v-50.148C69.388,359.181,79.485,361,90,361h0.674
		c1.904,21.081,7.82,41.371,17.365,60H75z M256,482c-32.754,0-62.84-11.641-86.342-31H196c8.284,0,15-6.716,15-15s-6.716-15-15-15
		h-53.391C128.331,399.486,120,373.699,120,346v-16.509c4.848,0.988,9.864,1.509,15,1.509h78.574c12.02,0,23.32-4.681,31.819-13.18
		L256,307.213l10.606,10.606c8.499,8.5,19.8,13.18,31.82,13.18H377c5.136,0,10.152-0.521,15-1.509V346
		C392,420.991,330.99,482,256,482z M422,331v-15c0-0.013-0.002-0.026-0.002-0.04C440.203,302.264,452,280.485,452,256v-34.586
		v-2.375c18.108,10.495,30,30.111,30,51.961C482,304.084,455.084,331,422,331z"/>
</g>
<g>
</g>
<g>
</g>
<g>
</g>
<g>
</g>
<g>
</g>
<g>
</g>
<g>
</g>
<g>
</g>
<g>
</g>
<g>
</g>
<g>
</g>
<g>
</g>
<g>
</g>
<g>
</g>
<g>
</g>
</svg>
