<?xml version="1.0" encoding="iso-8859-1"?>
<!-- Generator: Adobe Illustrator 19.0.0, SVG Export Plug-In . SVG Version: 6.00 Build 0)  -->
<svg version="1.1" id="Layer_1" xmlns="http://www.w3.org/2000/svg" xmlns:xlink="http://www.w3.org/1999/xlink" x="0px" y="0px"
	 viewBox="0 0 512 512" style="enable-background:new 0 0 512 512;" xml:space="preserve">
<g>
	<path d="M202.967,399.033C217.133,413.199,235.967,421,256,421s38.867-7.801,53.033-21.967c5.857-5.858,5.858-15.355,0-21.213
		c-5.857-5.858-15.355-5.857-21.213,0C279.32,386.319,268.02,391,256,391s-23.32-4.681-31.82-13.18
		c-5.857-5.858-15.355-5.858-21.213,0C197.109,383.678,197.109,393.175,202.967,399.033z"/>
	<circle cx="196" cy="286" r="15"/>
	<circle cx="316" cy="286" r="15"/>
	<path d="M481,301c0-33.084-26.916-60-60-60v-15c0-64.411-36.654-120.37-90.078-147.878C332.696,35.3,298.334,0,256,0
		c-42.321,0-76.691,35.283-74.922,78.123C127.654,105.63,91,161.589,91,226v15c-33.084,0-60,26.916-60,60
		c0,27.59,18.726,50.876,44.131,57.854C46.827,396.798,31,443.822,31,491.853V497c0,8.284,6.716,15,15,15h420
		c8.284,0,15-6.716,15-15v-5.147c0-48.03-15.827-95.054-44.131-132.999C462.274,351.877,481,328.591,481,301z M121,262.213
		l47.219-47.218c54.499,31.135,121.063,31.135,175.563,0L391,262.213v83.782c0,0.003,0,0.006,0,0.009
		C390.998,420.993,330.438,482,256,482c-74.439,0-135-61.009-135-136V262.213z M451,301c0,16.542-13.458,30-30,30v-60
		C437.542,271,451,284.458,451,301z M256,30c21.742,0,39.93,15.5,44.1,36.03C286.056,62.106,271.269,60,256,60
		s-30.056,2.106-44.1,6.03C216.07,45.5,234.258,30,256,30z M256,90c72.321,0,131.536,57.588,134.848,129.635l-34.241-34.241
		c-5.057-5.057-12.977-5.841-18.927-1.875c-49.62,33.08-113.742,33.079-163.359,0c-5.949-3.966-13.871-3.182-18.927,1.875
		l-34.241,34.241C124.464,147.588,183.679,90,256,90z M61,301c0-16.542,13.458-30,30-30v60C74.458,331,61,317.542,61,301z
		 M61.256,482c1.853-35.732,13.737-70.382,33.782-99.455c9.169,40.897,33.384,76.12,66.465,99.455H61.256z M350.498,482
		c33.081-23.335,57.296-58.558,66.465-99.455c20.045,29.073,31.928,63.723,33.782,99.455H350.498z"/>
</g>
<g>
</g>
<g>
</g>
<g>
</g>
<g>
</g>
<g>
</g>
<g>
</g>
<g>
</g>
<g>
</g>
<g>
</g>
<g>
</g>
<g>
</g>
<g>
</g>
<g>
</g>
<g>
</g>
<g>
</g>
</svg>
