<?xml version="1.0" encoding="iso-8859-1"?>
<!-- Generator: Adobe Illustrator 19.0.0, SVG Export Plug-In . SVG Version: 6.00 Build 0)  -->
<svg version="1.1" id="Layer_1" xmlns="http://www.w3.org/2000/svg" xmlns:xlink="http://www.w3.org/1999/xlink" x="0px" y="0px"
	 viewBox="0 0 512.001 512.001" style="enable-background:new 0 0 512.001 512.001;" xml:space="preserve">
<g>
	<path d="M287.821,378.821c-8.5,8.5-19.801,13.181-31.82,13.181s-23.32-4.681-31.82-13.18c-5.857-5.858-15.355-5.858-21.213,0
		c-5.858,5.858-5.858,15.355,0,21.213c14.166,14.166,33,21.967,53.033,21.967s38.867-7.801,53.033-21.967
		c5.857-5.858,5.858-15.355,0-21.213C303.176,372.964,293.678,372.963,287.821,378.821z"/>
	<circle cx="196.001" cy="287.001" r="15"/>
	<circle cx="316.001" cy="287.001" r="15"/>
	<path d="M421.001,178.945c51.37-7.24,91-51.09,91-103.944v-60c0-6.61-4.327-12.441-10.653-14.356
		c-6.322-1.915-13.16,0.536-16.827,6.036c-21.179,31.769-52.424,56.516-88.834,70.597C365.47,29.336,313.019,0.001,256.001,0.001
		c-57.229,0-109.588,29.522-139.685,77.277C79.905,63.197,48.66,38.449,27.482,6.681c-3.666-5.5-10.501-7.952-16.828-6.036
		C4.327,2.56,0.001,8.391,0.001,15.001v60c0,52.854,39.63,96.704,91,103.944c0,6.775,0,55.087,0,63.056c-33.084,0-60,26.916-60,60
		s26.916,60,60,60h0.689c7.604,83.978,78.386,150,164.311,150s156.707-66.022,164.311-150h0.689c33.084,0,60-26.916,60-60
		s-26.916-60-60-60C421.001,234.034,421.001,185.726,421.001,178.945z M391.001,332.001h-40.563
		c-57.861-36.46-131.019-36.46-188.88,0h-40.558c0-11.415,0-77.049,0-90h270C391.001,251.396,391.001,321.846,391.001,332.001z
		 M482.001,56.574v18.427c0,36.567-26.663,67.088-61.808,73.669c-1.539-15.587-5.254-30.543-10.84-44.56
		C436.67,93.109,461.419,76.886,482.001,56.574z M390.163,150.001h-89.162V37.723C348.854,54.692,384.379,97.922,390.163,150.001z
		 M271.001,30.839v134.162c0,8.284,6.716,15,15,15h105c0,11.58,0,20.42,0,32h-270c0-11.58,0-20.42,0-32h105c8.284,0,15-6.716,15-15
		V30.839c4.927-0.547,9.93-0.838,15-0.838S266.074,30.292,271.001,30.839z M211.001,37.723v112.278h-89.162
		C127.622,97.922,163.148,54.692,211.001,37.723z M30.001,75.001V56.574c20.582,20.312,45.33,36.535,72.647,47.537
		c-5.585,14.017-9.301,28.973-10.84,44.56C56.664,142.089,30.001,111.569,30.001,75.001z M61.001,302.001c0-16.542,13.458-30,30-30
		v60C74.459,332.001,61.001,318.543,61.001,302.001z M256.001,482.001c-69.369,0-126.676-52.595-134.162-120h44.153
		c2.959,0,5.86-0.878,8.323-2.521c49.621-33.078,113.747-33.278,163.368-0.199c2.464,1.643,5.359,2.519,8.32,2.519h44.159
		C382.677,429.207,325.37,482.001,256.001,482.001z M451.001,302.001c0,16.542-13.458,30-30,30v-60
		C437.543,272.001,451.001,285.459,451.001,302.001z"/>
</g>
<g>
</g>
<g>
</g>
<g>
</g>
<g>
</g>
<g>
</g>
<g>
</g>
<g>
</g>
<g>
</g>
<g>
</g>
<g>
</g>
<g>
</g>
<g>
</g>
<g>
</g>
<g>
</g>
<g>
</g>
</svg>
