<?xml version="1.0" encoding="iso-8859-1"?>
<!-- Generator: Adobe Illustrator 19.0.0, SVG Export Plug-In . SVG Version: 6.00 Build 0)  -->
<svg version="1.1" id="Layer_1" xmlns="http://www.w3.org/2000/svg" xmlns:xlink="http://www.w3.org/1999/xlink" x="0px" y="0px"
	 viewBox="0 0 512 512" style="enable-background:new 0 0 512 512;" xml:space="preserve">
<g>
	<path d="M287.82,377.82c-8.5,8.5-19.801,13.18-31.82,13.18s-23.32-4.681-31.82-13.18c-5.859-5.858-15.354-5.857-21.214,0.001
		c-5.857,5.858-5.856,15.355,0.001,21.213C217.133,413.199,235.968,421,256,421s38.867-7.801,53.033-21.967
		c5.857-5.858,5.858-15.355,0.001-21.213C303.175,371.962,293.678,371.962,287.82,377.82z"/>
	<path d="M421,211v-45C421,74.467,346.981,0,256,0L76,0c-8.284,0-15,6.716-15,15c0,49.057,21.268,93.205,55.007,123.621
		C102.249,160.565,93.981,185.168,91.674,211H91c-33.084,0-60,26.916-60,60s26.916,60,60,60v15c0,91.532,74.019,166,165,166
		s165-74.467,165-166v-15c33.084,0,60-26.916,60-60S454.084,211,421,211z M346,331c-24.813,0-45-20.187-45-45s20.187-45,45-45
		s45,20.187,45,45S370.813,331,346,331z M91.815,30H256c69.41,0,126.752,53.038,134.185,121H226C156.59,151,99.248,97.962,91.815,30
		z M226,181h165v45v0.041C378.456,216.603,362.871,211,346,211c-36.22,0-66.522,25.808-73.491,60h-33.019
		c-6.968-34.192-37.271-60-73.491-60c-16.871,0-32.456,5.603-45,15.041V226v0c0-24.74,6.594-48.428,19.137-69.298
		C165.166,172.109,194.57,181,226,181z M211,286c0,24.813-20.187,45-45,45s-45-20.187-45-45s20.187-45,45-45S211,261.187,211,286z
		 M61,271c0-16.542,13.458-30,30-30v60C74.458,301,61,287.542,61,271z M271,481.156V467c0-8.284-6.716-15-15-15s-15,6.716-15,15
		v14.156C173.594,473.614,121,415.883,121,346v-0.041C133.544,355.397,149.129,361,166,361c36.22,0,66.522-25.808,73.491-60h33.019
		c6.968,34.192,37.271,60,73.491,60c16.871,0,32.456-5.603,45-15.041V346C391,415.883,338.406,473.614,271,481.156z M421,301v-60
		c16.542,0,30,13.458,30,30S437.542,301,421,301z"/>
</g>
<g>
</g>
<g>
</g>
<g>
</g>
<g>
</g>
<g>
</g>
<g>
</g>
<g>
</g>
<g>
</g>
<g>
</g>
<g>
</g>
<g>
</g>
<g>
</g>
<g>
</g>
<g>
</g>
<g>
</g>
</svg>
