<?xml version="1.0" encoding="iso-8859-1"?>
<!-- Generator: Adobe Illustrator 19.0.0, SVG Export Plug-In . SVG Version: 6.00 Build 0)  -->
<svg version="1.1" id="Layer_1" xmlns="http://www.w3.org/2000/svg" xmlns:xlink="http://www.w3.org/1999/xlink" x="0px" y="0px"
	 viewBox="0 0 512 512" style="enable-background:new 0 0 512 512;" xml:space="preserve">
<g>
	<circle cx="196" cy="286" r="15"/>
	<circle cx="316" cy="286" r="15"/>
	<path d="M256,0C131.718,0,31,101.615,31,226v271c0,8.284,6.716,15,15,15h420c8.284,0,15-6.716,15-15V226
		C481,101.83,380.498,0,256,0z M379.614,74.527C358.065,101.741,309.594,120,256,120s-102.065-18.259-123.614-45.473
		C166.055,46.717,209.121,30,256,30S345.945,46.717,379.614,74.527z M211,474.221v-76.064c28.736-11.683,61.266-11.682,90,0v76.064
		c-14.082,5.031-29.228,7.779-45,7.779S225.082,479.252,211,474.221z M322.708,375.076c-41.769-20.885-91.646-20.886-133.416,0
		c-5.082,2.541-8.292,7.735-8.292,13.417v70.533c-36.154-24.427-60-65.972-60-113.025v-51.507l135-81l135,81V346
		c0,47.053-23.846,88.598-60,113.025v-70.533C331,382.811,327.79,377.617,322.708,375.076z M451,482H350.498
		C393.094,451.953,421,402.197,421,346v-60c0-5.269-2.765-10.152-7.282-12.862l-150-90c-4.75-2.85-10.686-2.85-15.436,0l-150,90
		C93.765,275.848,91,280.731,91,286v60c0,56.196,27.906,105.952,70.502,136H61V226c0-50.13,18.83-95.916,49.742-130.612
		C138.953,128.661,194.23,150,256,150s117.047-21.339,145.258-54.612C432.17,130.084,451,175.87,451,226V482z"/>
</g>
<g>
</g>
<g>
</g>
<g>
</g>
<g>
</g>
<g>
</g>
<g>
</g>
<g>
</g>
<g>
</g>
<g>
</g>
<g>
</g>
<g>
</g>
<g>
</g>
<g>
</g>
<g>
</g>
<g>
</g>
</svg>
