<?xml version="1.0" encoding="iso-8859-1"?>
<!-- Generator: Adobe Illustrator 19.0.0, SVG Export Plug-In . SVG Version: 6.00 Build 0)  -->
<svg version="1.1" id="Layer_1" xmlns="http://www.w3.org/2000/svg" xmlns:xlink="http://www.w3.org/1999/xlink" x="0px" y="0px"
	 viewBox="0 0 512 512" style="enable-background:new 0 0 512 512;" xml:space="preserve">
<g>
	<circle cx="196" cy="285" r="15"/>
	<circle cx="316" cy="285" r="15"/>
	<path d="M346,0H166C108.103,0,61,47.103,61,105v150c0,12.713,14.696,19.453,24.37,11.713l5.63-4.504V347
		c0,90.955,74.013,165,165,165c90.951,0,165-74.007,165-165v-84.172l6.421,4.477C437.34,274.22,451,267.111,451,255V105
		C451,47.061,403.834,0,346,0z M166,30h167.238L91,223.791V105C91,63.645,124.645,30,166,30z M241,180c0-18.313,8.884-30,15-30
		s15,11.687,15,30s-8.884,30-15,30S241,198.313,241,180z M216.856,210h-60.594l56.081-44.865C211.468,169.875,211,174.851,211,180
		C211,191.006,213.126,201.222,216.856,210z M300.984,179.152L345.23,210h-50.086c3.73-8.778,5.856-18.994,5.856-30
		C301,179.715,300.987,179.435,300.984,179.152z M211,474.278v-87.613c28.736-11.683,61.264-11.683,90,0v87.613
		c-14.082,4.994-29.228,7.722-45,7.722S225.082,479.272,211,474.278z M391,347c0,46.708-23.846,87.947-60,112.194V377
		c0-5.682-3.21-10.875-8.292-13.416c-41.77-20.886-91.646-20.886-133.416,0C184.21,366.125,181,371.318,181,377v82.194
		c-36.154-24.247-60-65.487-60-112.194V240h267.258l2.742,1.912V347z M421,226.256L268.686,120.06l105.62-84.496
		C401.667,46.759,421,73.657,421,105V226.256z"/>
</g>
<g>
</g>
<g>
</g>
<g>
</g>
<g>
</g>
<g>
</g>
<g>
</g>
<g>
</g>
<g>
</g>
<g>
</g>
<g>
</g>
<g>
</g>
<g>
</g>
<g>
</g>
<g>
</g>
<g>
</g>
</svg>
