<?xml version="1.0" encoding="iso-8859-1"?>
<!-- Generator: Adobe Illustrator 19.0.0, SVG Export Plug-In . SVG Version: 6.00 Build 0)  -->
<svg version="1.1" id="Layer_1" xmlns="http://www.w3.org/2000/svg" xmlns:xlink="http://www.w3.org/1999/xlink" x="0px" y="0px"
	 viewBox="0 0 512 512" style="enable-background:new 0 0 512 512;" xml:space="preserve">
<g>
	<path d="M287.857,377.819c-8.5,8.5-19.801,13.181-31.82,13.181s-23.32-4.681-31.82-13.181c-5.857-5.857-15.355-5.857-21.213,0
		c-5.858,5.858-5.857,15.355,0,21.213c14.166,14.166,33,21.967,53.033,21.967s38.867-7.801,53.033-21.967
		c5.857-5.858,5.858-15.355,0-21.213C303.212,371.962,293.714,371.962,287.857,377.819z"/>
	<path d="M421.036,241v-31.147c31.231-2.061,56.014-28.109,56.014-59.853c0-10.574-2.854-20.898-8.185-30
		c25.258-43.124-10.877-96.126-59.737-89.462C398.683,12.03,378.916,0,357.05,0c-15.069,0-29.478,5.61-40.572,15.796
		c-6.363,5.843-11.313,12.902-14.628,20.681C287.298,32.265,271.927,30,256.036,30c-17.184,0-33.761,2.644-49.351,7.541
		C197.771,15.45,176.128,0,151.036,0c-21.866,0-41.633,12.03-52.078,30.538C49.81,23.835,14.102,77.113,39.221,120
		c-5.331,9.102-8.185,19.426-8.185,30c0,33.084,26.916,60,60,60v31c-33.084,0-60,26.916-60,60c0,30.693,23.165,56.078,52.931,59.586
		C94.774,442.817,165.011,512,256.036,512c91.027,0,161.263-69.188,172.069-151.414c29.766-3.508,52.931-28.893,52.931-59.586
		C481.036,267.916,454.12,241,421.036,241z M357.05,30c13.412,0,25.25,9.133,28.788,22.209c2.344,8.662,11.734,13.348,20.068,10.003
		C409.563,60.744,413.312,60,417.05,60c16.542,0,30,13.458,30,30c0,9.32-4.254,15.999-7.823,19.96
		c-5.141,5.706-5.141,14.373,0,20.079c3.568,3.962,7.823,10.641,7.823,19.96c0,15.433-11.715,28.177-26.719,29.817
		c-5.318-58.011-40.787-107.425-90.561-132.395C334.512,37.033,344.944,30,357.05,30z M391.036,195v31.041
		c-12.544-9.438-28.129-15.041-45-15.041c-36.22,0-66.522,25.808-73.491,60h-33.019c-6.968-34.192-37.271-60-73.491-60
		c-16.871,0-32.456,5.603-45,15.041V195c0-74.439,60.561-135,135-135S391.036,120.561,391.036,195z M391.036,286
		c0,24.813-20.187,45-45,45s-45-20.187-45-45s20.187-45,45-45S391.036,261.187,391.036,286z M166.036,241c24.813,0,45,20.187,45,45
		s-20.187,45-45,45s-45-20.187-45-45S141.223,241,166.036,241z M61.036,150c0-9.32,4.254-15.999,7.823-19.96
		c5.141-5.706,5.141-14.373,0-20.08c-3.569-3.962-7.823-10.64-7.823-19.96c0-16.542,13.458-30,30-30
		c3.738,0,7.487,0.744,11.144,2.212c8.327,3.343,17.723-1.334,20.068-10.003C125.786,39.133,137.624,30,151.036,30
		c12.684,0,23.603,7.892,27.967,19.124c-48.081,25.493-82.123,74.059-87.275,130.847c-0.231,0.005-0.46,0.029-0.692,0.029
		C74.494,180,61.036,166.542,61.036,150z M82.704,329.823C70.202,326.204,61.036,314.653,61.036,301c0-16.542,13.458-30,30-30
		v12.899l-1.731,6.06C85.535,303.152,83.349,316.513,82.704,329.823z M399.411,344.387c-0.057,0.53-0.086,1.068-0.086,1.613
		c0,0.03,0,0.061,0,0.091C395.236,418.971,334.92,482,256.036,482c-78.91,0-139.201-63.063-143.289-135.907c0-0.031,0-0.062,0-0.093
		c0-0.546-0.029-1.084-0.086-1.615c-0.087-1.965-0.131-3.934-0.137-5.905c13.62,13.885,32.572,22.52,53.512,22.52
		c36.22,0,66.522-25.808,73.491-60h33.019c6.968,34.192,37.271,60,73.491,60c20.939,0,39.892-8.635,53.512-22.52
		C399.543,340.452,399.498,342.421,399.411,344.387z M429.367,329.823c-0.644-13.31-2.83-26.671-6.6-39.864l-1.731-6.061V271
		c16.542,0,30,13.458,30,30C451.036,314.653,441.869,326.204,429.367,329.823z"/>
	<path d="M196.036,180h120c8.284,0,15-6.716,15-15s-6.716-15-15-15h-120c-8.284,0-15,6.716-15,15S187.752,180,196.036,180z"/>
</g>
<g>
</g>
<g>
</g>
<g>
</g>
<g>
</g>
<g>
</g>
<g>
</g>
<g>
</g>
<g>
</g>
<g>
</g>
<g>
</g>
<g>
</g>
<g>
</g>
<g>
</g>
<g>
</g>
<g>
</g>
</svg>
