<?xml version="1.0" encoding="iso-8859-1"?>
<!-- Generator: Adobe Illustrator 19.0.0, SVG Export Plug-In . SVG Version: 6.00 Build 0)  -->
<svg version="1.1" id="Layer_1" xmlns="http://www.w3.org/2000/svg" xmlns:xlink="http://www.w3.org/1999/xlink" x="0px" y="0px"
	 viewBox="0 0 512.017 512.017" style="enable-background:new 0 0 512.017 512.017;" xml:space="preserve">
<g>
	<circle cx="196.009" cy="257" r="15"/>
	<circle cx="316.009" cy="257" r="15"/>
	<path d="M287.829,348.819c-8.5,8.5-19.801,13.181-31.82,13.181c-12.02,0-23.32-4.681-31.82-13.181
		c-5.857-5.857-15.355-5.857-21.213,0c-5.858,5.858-5.857,15.355,0,21.213c14.166,14.166,33,21.967,53.033,21.967
		s38.867-7.801,53.033-21.967c5.857-5.858,5.858-15.355,0-21.213C303.184,342.962,293.686,342.962,287.829,348.819z"/>
	<path d="M480.425,250.293c-18.324-36.648-28.416-80.106-28.416-122.369V15c0-7.678-5.892-14.169-13.484-14.923
		c-0.481-0.049-0.96-0.07-1.437-0.073c-0.027,0-0.052-0.004-0.079-0.004h-362c-0.027,0-0.054,0.004-0.081,0.004
		C66.622,0.051,60.009,6.843,60.009,15v112.924c0,42.263-10.092,85.721-28.416,122.37C10.93,291.618,0.009,337.88,0.009,384.08
		c0,38.164,18.958,73.586,50.712,94.755l45.968,30.646c9.919,6.615,23.32-0.493,23.32-12.48v-85.462
		c31.599,44.727,82.784,70.462,136,70.462c53.139,0,104.351-25.663,136-70.462V497c0,11.967,13.373,19.113,23.32,12.48
		l45.968-30.645c31.754-21.169,50.712-56.592,50.712-94.755C512.009,337.88,501.087,291.618,480.425,250.293z M366.854,150h-82.571
		c8.396-15.28,16.726-36.379,16.726-60h89.845L366.854,150z M256.008,40.987c7.12,12.051,15.001,29.743,15.001,49.013
		c0,19.272-7.884,36.967-14.999,49.013c-7.12-12.051-15.001-29.743-15.001-49.013C241.009,70.728,248.892,53.033,256.008,40.987z
		 M215.312,60H109.164l-12-30h130.571C223.109,38.417,218.515,48.6,215.312,60z M145.164,150l-24-60h89.845
		c0,23.621,8.329,44.72,16.726,60H145.164z M402.854,60H296.705c-3.204-11.4-7.797-21.583-12.422-30h130.571L402.854,60z
		 M90.009,468.972l-22.647-15.099c-23.389-15.592-37.353-41.683-37.353-69.793c0-41.567,9.826-83.19,28.416-120.37
		c20.367-40.733,31.584-88.956,31.584-135.786V92.889l30,75v41.668c0,64.913-17.917,84.153-26.25,137.04
		c-0.007,0.039-0.011,0.078-0.018,0.117c-2.475,15.747-3.732,31.688-3.732,47.723V468.972z M256.009,452
		c-62.555,0-117.71-43.216-132.223-103.156c7.895-47.359,26.223-70.519,26.223-139.286V180h212v29.557
		c0,68.583,18.369,92.165,26.223,139.286C373.718,408.784,318.564,452,256.009,452z M444.656,453.874l-22.647,15.098v-74.535
		c0-16.035-1.257-31.976-3.732-47.723c-0.007-0.039-0.011-0.079-0.018-0.117c-8.4-53.31-26.25-72.106-26.25-137.04v-41.668l30-75
		v35.036c0,46.83,11.217,95.053,31.584,135.787c18.59,37.179,28.416,78.802,28.416,120.369
		C482.009,412.19,468.045,438.281,444.656,453.874z"/>
</g>
<g>
</g>
<g>
</g>
<g>
</g>
<g>
</g>
<g>
</g>
<g>
</g>
<g>
</g>
<g>
</g>
<g>
</g>
<g>
</g>
<g>
</g>
<g>
</g>
<g>
</g>
<g>
</g>
<g>
</g>
</svg>
