<?xml version="1.0" encoding="iso-8859-1"?>
<!-- Generator: Adobe Illustrator 19.0.0, SVG Export Plug-In . SVG Version: 6.00 Build 0)  -->
<svg version="1.1" id="Layer_1" xmlns="http://www.w3.org/2000/svg" xmlns:xlink="http://www.w3.org/1999/xlink" x="0px" y="0px"
	 viewBox="0 0 512 512" style="enable-background:new 0 0 512 512;" xml:space="preserve">
<g>
	<path d="M287.82,378.819C279.32,387.319,268.02,392,256,392s-23.32-4.681-31.82-13.181c-5.857-5.857-15.355-5.857-21.213,0
		c-5.858,5.858-5.857,15.355,0,21.213C217.133,414.199,235.967,422,256,422s38.867-7.801,53.033-21.967
		c5.857-5.858,5.858-15.355,0-21.213C303.176,372.962,293.678,372.962,287.82,378.819z"/>
	<circle cx="196" cy="287" r="15"/>
	<circle cx="316" cy="287" r="15"/>
	<path d="M421,242v-32h15c8.284,0,15-6.716,15-15C451,87.477,363.523,0,256,0S61,87.477,61,195c0,8.284,6.716,15,15,15h15v32
		c-33.084,0-60,26.916-60,60s26.916,60,60,60h0.689C99.293,445.977,170.075,512,256,512s156.707-66.023,164.311-150H421
		c33.084,0,60-26.916,60-60S454.084,242,421,242z M420.324,180H360.7c-1.768-44.753-11.424-86.548-27.644-118.987
		c-2.948-5.896-6.072-11.385-9.348-16.474C376.688,68.472,414.857,119.587,420.324,180z M181.324,180
		c1.706-40.088,10.233-77.133,24.452-105.571c10.156-20.312,22.48-34.392,35.224-40.695V180H181.324z M271,33.734
		c12.743,6.303,25.067,20.383,35.224,40.695c14.219,28.438,22.746,65.483,24.452,105.571H271V33.734z M188.292,44.539
		c-3.276,5.088-6.4,10.578-9.348,16.474C162.724,93.452,153.068,135.247,151.3,180H91.676
		C97.143,119.587,135.312,68.472,188.292,44.539z M61,302c0-16.542,13.458-30,30-30v60C74.458,332,61,318.542,61,302z M256,482
		c-74.439,0-135-60.561-135-135c0-2.568,0-134.46,0-137h270c0,2.54,0,134.432,0,137C391,421.439,330.439,482,256,482z M421,332v-60
		c16.542,0,30,13.458,30,30S437.542,332,421,332z"/>
</g>
<g>
</g>
<g>
</g>
<g>
</g>
<g>
</g>
<g>
</g>
<g>
</g>
<g>
</g>
<g>
</g>
<g>
</g>
<g>
</g>
<g>
</g>
<g>
</g>
<g>
</g>
<g>
</g>
<g>
</g>
</svg>
