<?xml version="1.0" encoding="iso-8859-1"?>
<!-- Generator: Adobe Illustrator 19.0.0, SVG Export Plug-In . SVG Version: 6.00 Build 0)  -->
<svg version="1.1" id="Layer_1" xmlns="http://www.w3.org/2000/svg" xmlns:xlink="http://www.w3.org/1999/xlink" x="0px" y="0px"
	 viewBox="0 0 512.012 512.012" style="enable-background:new 0 0 512.012 512.012;" xml:space="preserve">
<g>
	<path d="M287.826,378.819c-8.5,8.5-19.801,13.181-31.82,13.181s-23.32-4.681-31.82-13.181c-5.857-5.857-15.355-5.857-21.213,0
		c-5.858,5.858-5.857,15.355,0,21.213c14.166,14.166,33,21.967,53.033,21.967s38.867-7.801,53.033-21.967
		c5.857-5.858,5.858-15.355,0-21.213C303.182,372.962,293.684,372.962,287.826,378.819z"/>
	<path d="M256.006,0c-124.357,0-225,100.632-225,225c0,7.126,0,80.871,0,92c0,24.813,20.187,45,45,45
		c5.432,0,10.642-0.968,15.467-2.739c6.314,84.214,76.242,152.751,164.297,152.751c5.428,0,10.9-0.26,16.396-0.784
		c79.108-7.544,139.572-73.474,147.861-152.17c4.969,1.895,10.354,2.942,15.98,2.942c24.813,0,45-20.187,45-45
		c0-12.069,0-84.685,0-92C481.006,100.643,380.374,0,256.006,0z M256.006,30c92.447,0,170.073,64.666,190.025,151.14
		c-3.226-0.737-6.578-1.14-10.025-1.14c-7.177,0-13.961,1.697-19.987,4.698C397.825,112.492,332.488,60,256.006,60
		c-77.083,0-141.981,53.135-160.013,124.698C89.967,181.697,83.183,180,76.006,180c-3.447,0-6.799,0.402-10.025,1.14
		C85.933,94.666,163.559,30,256.006,30z M121.006,242v-17v0c0-5.07,0.291-10.073,0.838-15h44.162
		c37.329,0,73.611-10.584,104.924-30.608c25.765-16.476,47.184-38.675,62.712-64.772c34.672,24.459,57.364,64.818,57.364,110.38v0
		v17l0,0H121.006z M241.006,272c0,33.084-26.916,60-60,60s-60-26.916-60-60H241.006z M128.728,180
		c18.574-52.38,68.611-90,127.278-90c18.162,0,35.493,3.614,51.325,10.146C277.697,149.088,223.769,180,166.006,180H128.728z
		 M391.006,272c0,33.084-26.916,60-60,60s-60-26.916-60-60H391.006z M76.006,332c-8.271,0-15-6.729-15-15c0-12.069,0-84.685,0-92
		c0-8.271,6.729-15,15-15s15,6.729,15,15c0,10.292,0,81.342,0,92C91.006,325.271,84.278,332,76.006,332z M269.318,481.364
		C187.406,489.17,121.006,424.622,121.006,347v-7.98c15.935,14.28,36.969,22.98,60,22.98c31.271,0,58.863-16.034,75-40.31
		c16.137,24.275,43.729,40.31,75,40.31c23.031,0,44.065-8.7,60-22.98v1.534C391.006,413.005,337.554,474.856,269.318,481.364z
		 M451.006,317c0,8.271-6.729,15-15,15s-15-6.729-15-15c0-10.665,0-81.707,0-92c0-8.271,6.729-15,15-15s15,6.729,15,15
		C451.006,232.126,451.006,305.871,451.006,317z"/>
</g>
<g>
</g>
<g>
</g>
<g>
</g>
<g>
</g>
<g>
</g>
<g>
</g>
<g>
</g>
<g>
</g>
<g>
</g>
<g>
</g>
<g>
</g>
<g>
</g>
<g>
</g>
<g>
</g>
<g>
</g>
</svg>
