<?xml version="1.0" encoding="iso-8859-1"?>
<!-- Generator: Adobe Illustrator 19.0.0, SVG Export Plug-In . SVG Version: 6.00 Build 0)  -->
<svg version="1.1" id="Layer_1" xmlns="http://www.w3.org/2000/svg" xmlns:xlink="http://www.w3.org/1999/xlink" x="0px" y="0px"
	 viewBox="0 0 512 512" style="enable-background:new 0 0 512 512;" xml:space="preserve">
<g>
	<path d="M287.82,376.819C279.32,385.319,268.02,390,256,390s-23.32-4.681-31.82-13.181c-5.857-5.857-15.355-5.857-21.213,0
		c-5.858,5.858-5.857,15.355,0,21.213C217.133,412.199,235.967,420,256,420s38.867-7.801,53.033-21.967
		c5.857-5.858,5.858-15.355,0-21.213C303.176,370.962,293.678,370.962,287.82,376.819z"/>
	<circle cx="316" cy="285" r="15"/>
	<path d="M512,225c0-49.293-45.732-83.936-90.852-103.757C412.578,51.91,340.246,0,256,0C171.738,0,99.42,51.924,90.851,121.243
		C45.715,141.071,0,175.717,0,225c0,23.208,10.609,45.651,30.784,65.362C24.83,327.069,53.304,360,90,360h0.684
		C98.239,443.938,169.44,512,256,512c86.486,0,157.755-68,165.316-152H422c33.084,0,60-26.916,60-60
		c0-3.281-0.275-6.498-0.784-9.638C501.391,270.651,512,248.208,512,225z M256,30c62.542,0,116.347,33.7,131.647,78.791
		C348.324,96.553,303.075,90,256,90s-92.324,6.553-131.647,18.791C139.653,63.7,193.458,30,256,30z M60,300
		c0-16.542,13.458-30,30-30v60C73.458,330,60,316.542,60,300z M120,235.195C140.633,227.513,194.428,210,256,210
		c9.326,0,18.469,0.407,27.349,1.115C253.451,264.986,194.974,300,132.029,300H120C120,292.824,120,243.065,120,235.195z M256,482
		c-73.72,0-136-62.738-136-137v-15h12.029c80.434,0,150.786-47.168,183.064-115c35.221,5.774,63.295,15.127,76.907,20.196
		c0,12.515,0,98.199,0,109.805C392,419.262,329.72,482,256,482z M422,330v-60c16.542,0,30,13.458,30,30S438.542,330,422,330z
		 M467.521,260.978C456.508,248.15,440.193,240,422,240v-15c0-5.947-3.514-11.333-8.957-13.729C410.142,209.994,341.021,180,256,180
		c-82.769,0-150.469,28.426-156.674,31.11C93.76,213.383,90,218.821,90,225v15c-18.193,0-34.508,8.15-45.521,20.978
		C36.49,251.208,30,238.975,30,225c0-53.661,97.788-105,226-105c127.864,0,226,51.184,226,105
		C482,238.975,475.51,251.208,467.521,260.978z"/>
</g>
<g>
</g>
<g>
</g>
<g>
</g>
<g>
</g>
<g>
</g>
<g>
</g>
<g>
</g>
<g>
</g>
<g>
</g>
<g>
</g>
<g>
</g>
<g>
</g>
<g>
</g>
<g>
</g>
<g>
</g>
</svg>
