<?xml version="1.0" encoding="iso-8859-1"?>
<!-- Generator: Adobe Illustrator 19.0.0, SVG Export Plug-In . SVG Version: 6.00 Build 0)  -->
<svg version="1.1" id="Layer_1" xmlns="http://www.w3.org/2000/svg" xmlns:xlink="http://www.w3.org/1999/xlink" x="0px" y="0px"
	 viewBox="0 0 512 512" style="enable-background:new 0 0 512 512;" xml:space="preserve">
<g>
	<path d="M287.82,378.819C279.32,387.319,268.02,392,256,392s-23.32-4.681-31.82-13.181c-5.857-5.857-15.355-5.857-21.213,0
		c-5.858,5.858-5.857,15.355,0,21.213C217.133,414.199,235.967,422,256,422s38.867-7.801,53.033-21.967
		c5.857-5.858,5.858-15.355,0-21.213C303.176,372.962,293.678,372.962,287.82,378.819z"/>
	<circle cx="196" cy="286" r="15"/>
	<circle cx="316" cy="286" r="15"/>
	<path d="M421,241v-76C421,74.019,346.981,0,256,0S91,74.019,91,165v76c-33.084,0-60,26.916-60,60s26.916,60,60,60h0.681
		C99.243,445.529,170.045,512,256,512s156.757-66.471,164.319-151H421c33.084,0,60-26.916,60-60S454.084,241,421,241z M256,30
		c72.95,0,132.562,58.163,134.919,130.55C361.025,117.908,311.694,90,256,90s-105.025,27.908-134.919,70.55
		C123.438,88.163,183.05,30,256,30z M390.951,252.367c-9.397-15.627-20.877-30.129-34.278-43.127
		C317.286,171.039,265.552,150,211,150c-15.387,0-30.458,1.636-45.136,4.847C189.782,133.195,221.388,120,256,120
		C329.234,120,389.033,179.049,390.951,252.367z M61,301c0-16.542,13.458-30,30-30c0,6.893,0,53.533,0,60
		C74.458,331,61,317.542,61,301z M256,482c-74.439,0-135-61.009-135-136c0-11.31,0-80.756,0-90c0-21.091,4.79-41.076,13.333-58.909
		C158.35,185.747,184.115,180,211,180c96.737,0,175.611,75.962,179.821,173.041C387.171,424.772,328.095,482,256,482z M421,331
		c0-6.569,0-52.366,0-60c16.542,0,30,13.458,30,30S437.542,331,421,331z"/>
</g>
<g>
</g>
<g>
</g>
<g>
</g>
<g>
</g>
<g>
</g>
<g>
</g>
<g>
</g>
<g>
</g>
<g>
</g>
<g>
</g>
<g>
</g>
<g>
</g>
<g>
</g>
<g>
</g>
<g>
</g>
</svg>
