<?xml version="1.0" encoding="iso-8859-1"?>
<!-- Generator: Adobe Illustrator 19.0.0, SVG Export Plug-In . SVG Version: 6.00 Build 0)  -->
<svg version="1.1" id="Layer_1" xmlns="http://www.w3.org/2000/svg" xmlns:xlink="http://www.w3.org/1999/xlink" x="0px" y="0px"
	 viewBox="0 0 512 512" style="enable-background:new 0 0 512 512;" xml:space="preserve">
<g>
	<path d="M287.82,378.819C279.32,387.319,268.02,392,256,392s-23.32-4.681-31.82-13.181c-5.857-5.857-15.355-5.857-21.213,0
		c-5.858,5.858-5.857,15.355,0,21.213C217.133,414.199,235.967,422,256,422s38.867-7.801,53.033-21.967
		c5.857-5.858,5.858-15.355,0-21.213C303.176,372.962,293.678,372.962,287.82,378.819z"/>
	<circle cx="196" cy="286" r="15"/>
	<circle cx="316" cy="286" r="15"/>
	<path d="M421,241h45c8.284,0,15-6.716,15-15c0-36.414-26.09-66.837-60.556-73.59C413.549,67.21,342.433,0,256,0
		S98.451,67.21,91.556,152.41C57.09,159.163,31,189.586,31,226c0,8.284,6.716,14.8,15,14.8h45c-33.084,0-60,27.116-60,60.2
		s26.916,60,60,60h0.681C99.243,445.529,170.045,512,256,512s156.757-66.471,164.319-151H421c33.084,0,60-26.916,60-60
		S454.084,241,421,241z M390.185,151h-59.474c-1.382-36.389-7.768-70.42-18.34-97.093c-2.021-5.099-4.18-9.852-6.458-14.268
		C351.308,57.901,384.639,100.293,390.185,151z M256,30c6.746,0,18.254,9.156,28.481,34.961
		c9.248,23.331,14.882,53.455,16.208,86.039h-89.38c1.327-32.584,6.961-62.708,16.208-86.039C237.746,39.156,249.254,30,256,30z
		 M206.087,39.64c-2.278,4.416-4.437,9.168-6.458,14.268c-10.571,26.672-16.958,60.704-18.34,97.093h-59.474
		C127.361,100.293,160.692,57.901,206.087,39.64z M63.57,211c6.19-17.461,22.873-30,42.43-30h300c19.557,0,36.239,12.539,42.43,30
		H63.57z M61,301c0-16.542,13.458-30,30-30v60C74.458,331,61,317.542,61,301z M256,482c-74.439,0-135-61.009-135-136
		c0-12.924,0-93.52,0-105h270c0,11.481,0,92.078,0,105C391,420.991,330.439,482,256,482z M421,331v-60c16.542,0,30,13.458,30,30
		S437.542,331,421,331z"/>
</g>
<g>
</g>
<g>
</g>
<g>
</g>
<g>
</g>
<g>
</g>
<g>
</g>
<g>
</g>
<g>
</g>
<g>
</g>
<g>
</g>
<g>
</g>
<g>
</g>
<g>
</g>
<g>
</g>
<g>
</g>
</svg>
