<?xml version="1.0" encoding="iso-8859-1"?>
<!-- Generator: Adobe Illustrator 19.0.0, SVG Export Plug-In . SVG Version: 6.00 Build 0)  -->
<svg version="1.1" id="Layer_1" xmlns="http://www.w3.org/2000/svg" xmlns:xlink="http://www.w3.org/1999/xlink" x="0px" y="0px"
	 viewBox="0 0 512.028 512.028" style="enable-background:new 0 0 512.028 512.028;" xml:space="preserve">
<g>
	<circle cx="196.014" cy="286.026" r="15"/>
	<circle cx="316.014" cy="286.026" r="15"/>
	<path d="M507.264,145.895c-11.162-22.301-38.18-31.263-60.38-20.119l-20.131,10.073c-1.55,0.774-3.13,1.51-4.724,2.229
		l-20.29-81.995C390.156,9.749,338.804-13.142,296.844,7.84l-40.83,20.416L215.18,7.839c-42.078-21.04-93.335,2.019-104.9,48.278
		L90,138.074c-3.546-1.601-2.789-1.264-24.844-12.292C42.857,114.6,15.871,123.66,4.763,145.9
		c-11.098,22.195-2.069,49.281,20.13,60.381l20.169,10.077c14.377,7.185,29.91,12.896,45.953,17.016v7.652
		c-33.084,0-60,26.916-60,60c0,32.038,25.608,60,60.698,60c3.788,41.448,23.1,80.129,53.846,108.083
		c30.773,27.979,69.484,42.919,110.418,42.919c86.652,0,153.747-68.685,163.734-151.002c36.144,0,61.303-28.205,61.303-60
		c0-33.084-26.916-60-60-60v-7.652c16.046-4.12,31.584-9.831,45.97-17.017l20.156-10.078
		C509.336,195.181,518.364,168.095,507.264,145.895z M139.392,63.359c6.877-27.503,37.369-41.187,62.372-28.687l47.541,23.771
		c4.223,2.112,9.193,2.111,13.416,0l47.539-23.77c25.019-12.511,55.506,1.211,62.367,28.651l20.826,84.163
		c-10.518,2.315-21.334,3.54-32,3.54H150.575c-10.668,0-21.484-1.224-32-3.539L139.392,63.359z M61.014,301.026
		c0-16.542,13.458-30,30-30v60C74.472,331.026,61.014,317.568,61.014,301.026z M165.74,446.912
		c-18.804-17.096-32.296-38.976-39.279-62.908l129.554-51.822l128.346,51.339C353.411,483.305,237.872,512.492,165.74,446.912z
		 M451.014,301.026c0,16.542-13.458,30-30,30v-60C437.556,271.026,451.014,284.484,451.014,301.026z M391.014,339.579
		c0,4.724-0.228,9.403-0.666,14.025l-128.763-51.505c-3.576-1.43-7.566-1.43-11.143,0l-129.199,51.68
		c-0.148-2.576-0.229-5.16-0.229-7.752v0c0-15.337,0-92.922,0-106.917c9.855,1.253,19.753,1.917,29.561,1.917h210.879
		c9.807,0,19.705-0.664,29.561-1.918C391.014,250.807,391.014,327.821,391.014,339.579z M473.724,179.446l-20.151,10.076
		c-28.193,14.083-61.113,21.505-92.119,21.505H150.575c-30.726,0-63.677-7.298-92.104-21.504l-20.167-10.076
		c-7.399-3.7-10.409-12.73-6.707-20.135c3.694-7.393,12.639-10.46,20.127-6.704l20.159,10.08
		c23.669,11.827,51.615,18.34,78.691,18.34h210.879c27.069,0,55.02-6.512,78.713-18.343l20.159-10.087
		c7.452-3.74,16.408-0.672,20.108,6.72C484.134,166.716,481.124,175.746,473.724,179.446z"/>
</g>
<g>
</g>
<g>
</g>
<g>
</g>
<g>
</g>
<g>
</g>
<g>
</g>
<g>
</g>
<g>
</g>
<g>
</g>
<g>
</g>
<g>
</g>
<g>
</g>
<g>
</g>
<g>
</g>
<g>
</g>
</svg>
