<?xml version="1.0" encoding="iso-8859-1"?>
<!-- Generator: Adobe Illustrator 19.0.0, SVG Export Plug-In . SVG Version: 6.00 Build 0)  -->
<svg version="1.1" id="Layer_1" xmlns="http://www.w3.org/2000/svg" xmlns:xlink="http://www.w3.org/1999/xlink" x="0px" y="0px"
	 viewBox="0 0 512 512" style="enable-background:new 0 0 512 512;" xml:space="preserve">
<g>
	<circle cx="196" cy="241" r="15"/>
	<circle cx="316" cy="241" r="15"/>
	<path d="M287.82,332.82c-8.5,8.5-19.801,13.18-31.82,13.18s-23.32-4.681-31.82-13.18c-5.859-5.858-15.354-5.857-21.214,0.001
		c-5.857,5.858-5.856,15.355,0.001,21.213C217.133,368.199,235.968,376,256,376s38.867-7.801,53.033-21.967
		c5.857-5.858,5.858-15.355,0.001-21.213C303.175,326.962,293.678,326.962,287.82,332.82z"/>
	<path d="M481.484,233.736C486.171,197.533,457.847,166,422,166h-0.693C413.656,82.023,342.446,16,256,16S98.344,82.023,90.693,166
		H90c-35.875,0-64.167,31.56-59.484,67.736C12.024,244.195,0,264.041,0,286c0,33.084,26.916,60,60,60
		c12.481,0,24.082-3.835,33.694-10.382c11.211,51.751,47.045,94.033,93.575,115.409C183.247,460.213,181,470.347,181,481
		c0,8.284,6.716,15,15,15h120c8.284,0,15-6.716,15-15c0-10.653-2.247-20.787-6.269-29.973
		c46.527-21.375,82.363-63.655,93.575-115.409C427.918,342.165,439.519,346,452,346c33.084,0,60-26.916,60-60
		C512,264.041,499.976,244.195,481.484,233.736z M452,226c0,16.542-13.458,30-30,30v-60C438.542,196,452,209.458,452,226z
		 M333.272,69.973L256,131.791l-77.272-61.818C200.688,54.867,227.318,46,256,46S311.312,54.867,333.272,69.973z M90,196v60
		c-16.542,0-30-13.458-30-30S73.458,196,90,196z M60,316c-16.542,0-30-13.458-30-30c0-9.643,4.647-18.452,12.032-24.001
		C52.99,276.563,70.412,286,90,286C90,302.542,76.542,316,60,316z M213.57,466c6.19-17.461,22.873-30,42.43-30
		s36.239,12.539,42.43,30H213.57z M392,301c0,55.19-33.81,104.321-85.034,125.044C293.576,413.618,275.665,406,256,406
		s-37.576,7.618-50.966,20.044C153.81,405.321,120,356.19,120,301c0-1.568,0-118.404,0-120v0c0-35.053,13.532-67.025,35.678-91.049
		l90.952,72.762c5.479,4.382,13.262,4.382,18.74,0l90.952-72.762C378.469,113.975,392,145.947,392,181v0
		C392,182.597,392,299.432,392,301z M452,316c-16.542,0-30-13.458-30-30c19.588,0,37.01-9.437,47.968-24.001
		C477.353,267.548,482,276.357,482,286C482,302.542,468.542,316,452,316z"/>
</g>
<g>
</g>
<g>
</g>
<g>
</g>
<g>
</g>
<g>
</g>
<g>
</g>
<g>
</g>
<g>
</g>
<g>
</g>
<g>
</g>
<g>
</g>
<g>
</g>
<g>
</g>
<g>
</g>
<g>
</g>
</svg>
