<?xml version="1.0" encoding="iso-8859-1"?>
<!-- Generator: Adobe Illustrator 19.0.0, SVG Export Plug-In . SVG Version: 6.00 Build 0)  -->
<svg version="1.1" id="Layer_1" xmlns="http://www.w3.org/2000/svg" xmlns:xlink="http://www.w3.org/1999/xlink" x="0px" y="0px"
	 viewBox="0 0 512 512" style="enable-background:new 0 0 512 512;" xml:space="preserve">
<path d="M428.5,90c-0.728,0-1.448,0.029-2.17,0.055L317.87,3.287c-0.081-0.064-0.167-0.116-0.248-0.179
	c-0.272-0.209-0.548-0.411-0.834-0.601c-0.153-0.101-0.308-0.195-0.463-0.291c-0.239-0.146-0.48-0.287-0.728-0.42
	c-0.179-0.096-0.358-0.19-0.539-0.278c-0.233-0.113-0.47-0.218-0.709-0.319c-0.191-0.081-0.381-0.164-0.574-0.237
	c-0.245-0.092-0.496-0.171-0.746-0.251c-0.188-0.059-0.374-0.126-0.564-0.178c-0.305-0.083-0.616-0.149-0.928-0.213
	c-0.154-0.032-0.308-0.071-0.463-0.098c-0.425-0.074-0.855-0.13-1.29-0.167c-0.183-0.016-0.366-0.015-0.55-0.024
	C308.99,0.02,308.747,0,308.5,0h-180c-7.15,0-13.307,5.047-14.709,12.058L97.873,91.649C63.995,98.859,38.5,129.003,38.5,165
	c0,16.847,5.586,32.413,15,44.948v66.241l-10.257-3.419c-6.074-2.025-12.772,0.032-16.664,5.125
	c-3.89,5.093-4.114,12.094-0.56,17.426l15.724,23.586c-38.347,37.151-12.256,103.072,41.452,103.07c0.102,0,0.203,0,0.305-0.001
	c0,0.008,0,0.016,0,0.024c0,41.931,42.205,71.013,81.181,56.076C174.429,498.198,195.03,512,218.5,512s44.071-13.802,53.819-33.924
	C311.327,493.024,353.5,463.896,353.5,422c53.793,0,80.297-65.755,41.757-103.093l15.724-23.586
	c7.907-11.86-3.729-27.05-17.224-22.551l-10.257,3.419v-66.241c3.015-4.015,5.63-8.344,7.802-12.923
	C401.536,205.137,414.457,210,428.5,210c33.084,0,60-26.916,60-60S461.584,90,428.5,90z M379.6,115.298
	c-10.446-11.778-24.526-20.255-40.473-23.649l-7.842-39.212l61.622,49.297C387.785,105.521,383.295,110.106,379.6,115.298z
	 M140.797,30h155.406l12.308,61.542c-14.195,2.94-27.222,9.986-37.511,20.214C257.174,98.011,238.406,90,218.5,90
	s-38.674,8.011-52.5,21.756c-10.289-10.229-23.316-17.275-37.511-20.214L140.797,30z M113.5,120
	c16.308,0,31.376,9.075,39.324,23.683c5.672,10.425,20.679,10.426,26.352,0C187.124,129.075,202.192,120,218.5,120
	s31.376,9.075,39.324,23.683c5.672,10.425,20.679,10.426,26.352,0C292.124,129.075,307.192,120,323.5,120c24.813,0,45,20.187,45,45
	s-20.187,45-45,45c-16.308,0-31.376-9.075-39.324-23.683c-5.672-10.425-20.679-10.426-26.352,0
	C249.876,200.925,234.808,210,218.5,210s-31.376-9.075-39.324-23.683c-5.672-10.425-20.679-10.426-26.352,0
	C144.876,200.925,129.808,210,113.5,210c-24.813,0-45-20.187-45-45S88.687,120,113.5,120z M75.954,315.296l22.995,7.665
	c20.727,6.91,43.2,1.604,58.647-13.845c12.626-12.627,33.489-9.872,42.576,4.998l-6.441,6.442
	C160.32,353.969,105.755,350.93,75.954,315.296z M353.5,392c-4.386,0-8.801-1.078-13.124-3.205
	c-12.803-6.297-26.387,7.267-20.081,20.082c2.127,4.322,3.205,8.738,3.205,13.124c0,16.542-13.458,30-30,30
	c-7.392,0-14.555-2.837-20.171-7.988c-9.253-8.487-24.245-2.477-25.104,10.029C247.151,469.719,234.094,482,218.5,482
	s-28.651-12.281-29.726-27.959c-0.86-12.532-15.87-18.501-25.104-10.028c-5.615,5.151-12.778,7.987-20.17,7.987
	c-16.542,0-30-13.458-30-30c0-4.386,1.078-8.802,3.205-13.124c6.299-12.802-7.266-26.387-20.081-20.081
	c-9.531,4.69-20.061,4.226-28.89-1.27C58.821,381.977,53.5,372.435,53.5,362c0-7.181,2.571-13.966,7.036-19.285
	c20.623,20.077,48.357,31.213,76.872,31.213c29.247,0,57.126-11.748,77.536-32.16l3.556-3.556
	c12.54,12.539,25.579,23.125,46.506,30.1c11.376,3.792,23.041,5.615,34.586,5.615c28.512,0,56.248-11.137,76.872-31.214
	c4.466,5.319,7.036,12.104,7.036,19.285C383.5,378.542,370.042,392,353.5,392z M361.047,315.296
	c-20.832,24.909-55.231,34.998-86.555,24.557c-19.926-6.642-30.167-18.241-37.665-25.739c8.964-14.668,29.802-17.771,42.576-4.998
	c15.448,15.449,37.921,20.754,58.647,13.845L361.047,315.296z M328.564,294.5c-9.878,3.292-20.586,0.765-27.948-6.597
	c-23.67-23.669-60.916-21.464-82.116,1.018c-21.083-22.357-58.332-24.804-82.116-1.018c-7.362,7.362-18.072,9.889-27.948,6.597
	L83.5,286.189v-52.47c9.194,4.029,19.336,6.281,30,6.281c19.906,0,38.674-8.011,52.5-21.756C179.826,231.989,198.594,240,218.5,240
	s38.674-8.011,52.5-21.756C284.826,231.989,303.594,240,323.5,240c10.664,0,20.806-2.252,30-6.281v52.47L328.564,294.5z M428.5,180
	c-16.542,0-30-13.458-30-30s13.458-30,30-30s30,13.458,30,30S445.042,180,428.5,180z"/>
<g>
</g>
<g>
</g>
<g>
</g>
<g>
</g>
<g>
</g>
<g>
</g>
<g>
</g>
<g>
</g>
<g>
</g>
<g>
</g>
<g>
</g>
<g>
</g>
<g>
</g>
<g>
</g>
<g>
</g>
</svg>
