<?xml version="1.0" encoding="iso-8859-1"?>
<!-- Generator: Adobe Illustrator 19.0.0, SVG Export Plug-In . SVG Version: 6.00 Build 0)  -->
<svg version="1.1" id="Layer_1" xmlns="http://www.w3.org/2000/svg" xmlns:xlink="http://www.w3.org/1999/xlink" x="0px" y="0px"
	 viewBox="0 0 512 512" style="enable-background:new 0 0 512 512;" xml:space="preserve">
<g>
	<circle cx="195.978" cy="287" r="15"/>
	<circle cx="315.978" cy="287" r="15"/>
	<path d="M287.798,378.819c-8.5,8.5-19.801,13.181-31.82,13.181s-23.32-4.681-31.82-13.181c-5.857-5.857-15.355-5.857-21.213,0
		c-5.858,5.858-5.857,15.355,0,21.213c14.166,14.166,33,21.967,53.033,21.967s38.867-7.801,53.033-21.967
		c5.857-5.858,5.858-15.355,0-21.213C303.154,372.962,293.655,372.962,287.798,378.819z"/>
	<path d="M480.074,206.606c-3.053-34.529-13.784-68.301-30.962-97.049c1.168-6.265,1.865-12.804,1.865-19.557
		c0-46.61-32.434-83.448-33.814-84.994C414.318,1.821,410.249,0,405.978,0s-8.34,1.821-11.186,5.006
		c-0.745,0.833-10.515,11.939-19.363,29.292C339.673,11.819,298.691,0,255.978,0c-124.409,0-225,102.878-225,227
		c0,6.261,0,146.994,0,150c0,11.517,4.354,22.032,11.495,30c-14.304,15.958-13.613,37.948-6.977,49.543l27.468,47.917
		c2.67,4.657,7.624,7.532,12.992,7.54c0.008,0,0.015,0,0.021,0c5.359,0,10.313-2.86,12.992-7.503
		c27.141-47.037,30.451-49.74,31.77-63.082C150.6,484.058,200.084,512,255.978,512c55.883,0,105.358-27.931,135.221-70.56
		c0.461,4.726,1.658,9.314,3.584,13.688c0.213,0.483,0.451,0.956,0.714,1.415l27.468,47.917c2.67,4.657,7.624,7.532,12.992,7.54
		c0.008,0,0.015,0,0.021,0c5.359,0,10.313-2.86,12.992-7.503l26.521-45.963c0.09-0.155,0.176-0.312,0.26-0.47
		c3.419-6.448,5.227-13.731,5.227-21.064c0-11.517-4.354-22.032-11.495-30c7.142-7.968,11.495-18.483,11.495-30
		C480.978,198.455,481.425,210.314,480.074,206.606z M405.977,40.987c7.12,12.051,15.001,29.743,15.001,49.013
		c0,19.272-7.884,36.967-14.999,49.013c-7.12-12.051-15.001-29.743-15.001-49.013C390.978,70.728,398.862,53.033,405.977,40.987z
		 M255.978,30c39.028,0,76.385,11.373,108.515,32.958c-2.155,8.468-3.515,17.547-3.515,27.042c0,10.61,1.691,20.704,4.303,30H92.325
		C127.118,65.876,187.475,30,255.978,30z M76.021,466.913C61.099,440.881,60.978,441.75,60.978,437c0-8.271,6.729-15,15-15
		s15,6.729,15,15C90.978,442.164,90.208,442.326,76.021,466.913z M90.978,377c0,8.271-6.729,15-15,15s-15-6.729-15-15v-15h30V377z
		 M90.978,332h-30v-30h30V332z M105.978,212c-8.284,0-15,6.716-15,15v45h-30v-45c0-27.308,5.533-53.534,15.518-77.2h161.559
		c-4.956,13.001-16.058,26.273-32.086,37.584C184.453,202.568,157.635,212,135.978,212H105.978z M390.978,347L390.978,347
		c0,74.439-60.561,135-135,135s-135-60.561-135-135v0c0-16.345,0-90.818,0-105h15c27.946,0,60.577-11.254,87.289-30.105
		c13.763-9.713,24.76-20.545,32.711-32.047c7.951,11.502,18.948,22.334,32.711,32.047C315.401,230.746,348.031,242,375.978,242h15
		C390.978,256.216,390.978,330.725,390.978,347z M449.35,443.813l-13.329,23.101l-14.034-24.483c-0.67-1.722-1.009-3.546-1.009-5.43
		c0-8.271,6.729-15,15-15s15,6.729,15,15C450.978,439.41,450.43,441.701,449.35,443.813z M450.978,377c0,8.271-6.729,15-15,15
		s-15-6.729-15-15v-15h30V377z M450.978,332h-30v-30h30V332z M450.978,272h-30v-45c0-8.284-6.716-15-15-15h-30
		c-21.657,0-48.476-9.432-69.991-24.616c-16.027-11.312-27.129-24.383-32.086-37.384h103.802
		c8.172,14.872,16.408,24.232,17.089,24.994c5.956,6.666,16.407,6.675,22.371,0c0.707-0.791,9.543-10.838,18.005-26.691
		c10.286,24.452,15.81,51.583,15.81,78.697V272z"/>
</g>
<g>
</g>
<g>
</g>
<g>
</g>
<g>
</g>
<g>
</g>
<g>
</g>
<g>
</g>
<g>
</g>
<g>
</g>
<g>
</g>
<g>
</g>
<g>
</g>
<g>
</g>
<g>
</g>
<g>
</g>
</svg>
