<?xml version="1.0" encoding="iso-8859-1"?>
<!-- Generator: Adobe Illustrator 19.0.0, SVG Export Plug-In . SVG Version: 6.00 Build 0)  -->
<svg version="1.1" id="Layer_1" xmlns="http://www.w3.org/2000/svg" xmlns:xlink="http://www.w3.org/1999/xlink" x="0px" y="0px"
	 viewBox="0 0 512 512" style="enable-background:new 0 0 512 512;" xml:space="preserve">
<g>
	<path d="M287.82,378.819C279.32,387.319,268.02,392,256,392s-23.32-4.681-31.82-13.181c-5.857-5.857-15.355-5.857-21.213,0
		c-5.858,5.858-5.857,15.355,0,21.213C217.133,414.199,235.967,422,256,422s38.867-7.801,53.033-21.967
		c5.857-5.858,5.858-15.355,0-21.213C303.176,372.962,293.678,372.962,287.82,378.819z"/>
	<circle cx="196" cy="287" r="15"/>
	<circle cx="316" cy="287" r="15"/>
	<path d="M421,242v-43.782L439.152,87.33C446.773,41.599,411.472,0,365.173,0H146.827c-46.389,0-81.583,41.701-73.986,87.287
		L91,198.218V242c-33.084,0-60,26.916-60,60s26.916,60,60,60h0.689C99.293,445.977,170.075,512,256,512s156.707-66.023,164.311-150
		H421c33.084,0,60-26.916,60-60S454.084,242,421,242z M391,239.43c-12.768-4.527-22.903-14.662-27.43-27.43H391V239.43z M146.827,30
		h218.346c27.729,0,48.971,24.895,44.381,52.44L393.256,182c-6.625,0-267.825,0-274.512,0l-16.305-99.602
		C97.867,54.96,119.049,30,146.827,30z M121,212h27.43c-4.526,12.768-14.662,22.903-27.43,27.43V212z M61,302
		c0-16.542,13.458-30,30-30v60C74.458,332,61,318.542,61,302z M256,482c-74.439,0-135-60.561-135-135v-76.509
		c29.344-5.98,52.51-29.147,58.491-58.491h153.019c5.98,29.344,29.147,52.51,58.491,58.491V347C391,421.439,330.439,482,256,482z
		 M421,332v-60c16.542,0,30,13.458,30,30S437.542,332,421,332z"/>
	<path d="M226,120h15v15c0,8.284,6.716,15,15,15s15-6.716,15-15v-15h15c8.284,0,15-6.716,15-15s-6.716-15-15-15h-15V75
		c0-8.284-6.716-15-15-15s-15,6.716-15,15v15h-15c-8.284,0-15,6.716-15,15S217.716,120,226,120z"/>
</g>
<g>
</g>
<g>
</g>
<g>
</g>
<g>
</g>
<g>
</g>
<g>
</g>
<g>
</g>
<g>
</g>
<g>
</g>
<g>
</g>
<g>
</g>
<g>
</g>
<g>
</g>
<g>
</g>
<g>
</g>
</svg>
