<?xml version="1.0" encoding="iso-8859-1"?>
<!-- Generator: Adobe Illustrator 19.0.0, SVG Export Plug-In . SVG Version: 6.00 Build 0)  -->
<svg version="1.1" id="Layer_1" xmlns="http://www.w3.org/2000/svg" xmlns:xlink="http://www.w3.org/1999/xlink" x="0px" y="0px"
	 viewBox="0 0 512 512" style="enable-background:new 0 0 512 512;" xml:space="preserve">
<g>
	<path d="M287.82,378.819C279.32,387.319,268.02,392,256,392s-23.32-4.681-31.82-13.181c-5.857-5.857-15.355-5.857-21.213,0
		c-5.858,5.858-5.857,15.355,0,21.213C217.133,414.199,235.967,422,256,422s38.867-7.801,53.033-21.967
		c5.857-5.858,5.858-15.355,0-21.213C303.176,372.962,293.678,372.962,287.82,378.819z"/>
	<circle cx="316" cy="287" r="15"/>
	<circle cx="196" cy="287" r="15"/>
	<path d="M467.817,375.183C458.616,365.981,451,352.06,451,274.578c0-3.123,0-191.902,0-199.578c0-41.355-33.645-75-75-75H136
		C94.645,0,61,33.645,61,75c0,4.219,0,251.866,0,259.578c0,15.117-6.13,29.917-16.817,40.604c-17.59,17.589-17.592,46.044,0,63.635
		c17.587,17.587,46.04,17.595,63.632,0.003c2.289-2.288,4.484-4.643,6.603-7.051C143.459,480.278,196.4,512,256,512
		c59.506,0,112.496-31.648,141.583-80.23c2.118,2.407,4.312,4.761,6.6,7.048c17.59,17.59,46.043,17.592,63.635,0
		C485.407,421.229,485.409,392.773,467.817,375.183z M91,75c0-24.813,20.187-45,45-45h240c24.813,0,45,20.187,45,45
		c0,3.179,0,120.029,0,122c0,8.271-6.729,15-15,15H106c-8.271,0-15-6.729-15-15C91,195.736,91,78.188,91,75z M65.396,417.604
		c-5.866-5.868-5.865-15.342,0-21.209C81.668,380.124,91,357.592,91,334.578V239.42c4.695,1.665,9.741,2.58,15,2.58h15v92.578
		c0,31.373-12.214,60.858-34.396,83.026C80.738,423.469,71.262,423.47,65.396,417.604z M256,482
		c-52.934,0-100.196-30.35-122.347-77.892C144.985,382.976,151,359.242,151,334.578V242h210v92.578
		c0,24.664,6.015,48.399,17.347,69.53C356.195,451.65,308.933,482,256,482z M446.604,417.604
		c-5.864,5.863-15.339,5.869-21.212-0.003C403.214,395.436,391,365.951,391,334.578V242h15c5.259,0,10.305-0.915,15-2.58v35.158
		c0,81.816,8.256,104.47,25.604,121.817C452.47,402.263,452.469,411.738,446.604,417.604z"/>
	<path d="M212.077,140.195l-5.23,30.498c-2.095,12.222,10.774,21.592,21.765,15.813L256,172.106l27.389,14.399
		c10.982,5.772,23.862-3.577,21.765-15.813l-5.23-30.498l22.158-21.599c8.883-8.658,3.973-23.8-8.313-25.585l-30.623-4.45
		l-13.694-27.749c-5.492-11.125-21.407-11.132-26.902,0l-13.694,27.749l-30.623,4.45c-12.275,1.784-17.203,16.92-8.313,25.585
		L212.077,140.195z M240.973,117.115c4.886-0.71,9.109-3.779,11.294-8.206l3.733-7.565l3.733,7.565
		c2.185,4.427,6.408,7.496,11.294,8.206l8.35,1.213l-6.041,5.889c-3.536,3.446-5.149,8.411-4.314,13.277l1.426,8.315l-7.467-3.926
		c-4.37-2.297-9.59-2.298-13.961,0l-7.467,3.926l1.426-8.315c0.835-4.866-0.778-9.831-4.314-13.277l-6.041-5.889L240.973,117.115z"
		/>
</g>
<g>
</g>
<g>
</g>
<g>
</g>
<g>
</g>
<g>
</g>
<g>
</g>
<g>
</g>
<g>
</g>
<g>
</g>
<g>
</g>
<g>
</g>
<g>
</g>
<g>
</g>
<g>
</g>
<g>
</g>
</svg>
