<?xml version="1.0" encoding="iso-8859-1"?>
<!-- Generator: Adobe Illustrator 19.0.0, SVG Export Plug-In . SVG Version: 6.00 Build 0)  -->
<svg version="1.1" id="Layer_1" xmlns="http://www.w3.org/2000/svg" xmlns:xlink="http://www.w3.org/1999/xlink" x="0px" y="0px"
	 viewBox="0 0 512 512" style="enable-background:new 0 0 512 512;" xml:space="preserve">
<g>
	<path d="M287.82,378.82C279.32,387.319,268.02,392,256,392s-23.32-4.681-31.82-13.181c-5.857-5.857-15.355-5.857-21.213,0
		c-5.858,5.858-5.857,15.355,0,21.213C217.133,414.199,235.967,422,256,422s38.867-7.801,53.033-21.967
		c5.857-5.858,5.858-15.355,0-21.213C303.176,372.962,293.678,372.963,287.82,378.82z"/>
	<path d="M512,134.988c-0.006-5.413-2.994-10.631-8.076-13.286c-0.08-0.042-0.157-0.089-0.238-0.129l-241-120
		c-4.211-2.097-9.16-2.097-13.371,0l-241,120c-5.091,2.535-8.31,7.729-8.314,13.415c-0.005,5.687,3.206,10.886,8.292,13.429
		l82.665,41.333c-0.627,1.673-0.942,3.421-0.952,5.157c0,0.032-0.005,0.063-0.005,0.094v47c-33.084,0-60,26.916-60,60
		s26.916,60,60,60h0.693C98.344,445.978,169.555,512,256,512s157.656-66.022,165.307-150H422c33.084,0,60-26.916,60-60
		s-26.916-60-60-60v-47c0-0.032-0.005-0.063-0.005-0.094c-0.01-1.697-0.314-3.453-0.952-5.157L482,159.271V257
		c0,8.284,6.716,15,15,15s15-6.716,15-15V135c0-0.002,0-0.003,0-0.005C512,134.993,512,134.99,512,134.988z M392,210v34.58
		c-4.695-1.665-9.741-2.58-15-2.58h-61c-19.555,0-36.228,12.542-42.42,30h-35.16c-6.192-17.458-22.865-30-42.42-30h-61
		c-5.259,0-10.305,0.915-15,2.58V210H392z M129.271,180l15-30H367.73l15,30H129.271z M392,317c0,8.271-6.729,15-15,15h-30
		c-24.935,0-46-20.607-46-45c0-8.271,6.729-15,15-15h61c8.271,0,15,6.729,15,15V317z M120,287c0-8.271,6.729-15,15-15h61
		c8.271,0,15,6.729,15,15c0,24.813-20.187,45-45,45h-31c-8.271,0-15-6.729-15-15V287z M60,302c0-16.542,13.458-30,30-30
		c0,21.294,0,38.683,0,60C73.458,332,60,318.542,60,302z M256,482c-70.702,0-128.967-53.835-135.401-122.377
		C125.124,361.156,129.964,362,135,362h31c36.22,0,66.522-25.808,73.491-60h33.046c2.971,14.335,10.189,27.535,21.052,38.153
		C308.001,354.241,326.97,362,347,362h30c5.036,0,9.876-0.844,14.401-2.377C384.967,428.165,326.702,482,256,482z M452,302
		c0,16.542-13.458,30-30,30c0-32.346,0-0.138,0-60C438.542,272,452,285.458,452,302z M407.708,162.876l-17.292-34.583
		C387.876,123.21,382.682,120,377,120H135c-5.682,0-10.876,3.21-13.416,8.292l-17.292,34.583l-55.696-27.848L256,31.757
		l207.403,103.271L407.708,162.876z"/>
</g>
<g>
</g>
<g>
</g>
<g>
</g>
<g>
</g>
<g>
</g>
<g>
</g>
<g>
</g>
<g>
</g>
<g>
</g>
<g>
</g>
<g>
</g>
<g>
</g>
<g>
</g>
<g>
</g>
<g>
</g>
</svg>
