<?xml version="1.0" encoding="iso-8859-1"?>
<!-- Generator: Adobe Illustrator 19.0.0, SVG Export Plug-In . SVG Version: 6.00 Build 0)  -->
<svg version="1.1" id="Layer_1" xmlns="http://www.w3.org/2000/svg" xmlns:xlink="http://www.w3.org/1999/xlink" x="0px" y="0px"
	 viewBox="0 0 512 512" style="enable-background:new 0 0 512 512;" xml:space="preserve">
<g>
	<path d="M272.82,377.819C264.32,386.319,253.019,391,241,391s-23.32-4.681-31.82-13.181c-5.857-5.857-15.355-5.857-21.213,0
		c-5.858,5.858-5.857,15.355,0,21.213C202.133,413.199,220.967,421,241,421s38.867-7.801,53.033-21.967
		c5.857-5.858,5.858-15.355,0-21.213C288.176,371.962,278.678,371.962,272.82,377.819z"/>
	<circle cx="181" cy="285" r="15"/>
	<circle cx="301" cy="285" r="15"/>
	<path d="M456.909,213.758C462.892,198.287,466,181.74,466,165c0-13.948-2.106-27.589-6.253-40.698
		C481.942,105.036,496,76.629,496,45c0-8.284-6.716-15-15-15c-18.816,0-36.489,4.979-51.778,13.682
		c-9.9-23.226-27.267-39.007-28.215-39.857c-5.697-5.101-14.317-5.1-20.013,0c-0.849,0.76-13.032,11.829-22.788,28.944
		C349.29,30.944,340.186,30,331,30c-30.979,0-60.89,10.614-84.858,30c-11.184,0-97.114,0-110.142,0c-49.626,0-90,40.374-90,90
		c0,27.336,12.254,51.862,31.554,68.382C76.569,220.38,76,222.621,76,225v15c-33.084,0-60,26.916-60,60s26.916,60,60,60h0.675
		c7.45,83.817,77.66,152,164.325,152c91.614,0,165-76.171,165-167v-15h30c33.084,0,60-26.916,60-60
		C496,244.266,479.715,222.264,456.909,213.758z M407.926,118.074c6.435-27.791,28.357-49.714,56.148-56.148
		C457.64,89.717,435.717,111.64,407.926,118.074z M404.381,63.286c-9.556,10.203-17.108,22.304-22.009,35.676
		C378.726,91.782,376,83.563,376,75c0-13.472,6.823-26.849,14.988-37.556C396.051,44.092,401.68,53.174,404.381,63.286z
		 M347.341,61.273C346.492,65.7,346,70.284,346,75c0,2.757,0.18,5.465,0.486,8.128c-13.079-8.854-27.79-15.467-43.573-19.308
		C311.985,61.305,321.426,60,331,60C336.5,60,341.96,60.433,347.341,61.273z M136,90c6.019,0,129.341,0,135,0
		c41.913,0,78.163,24.688,94.988,60.283C364.349,150.101,362.686,150,361,150c-24.813,0-45,20.187-45,45v15H136
		c-33.084,0-60-26.916-60-60S102.916,90,136,90z M46,300c0-16.542,13.458-30,30-30v60C59.458,330,46,316.542,46,300z M376,345
		c0,75.542-60.561,137-135,137s-135-61.458-135-137V234.852l0,0c9.388,3.329,19.485,5.148,30,5.148h195c8.284,0,15-6.716,15-15v-30
		c0-8.271,6.729-15,15-15s15,6.729,15,15C376,201.513,376,339.013,376,345z M436,300h-30c0-10.488,0-94.483,0-105
		c0-15.866-2.76-31.098-7.81-45.251c12.404-0.843,24.221-3.849,35.081-8.644c1.81,7.777,2.73,15.766,2.73,23.895
		c0,18.462-4.854,36.613-14.038,52.489c-5.78,9.992,1.458,22.511,12.984,22.511H436c16.542,0,30,13.458,30,30S452.542,300,436,300z"
		/>
</g>
<g>
</g>
<g>
</g>
<g>
</g>
<g>
</g>
<g>
</g>
<g>
</g>
<g>
</g>
<g>
</g>
<g>
</g>
<g>
</g>
<g>
</g>
<g>
</g>
<g>
</g>
<g>
</g>
<g>
</g>
</svg>
