<?xml version="1.0" encoding="iso-8859-1"?>
<!-- Generator: Adobe Illustrator 19.0.0, SVG Export Plug-In . SVG Version: 6.00 Build 0)  -->
<svg version="1.1" id="Layer_1" xmlns="http://www.w3.org/2000/svg" xmlns:xlink="http://www.w3.org/1999/xlink" x="0px" y="0px"
	 viewBox="0 0 512 512" style="enable-background:new 0 0 512 512;" xml:space="preserve">
<g>
	<path d="M287.82,378.819C279.32,387.319,268.02,392,256,392s-23.32-4.681-31.82-13.181c-5.857-5.857-15.355-5.857-21.213,0
		c-5.858,5.858-5.857,15.355,0,21.213C217.133,414.199,235.967,422,256,422s38.867-7.801,53.033-21.967
		c5.857-5.858,5.858-15.355,0-21.213C303.176,372.962,293.678,372.962,287.82,378.819z"/>
	<circle cx="196" cy="287" r="15"/>
	<circle cx="316" cy="287" r="15"/>
	<path d="M421,242v-4.084c19.134-18.59,30-44.103,30-70.916c0-8.284-6.716-15-15-15h-15V45c0-24.813-20.187-45-45-45H136
		c-24.813,0-45,20.187-45,45c0,3.379,0,194.155,0,197c-33.084,0-60,26.916-60,60s26.916,60,60,60h0.689
		C99.293,445.978,170.075,512,256,512s156.707-66.022,164.311-150H421c33.084,0,60-26.916,60-60S454.084,242,421,242z M271,137
		c0,8.271-6.729,15-15,15s-15-6.729-15-15s6.729-15,15-15S271,128.729,271,137z M213.58,152H121v-30.2h92.58
		c-1.665,4.695-2.58,9.942-2.58,15.2S211.915,147.305,213.58,152z M419.348,182L419.348,182
		c-3.209,14.369-10.981,27.47-22.384,37.27c-15.032,12.919-34.794,18.635-54.213,15.682
		c-60.033-9.127-118.148-26.928-172.926-52.952H419.348z M298.42,152c1.665-4.695,2.58-9.742,2.58-15s-0.915-10.305-2.58-15H391v30
		H298.42z M136,30h240c8.271,0,15,6.729,15,15v47H121V45C121,36.729,127.729,30,136,30z M61,302c0-16.542,13.458-30,30-30v60
		C74.458,332,61,318.542,61,302z M256,482c-74.439,0-135-60.561-135-135c0-4.483,0-146.232,0-155.73l24.129,12.064
		c60.864,30.433,125.836,51.049,193.112,61.277c18.115,2.754,36.327,0.294,52.759-6.712V347C391,421.439,330.439,482,256,482z
		 M421,332v-60c16.542,0,30,13.458,30,30S437.542,332,421,332z"/>
</g>
<g>
</g>
<g>
</g>
<g>
</g>
<g>
</g>
<g>
</g>
<g>
</g>
<g>
</g>
<g>
</g>
<g>
</g>
<g>
</g>
<g>
</g>
<g>
</g>
<g>
</g>
<g>
</g>
<g>
</g>
</svg>
