<?xml version="1.0" encoding="iso-8859-1"?>
<!-- Generator: Adobe Illustrator 19.0.0, SVG Export Plug-In . SVG Version: 6.00 Build 0)  -->
<svg version="1.1" id="Layer_1" xmlns="http://www.w3.org/2000/svg" xmlns:xlink="http://www.w3.org/1999/xlink" x="0px" y="0px"
	 viewBox="0 0 512 512" style="enable-background:new 0 0 512 512;" xml:space="preserve">
<g>
	<circle cx="196" cy="255" r="15"/>
	<circle cx="316" cy="255" r="15"/>
	<path d="M481,240c0-33.084-26.916-60-60-60c0-10.847,0-82.937,0-92.58c17.459-6.192,30-22.865,30-42.42c0-24.813-20.187-45-45-45
		s-45,20.187-45,45c0,5.179,0.89,10.151,2.507,14.785L331,85.792l-32.508-26.005C300.11,55.152,301,50.179,301,45
		c0-24.813-20.187-45-45-45s-45,20.187-45,45c0,5.178,0.89,10.149,2.507,14.783L181,85.791l-32.507-26.005
		C150.11,55.151,151,50.179,151,45c0-24.813-20.187-45-45-45S61,20.187,61,45c0,19.555,12.541,36.228,30,42.42
		c0,9.644,0,81.733,0,92.58c-33.084,0-60,26.916-60,60s26.916,60,60,60v36.188l-10.257-3.419
		c-13.519-4.508-25.114,10.716-17.224,22.551c21.28,31.921,25.284,39.446,38.513,51.098C126.477,469.737,187.836,512,256,512
		c68.165,0,129.524-42.264,153.968-105.583c13.235-11.657,17.246-19.196,38.513-51.096c7.906-11.857-3.727-27.051-17.224-22.551
		L421,336.188V300C454.084,300,481,273.084,481,240z M451,240c0,16.542-13.458,30-30,30v-60C437.542,210,451,223.458,451,240z
		 M406,30c8.271,0,15,6.729,15,15s-6.729,15-15,15s-15-6.729-15-15S397.729,30,406,30z M256,30c8.271,0,15,6.729,15,15
		s-6.729,15-15,15s-15-6.729-15-15S247.729,30,256,30z M190.371,116.713l41.886-33.511C239.154,87.504,247.289,90,256,90
		c8.709,0,16.844-2.495,23.74-6.796l41.889,33.51c5.481,4.384,13.266,4.38,18.74,0l41.888-33.511
		c2.733,1.705,5.66,3.124,8.742,4.217c0,9.644,0,81.733,0,92.58h-98.787l16.82-16.82c5.853-5.852,5.858-15.356,0-21.213
		l-42.427-42.427c-5.857-5.858-15.355-5.858-21.213,0l-42.427,42.427c-5.853,5.852-5.858,15.356,0,21.213l16.82,16.82H121
		c0-10.847,0-82.937,0-92.58c3.082-1.093,6.009-2.512,8.742-4.217l41.888,33.51C177.11,121.097,184.894,121.094,190.371,116.713z
		 M234.786,152.574L256,131.36l21.214,21.213L256,173.787L234.786,152.574z M106,30c8.271,0,15,6.729,15,15s-6.729,15-15,15
		s-15-6.729-15-15S97.729,30,106,30z M61,240c0-16.542,13.458-30,30-30v60C74.458,270,61,256.542,61,240z M256,398.213
		c4.426,4.426,10.681,11.075,21.756,18.207C271.21,420.04,263.782,422,256,422s-15.209-1.96-21.756-5.58
		C245.098,409.43,251.201,403.012,256,398.213z M398.547,375.296c-20.832,24.909-55.234,34.997-86.554,24.557
		c-19.748-6.583-29.874-17.947-37.666-25.739c9.001-14.73,29.843-17.731,42.576-4.998c15.447,15.449,37.922,20.756,58.647,13.845
		L398.547,375.296z M200.008,399.853c-31.324,10.442-65.723,0.352-86.554-24.557l22.995,7.666
		c20.726,6.908,43.198,1.604,58.647-13.846c12.626-12.627,33.489-9.872,42.576,4.998
		C230.151,381.637,219.935,393.21,200.008,399.853z M256,482c-41.736,0-80.338-19.377-105.515-50.83
		c17.143,3.898,35.025,3.741,52.662-0.976C217.097,444,236.176,452,256,452s38.903-8,52.853-21.805
		c17.529,4.689,35.414,4.899,52.663,0.974C336.339,462.623,297.737,482,256,482z M366.064,354.5
		c-9.88,3.294-20.587,0.763-27.948-6.598c-23.663-23.663-60.91-21.47-82.116,1.019c-21.13-22.408-58.375-24.762-82.116-1.019
		c-7.361,7.362-18.067,9.891-27.948,6.598L121,346.188c0-8.344,0-130.092,0-136.188h270c0,6.117,0,127.808,0,136.188L366.064,354.5z
		"/>
</g>
<g>
</g>
<g>
</g>
<g>
</g>
<g>
</g>
<g>
</g>
<g>
</g>
<g>
</g>
<g>
</g>
<g>
</g>
<g>
</g>
<g>
</g>
<g>
</g>
<g>
</g>
<g>
</g>
<g>
</g>
</svg>
