<?xml version="1.0" encoding="iso-8859-1"?>
<!-- Generator: Adobe Illustrator 19.0.0, SVG Export Plug-In . SVG Version: 6.00 Build 0)  -->
<svg version="1.1" id="Layer_1" xmlns="http://www.w3.org/2000/svg" xmlns:xlink="http://www.w3.org/1999/xlink" x="0px" y="0px"
	 viewBox="0 0 512 512" style="enable-background:new 0 0 512 512;" xml:space="preserve">
<g>
	<path d="M61,249.101C43.001,259.6,31,278.8,31,301s12.299,41.7,30.3,52.2c-0.3-2.401-0.3-4.799-0.3-7.2V249.101z"/>
	<path d="M451,249.101V346c0,2.401,0,4.799-0.3,7.2c18.001-10.499,30.3-30,30.3-52.2S468.999,259.6,451,249.101z"/>
	<path d="M496.811,91H421v30c0,8.291-6.709,15-15,15s-15-6.709-15-15V91h-30v30c0,8.291-6.709,15-15,15s-15-6.709-15-15V91h-30v30
		c0,8.291-6.709,15-15,15s-15-6.709-15-15V91h-30v30c0,8.291-6.709,15-15,15s-15-6.709-15-15V91h-30v30c0,8.291-6.709,15-15,15
		s-15-6.709-15-15V91h-30v30c0,8.291-6.709,15-15,15s-15-6.709-15-15V91H15.189C5.695,91-1.6,99.778,0.304,109.078
		C8.696,150.072,47.562,181,91,181h330c43.438,0,82.304-30.928,90.696-71.922C513.6,99.778,506.305,91,496.811,91z"/>
	<path d="M151,497c0,8.401,6.599,15,15,15s15-6.599,15-15v-3.3c-10.8-5.4-20.7-12.001-30-19.501V497z"/>
	<path d="M331,497c0,8.401,6.599,15,15,15s15-6.599,15-15v-22.8c-9.3,7.5-19.2,14.101-30,19.501V497z"/>
	<path d="M91,346c0,51,23.401,97.899,60,128.2V376c0-41.4,33.6-75,75-75c8.401,0,15,6.599,15,15s-6.599,15-15,15
		c-24.901,0-45,20.099-45,45v117.7c22.5,11.7,47.999,18.3,75,18.3s52.5-6.599,75-18.3V376c0-24.901-20.099-45-45-45
		c-8.401,0-15-6.599-15-15s6.599-15,15-15c41.4,0,75,33.6,75,75v98.2c36.599-30.3,60-77.199,60-128.2V211H91V346z M316,241
		c8.284,0,15,6.716,15,15s-6.716,15-15,15s-15-6.716-15-15S307.716,241,316,241z M287.802,377.816
		c5.859-5.859,15.366-5.845,21.226-0.015c5.859,5.859,5.859,15.352,0.015,21.226C294.877,413.192,276.054,421,256,421
		s-38.877-7.808-53.042-21.973c-5.845-5.874-5.845-15.366,0.015-21.226c5.859-5.83,15.366-5.845,21.226,0.015
		C241.161,394.838,270.839,394.838,287.802,377.816z M196,241c8.284,0,15,6.716,15,15s-6.716,15-15,15s-15-6.716-15-15
		S187.716,241,196,241z"/>
	<path d="M317.816,24.412c-32.549-32.549-91.084-32.549-123.633,0l-34.395,34.395h192.422L317.816,24.412z"/>
</g>
<g>
</g>
<g>
</g>
<g>
</g>
<g>
</g>
<g>
</g>
<g>
</g>
<g>
</g>
<g>
</g>
<g>
</g>
<g>
</g>
<g>
</g>
<g>
</g>
<g>
</g>
<g>
</g>
<g>
</g>
</svg>
