<?xml version="1.0" encoding="iso-8859-1"?>
<!-- Generator: Adobe Illustrator 19.0.0, SVG Export Plug-In . SVG Version: 6.00 Build 0)  -->
<svg version="1.1" id="Layer_1" xmlns="http://www.w3.org/2000/svg" xmlns:xlink="http://www.w3.org/1999/xlink" x="0px" y="0px"
	 viewBox="0 0 512 512" style="enable-background:new 0 0 512 512;" xml:space="preserve">
<g>
	<path d="M31,271c0,22.114,12.153,41.25,30,51.656V219.344C43.153,229.75,31,248.886,31,271z"/>
	<path d="M168.227,153.999L91,231.216V332h70.547c57.876-36.46,131.045-36.431,188.892,0H421V231.215l-77.227-77.216
		C289.281,185.112,222.719,185.112,168.227,153.999z M196,270c-8.284,0-15-6.716-15-15s6.716-15,15-15s15,6.716,15,15
		S204.284,270,196,270z M316,270c-8.284,0-15-6.716-15-15s6.716-15,15-15s15,6.716,15,15S324.284,270,316,270z"/>
	<path d="M368.427,60.791c-11.719-20.977-36.167-33.413-60.176-30.293C297.792,12.012,277.943,0,256,0s-41.792,12.012-52.251,30.498
		c-23.95-3.135-48.457,9.316-60.176,30.293C113.808,65.596,91,91.465,91,122.563c0,23.104,0,39.716,0,66.226l64.395-64.395
		c5.083-5.054,13.008-5.845,18.926-1.875c49.629,33.076,113.73,33.076,163.359,0c5.903-3.984,13.843-3.208,18.926,1.875L421,188.789
		c0-55.986,0-39.514,0-66.226C421,91.465,398.192,65.596,368.427,60.791z"/>
	<path d="M337.68,359.48c-49.629-33.076-113.76-33.047-163.359,0c-2.461,1.641-5.361,2.52-8.32,2.52H91.76
		c7.614,83.969,78.322,150,164.24,150s156.627-66.031,164.24-150H346C343.041,362,340.141,361.121,337.68,359.48z M309.042,400.027
		C294.877,414.192,276.054,422,256,422s-38.877-7.808-53.042-21.973c-5.845-5.874-5.845-15.366,0.015-21.226
		c5.859-5.83,15.366-5.845,21.226,0.015c16.963,17.021,46.641,17.021,63.604,0c5.859-5.859,15.366-5.845,21.226-0.015
		C314.887,384.661,314.887,394.153,309.042,400.027z"/>
	<path d="M451,219.344v103.312c17.847-10.406,30-29.542,30-51.656S468.847,229.75,451,219.344z"/>
</g>
<g>
</g>
<g>
</g>
<g>
</g>
<g>
</g>
<g>
</g>
<g>
</g>
<g>
</g>
<g>
</g>
<g>
</g>
<g>
</g>
<g>
</g>
<g>
</g>
<g>
</g>
<g>
</g>
<g>
</g>
</svg>
