<?xml version="1.0" encoding="iso-8859-1"?>
<!-- Generator: Adobe Illustrator 19.0.0, SVG Export Plug-In . SVG Version: 6.00 Build 0)  -->
<svg version="1.1" id="Layer_1" xmlns="http://www.w3.org/2000/svg" xmlns:xlink="http://www.w3.org/1999/xlink" x="0px" y="0px"
	 viewBox="0 0 512 512" style="enable-background:new 0 0 512 512;" xml:space="preserve">
<g>
	<path d="M301,285c0,8.276,6.724,15,15,15s15-6.724,15-15s-6.724-15-15-15S301,276.724,301,285z"/>
	<path d="M0,97.925C0,159.727,51.273,210,113.075,210c32.926,0,52.168-12.856,83.291-28.418c2.08-1.04,4.38-1.582,6.709-1.582
		H308.91c2.329,0,4.629,0.542,6.709,1.582C348.454,197.992,366.771,210,398.925,210C460.727,210,512,159.727,512,97.925V75
		c0-10.09-12.928-18.728-24.316-11.909C444.617,88.96,388.261,80.757,355.126,43.55C330.443,15.879,294.306,0,256,0
		c-38.232,0-74.268,15.732-98.848,43.169C123.651,80.464,67.178,88.77,22.72,62.139C12.761,56.151,0,63.332,0,75V97.925z
		 M215.395,85.605c-5.859-5.859-5.859-15.352,0-21.211s15.352-5.859,21.211,0L256,83.789l19.395-19.395
		c5.859-5.859,15.352-5.859,21.211,0s5.859,15.352,0,21.211L277.211,105l19.395,19.395c5.859,5.859,5.859,15.352,0,21.211
		c-5.86,5.86-15.351,5.86-21.211,0L256,126.211l-19.395,19.395c-5.86,5.86-15.351,5.86-21.211,0c-5.859-5.859-5.859-15.352,0-21.211
		L234.789,105L215.395,85.605z"/>
	<path d="M345.617,318.611C337.683,325.611,327.389,330,316,330c-24.716,0-46.266-20.385-44.745-47.518l-107.23-52.086
		c-16.241,6.227-33.583,9.604-50.949,9.604c-7.559,0-14.832-1.089-22.075-2.232V345c0,90.981,74.019,167,165,167
		c87.607,0,159.285-70.685,164.495-157.004L345.617,318.611z M181,285c0-8.286,6.716-15,15-15s15,6.714,15,15
		c0,8.284-6.716,15-15,15S181,293.284,181,285z M309.042,400.027C294.877,414.192,276.054,422,256,422s-38.877-7.808-53.042-21.973
		c-5.845-5.874-5.845-15.366,0.015-21.226c5.859-5.83,15.366-5.845,21.226,0.015c16.963,17.021,46.641,17.021,63.604,0
		c5.859-5.859,15.366-5.845,21.226-0.015C314.887,384.661,314.887,394.153,309.042,400.027z"/>
	<path d="M398.925,240c-38.753,0-61.159-13.807-93.56-30H206.62l-7.855,3.928l84.115,40.86C291.114,245.768,302.851,240,316,240
		c26.942,0,48.989,23.914,44.255,52.365L421,321.881v-84.113C413.756,238.911,406.483,240,398.925,240z"/>
</g>
<g>
</g>
<g>
</g>
<g>
</g>
<g>
</g>
<g>
</g>
<g>
</g>
<g>
</g>
<g>
</g>
<g>
</g>
<g>
</g>
<g>
</g>
<g>
</g>
<g>
</g>
<g>
</g>
<g>
</g>
</svg>
