<?xml version="1.0" encoding="iso-8859-1"?>
<!-- Generator: Adobe Illustrator 19.0.0, SVG Export Plug-In . SVG Version: 6.00 Build 0)  -->
<svg version="1.1" id="Layer_1" xmlns="http://www.w3.org/2000/svg" xmlns:xlink="http://www.w3.org/1999/xlink" x="0px" y="0px"
	 viewBox="0 0 512 512" style="enable-background:new 0 0 512 512;" xml:space="preserve">
<g>
	<path d="M110.834,334.356C138.772,385.91,193.36,421,256,421c7.645,0,15.229-0.71,22.749-1.749
		C274.089,405.597,271,391.212,271,376v-46.972c-4.94,1.009-9.908,1.972-15,1.972c-20.039,0-38.877-7.808-53.042-21.973
		c-5.845-5.874-5.845-15.366,0.015-21.226c5.859-5.83,15.366-5.845,21.226,0.015c12.155,12.217,30.906,15.483,46.802,9.935v-118.26
		c-34.189-6.973-60-37.266-60-73.491v-5.484c-14.811,18.393-34.272,33.164-57.524,41.9C138.124,148.188,122.26,151,106.293,151
		c-4.821,0-9.657-0.374-14.489-0.884C91.302,155.349,91,160.639,91,166v15c-33.091,0-61,26.909-61,60
		c0,2.677,0.45,5.231,0.791,7.817C12.206,259.252,0,278.98,0,301c0,33.091,26.909,60,60,60
		C80.751,361,100.056,350.409,110.834,334.356z M196,181c8.284,0,15,6.714,15,15c0,8.284-6.716,15-15,15s-15-6.716-15-15
		C181,187.714,187.716,181,196,181z M60,331c-16.538,0-30-13.462-30-30c0-9.714,4.812-18.474,12.29-24.012
		C53.253,291.48,71.464,301,91,301C91,317.538,76.538,331,60,331z"/>
	<path d="M481.209,248.817c0.341-2.585,0.791-5.14,0.791-7.817c0-33.091-27.909-60-61-60v-15C421,75.019,346.981,0,256,0
		c-5.063,0-10.052,0.311-15,0.76V106c0,24.814,20.186,45,45,45c8.291,0,15,6.709,15,15v210c0,57.891,47.109,106,105,106h15V352.656
		c8.86,5.167,20.023,8.344,31,8.344c33.091,0,60-26.909,60-60C512,278.98,499.794,259.252,481.209,248.817z M452,331
		c-16.538,0-31-13.462-31-30c19.536,0,37.747-9.52,48.71-24.012C477.188,282.526,482,291.286,482,301
		C482,317.538,468.538,331,452,331z"/>
	<path d="M291.911,447.426C280.108,449.634,268.098,451,256,451c-60.875,0-115.188-28.138-150.945-72.004
		c-4.482,2.543-9.137,4.722-14.055,6.476V497c0,8.291,6.709,15,15,15h300C357.849,512,315.813,485.468,291.911,447.426z"/>
	<path d="M210.956,17.637c0.002-0.073,0.04-0.132,0.044-0.205V6.396c-54.631,15.527-97.734,59.471-113.454,114.022
		c15.333,1.183,30.604-0.54,45.383-6.083C183.197,99.203,209.916,60.63,210.956,17.637z"/>
</g>
<g>
</g>
<g>
</g>
<g>
</g>
<g>
</g>
<g>
</g>
<g>
</g>
<g>
</g>
<g>
</g>
<g>
</g>
<g>
</g>
<g>
</g>
<g>
</g>
<g>
</g>
<g>
</g>
<g>
</g>
</svg>
