<?xml version="1.0" encoding="iso-8859-1"?>
<!-- Generator: Adobe Illustrator 19.0.0, SVG Export Plug-In . SVG Version: 6.00 Build 0)  -->
<svg version="1.1" id="Layer_1" xmlns="http://www.w3.org/2000/svg" xmlns:xlink="http://www.w3.org/1999/xlink" x="0px" y="0px"
	 viewBox="0 0 512 512" style="enable-background:new 0 0 512 512;" xml:space="preserve">
<g>
	<path d="M61,346c0,90.981,74.019,166,165,166s165-75.019,165-166V241H61V346z M286,271c8.284,0,15,6.714,15,15
		c0,8.284-6.716,15-15,15s-15-6.716-15-15C271,277.714,277.716,271,286,271z M194.198,377.816c16.963,17.021,46.641,17.021,63.604,0
		c5.859-5.859,15.366-5.845,21.226-0.015c5.859,5.859,5.859,15.352,0.015,21.226C264.877,413.192,246.054,421,226,421
		s-38.877-7.808-53.042-21.973c-5.845-5.874-5.845-15.366,0.015-21.226C178.832,371.971,188.339,371.957,194.198,377.816z M166,271
		c8.284,0,15,6.714,15,15c0,8.284-6.716,15-15,15s-15-6.716-15-15C151,277.714,157.716,271,166,271z"/>
	<path d="M497,180h-76.76C412.237,75.644,321.923-6.041,214.184,0.351C109.867,6.54,31,98.267,31,202.767
		c0,3.994,3.237,7.233,7.233,7.233H151v-15c0-24.853,20.147-45,45-45h60c24.853,0,45,20.147,45,45v15c40.087,0,156.815,0,196,0
		c8.291,0,15-6.709,15-15S505.291,180,497,180z"/>
	<path d="M256,180h-60c-8.276,0-15,6.724-15,15v15h90v-15C271,186.723,264.276,180,256,180z"/>
	<path d="M0,301c0,22.114,12.153,41.25,30,51.656V249.344C12.153,259.75,0,278.886,0,301z"/>
	<path d="M421,249.344v103.312c17.847-10.406,30-29.542,30-51.656S438.847,259.75,421,249.344z"/>
</g>
<g>
</g>
<g>
</g>
<g>
</g>
<g>
</g>
<g>
</g>
<g>
</g>
<g>
</g>
<g>
</g>
<g>
</g>
<g>
</g>
<g>
</g>
<g>
</g>
<g>
</g>
<g>
</g>
<g>
</g>
</svg>
