<?xml version="1.0" encoding="iso-8859-1"?>
<!-- Generator: Adobe Illustrator 19.0.0, SVG Export Plug-In . SVG Version: 6.00 Build 0)  -->
<svg version="1.1" id="Layer_1" xmlns="http://www.w3.org/2000/svg" xmlns:xlink="http://www.w3.org/1999/xlink" x="0px" y="0px"
	 viewBox="0 0 512 512" style="enable-background:new 0 0 512 512;" xml:space="preserve">
<g>
	<path d="M441.31,164.603C465.304,148.473,481,121.207,481,90c0-49.629-40.371-90-90-90c-31.207,0-58.473,15.696-74.603,39.69
		C375.387,58.969,422.031,105.613,441.31,164.603z"/>
	<path d="M70.69,164.603C89.969,105.615,136.615,58.969,195.603,39.69C179.473,15.696,152.207,0,121,0C71.371,0,31,40.371,31,90
		C31,121.207,46.696,148.473,70.69,164.603z"/>
	<path d="M376,211h44.24C413.075,131.979,350.021,68.925,271,61.76V106C271,163.891,318.109,211,376,211z"/>
	<path d="M91.76,211H136c57.891,0,105-47.109,105-105V61.76C161.979,68.925,98.925,131.979,91.76,211z"/>
	<path d="M481.209,308.817c0.341-2.585,0.791-5.14,0.791-7.817c0-33.091-27.909-60-61-60l0,0h-45
		c-52.178,0-97.529-29.751-120-73.184C233.529,211.249,188.178,241,136,241H91l0,0c-33.091,0-61,26.909-61,60
		c0,2.677,0.45,5.231,0.791,7.817C12.206,319.252,0,338.98,0,361c0,33.091,26.909,60,60,60c15.866,0,31.211-6.301,41.952-16.388
		C125.66,466.703,185.68,512,256,512s130.34-45.297,154.048-107.388C420.789,414.699,436.134,421,452,421c33.091,0,60-26.909,60-60
		C512,338.98,499.794,319.252,481.209,308.817z M60,391c-16.538,0-30-13.462-30-30c0-9.714,4.812-18.474,12.29-24.012
		C53.253,351.48,71.464,361,91,361C91,377.538,76.538,391,60,391z M181,286c0-8.286,6.716-15,15-15s15,6.714,15,15
		c0,8.284-6.716,15-15,15S181,294.284,181,286z M309.042,399.027C294.877,413.192,276.054,421,256,421s-38.877-7.808-53.042-21.973
		c-5.845-5.874-5.845-15.366,0.015-21.226c5.859-5.83,15.366-5.845,21.226,0.015c16.963,17.021,46.641,17.021,63.604,0
		c5.859-5.859,15.366-5.845,21.226-0.015C314.887,383.661,314.887,393.153,309.042,399.027z M316,301c-8.284,0-15-6.716-15-15
		c0-8.286,6.716-15,15-15s15,6.714,15,15C331,294.284,324.284,301,316,301z M452,391c-16.538,0-31-13.462-31-30
		c19.536,0,37.747-9.52,48.71-24.012C477.188,342.526,482,351.286,482,361C482,377.538,468.538,391,452,391z"/>
</g>
<g>
</g>
<g>
</g>
<g>
</g>
<g>
</g>
<g>
</g>
<g>
</g>
<g>
</g>
<g>
</g>
<g>
</g>
<g>
</g>
<g>
</g>
<g>
</g>
<g>
</g>
<g>
</g>
<g>
</g>
</svg>
