<?xml version="1.0" encoding="iso-8859-1"?>
<!-- Generator: Adobe Illustrator 19.0.0, SVG Export Plug-In . SVG Version: 6.00 Build 0)  -->
<svg version="1.1" id="Layer_1" xmlns="http://www.w3.org/2000/svg" xmlns:xlink="http://www.w3.org/1999/xlink" x="0px" y="0px"
	 viewBox="0 0 512 512" style="enable-background:new 0 0 512 512;" xml:space="preserve">
<g>
	<path d="M1,241c0,22.114,12.153,41.25,30,51.656V196c0-2.311,0.276-4.55,0.346-6.844C13.31,199.514,1,218.745,1,241z"/>
	<path d="M346,90h74.053C385.346,35.964,324.851,0,256,0c-12.246,0-24.186,1.274-35.814,3.444
		c6.658,17.311,16.672,33.287,30.159,46.829C275.863,75.894,309.833,90,346,90z"/>
	<path d="M391,226c0-24.814-20.186-45-45-45s-45,20.186-45,45s20.186,45,45,45S391,250.814,391,226z"/>
	<path d="M211,226c0-24.814-20.186-45-45-45s-45,20.186-45,45s20.186,45,45,45S211,250.814,211,226z"/>
	<path d="M337.68,358.48c-49.629-33.076-113.745-33.047-163.374,0c-2.461,1.641-5.361,2.52-8.32,2.52H66.451
		C86.847,446.864,163.99,512,256,512s169.153-65.136,189.549-151H346C343.041,361,340.141,360.121,337.68,358.48z M309.042,399.027
		C294.877,413.192,276.054,421,256,421s-38.877-7.808-53.042-21.973c-5.845-5.874-5.845-15.366,0.015-21.226
		c5.859-5.83,15.366-5.845,21.226,0.015c16.963,17.021,46.641,17.021,63.604,0c5.859-5.859,15.366-5.845,21.226-0.015
		C314.887,383.661,314.887,393.153,309.042,399.027z"/>
	<path d="M419.513,240.7C412.656,275.034,382.319,301,346,301c-36.216,0-66.513-25.809-73.482-60h-33.036
		c-6.969,34.191-37.266,60-73.482,60c-36.319,0-66.656-25.966-73.513-60.3c-0.513,0.053-0.959,0.3-1.487,0.3H61v75
		c0,5.063,0.379,10.032,0.76,15h99.787c57.876-36.445,131.045-36.445,188.892,0h99.802c0.381-4.968,0.76-9.937,0.76-15v-75h-30
		C420.473,241,420.026,240.753,419.513,240.7z"/>
	<path d="M346,120c-44.194,0-85.708-17.241-116.909-48.56c-17.232-17.296-29.659-37.91-37.745-60.19
		C115.554,38.009,61,111.167,61,196v15h30c0.527,0,0.974,0.247,1.487,0.3C99.344,176.966,129.681,151,166,151
		c36.216,0,66.513,25.809,73.482,60h33.036c6.969-34.191,37.266-60,73.482-60c36.319,0,66.656,25.966,73.513,60.3
		c0.513-0.053,0.959-0.3,1.487-0.3h30v-15c0-26.569-5.378-52.896-15.044-76H346z"/>
	<path d="M480.654,189.156c0.07,2.294,0.346,4.534,0.346,6.844v96.656c17.847-10.406,30-29.542,30-51.656
		C511,218.745,498.69,199.514,480.654,189.156z"/>
</g>
<g>
</g>
<g>
</g>
<g>
</g>
<g>
</g>
<g>
</g>
<g>
</g>
<g>
</g>
<g>
</g>
<g>
</g>
<g>
</g>
<g>
</g>
<g>
</g>
<g>
</g>
<g>
</g>
<g>
</g>
</svg>
