<?xml version="1.0" encoding="iso-8859-1"?>
<!-- Generator: Adobe Illustrator 19.0.0, SVG Export Plug-In . SVG Version: 6.00 Build 0)  -->
<svg version="1.1" id="Layer_1" xmlns="http://www.w3.org/2000/svg" xmlns:xlink="http://www.w3.org/1999/xlink" x="0px" y="0px"
	 viewBox="0 0 512 512" style="enable-background:new 0 0 512 512;" xml:space="preserve">
<g>
	<path d="M308.925,241c26.66,0,51.313-11.074,68.716-30H134.359c17.402,18.926,42.056,30,68.716,30H308.925z"/>
	<polygon points="91,181 91,181 421,181 421,181 421,151 91,151 	"/>
	<path d="M308.925,271h-105.85c-43.846,0-83.333-22.874-105.602-60H91v135c0,90.981,74.019,166,165,166s165-75.019,165-166V211
		h-6.473C392.258,248.126,352.771,271,308.925,271z M181,316c0-8.286,6.716-15,15-15s15,6.714,15,15c0,8.284-6.716,15-15,15
		S181,324.284,181,316z M309.042,399.027C294.877,413.192,276.054,421,256,421s-38.877-7.808-53.042-21.973
		c-5.845-5.874-5.845-15.366,0.015-21.226c5.859-5.83,15.366-5.845,21.226,0.015c16.963,17.021,46.641,17.021,63.604,0
		c5.859-5.859,15.366-5.845,21.226-0.015C314.887,383.661,314.887,393.153,309.042,399.027z M316,331c-8.284,0-15-6.716-15-15
		c0-8.286,6.716-15,15-15s15,6.714,15,15C331,324.284,324.284,331,316,331z"/>
	<path d="M481,90c0-58.462-115.928-90-225-90S31,31.538,31,90c0.005,16.578,13.434,30,30,30h390C467.569,120,481,106.567,481,90z"/>
	<path d="M31,301c0,22.114,12.153,41.25,30,51.656V249.344C43.153,259.75,31,278.886,31,301z"/>
	<path d="M451,249.344v103.312c17.847-10.406,30-29.542,30-51.656S468.847,259.75,451,249.344z"/>
</g>
<g>
</g>
<g>
</g>
<g>
</g>
<g>
</g>
<g>
</g>
<g>
</g>
<g>
</g>
<g>
</g>
<g>
</g>
<g>
</g>
<g>
</g>
<g>
</g>
<g>
</g>
<g>
</g>
<g>
</g>
</svg>
