<?xml version="1.0" encoding="iso-8859-1"?>
<!-- Generator: Adobe Illustrator 19.0.0, SVG Export Plug-In . SVG Version: 6.00 Build 0)  -->
<svg version="1.1" id="Layer_1" xmlns="http://www.w3.org/2000/svg" xmlns:xlink="http://www.w3.org/1999/xlink" x="0px" y="0px"
	 viewBox="0 0 511.954 511.954" style="enable-background:new 0 0 511.954 511.954;" xml:space="preserve">
<g>
	<path d="M339.4,61.203l-41.193-7.266c9.126-15.956,27.098-26.593,46.393-23.295c8.174,1.509,15.938-3.999,17.373-12.158
		c1.45-8.159-3.999-15.938-12.158-17.373c-35.75-6.319-69.686,14.965-82.48,47.379l-46.104-8.132
		C147.842,27.423,77.749,76.569,64.844,149.855c-1.445,8.167,4.005,15.948,12.171,17.391l354.521,62.507
		c8.156,1.437,15.927-4.008,17.36-12.164c6.27-35.522-1.67-71.338-22.354-100.884S374.908,67.458,339.4,61.203z M335.928,167.199
		c-1.274,7.28-7.603,12.393-14.751,12.393c-0.864,0-1.743-0.073-2.622-0.234c-8.159-1.436-13.608-9.214-12.158-17.373
		c7.046-40.034-7.28-77.432-31.304-81.68c-24.053-4.277-50.259,26.016-57.334,66.064c-1.436,8.159-9.214,13.623-17.373,12.158
		c-8.159-1.436-13.608-9.214-12.158-17.373c10.201-57.838,50.479-97.332,91.811-90.405c0.09,0.015,0.179-0.007,0.269,0.009
		c5.751,1.014,11.082,3.054,16.13,5.663C327.747,72.583,344.732,117.271,335.928,167.199z"/>
	<path d="M90.977,346.954c0,90.981,74.019,165,165,165s165-74.019,165-165v-88.61l-330-58.184V346.954z M315.977,271.954
		c8.284,0,15,6.714,15,15c0,8.284-6.716,15-15,15s-15-6.716-15-15C300.977,278.668,307.693,271.954,315.977,271.954z
		 M224.175,378.77c16.963,17.021,46.641,17.021,63.604,0c5.859-5.859,15.366-5.845,21.226-0.015
		c5.859,5.859,5.859,15.352,0.015,21.226c-14.165,14.165-32.988,21.973-53.042,21.973s-38.877-7.808-53.042-21.973
		c-5.845-5.874-5.845-15.366,0.015-21.226C208.809,372.925,218.316,372.911,224.175,378.77z M195.977,271.954
		c8.284,0,15,6.714,15,15c0,8.284-6.716,15-15,15s-15-6.716-15-15C180.977,278.668,187.693,271.954,195.977,271.954z"/>
	<path d="M450.977,249.298c0,49.061,0,54.558,0,103.239c17.829-10.41,30-29.484,30-51.583
		C480.977,278.84,468.824,259.704,450.977,249.298z"/>
	<path d="M30.977,300.954c0,22.099,12.171,41.173,30,51.583c0-22.452,0-80.786,0-103.239
		C43.13,259.704,30.977,278.84,30.977,300.954z"/>
</g>
<g>
</g>
<g>
</g>
<g>
</g>
<g>
</g>
<g>
</g>
<g>
</g>
<g>
</g>
<g>
</g>
<g>
</g>
<g>
</g>
<g>
</g>
<g>
</g>
<g>
</g>
<g>
</g>
<g>
</g>
</svg>
