<?xml version="1.0" encoding="iso-8859-1"?>
<!-- Generator: Adobe Illustrator 19.0.0, SVG Export Plug-In . SVG Version: 6.00 Build 0)  -->
<svg version="1.1" id="Layer_1" xmlns="http://www.w3.org/2000/svg" xmlns:xlink="http://www.w3.org/1999/xlink" x="0px" y="0px"
	 viewBox="0 0 512.001 512.001" style="enable-background:new 0 0 512.001 512.001;" xml:space="preserve">
<g>
	<path d="M421,421.001c-16.538,0-30,13.462-30,30c0,4.424,0.952,8.423,2.534,12.085l21.4,45.399
		c2.684,4.68,9.465,4.691,12.158,0.016l20.407-43.452c2.3-4.307,3.501-9.17,3.501-14.048C451,434.462,437.538,421.001,421,421.001z"
		/>
	<path d="M76,211.001h30c74.559,0,135-61.441,135-136V16.28C218.927,3.41,193.243-2.312,166.605,0.858
		C105.27,8.162,61,63.829,61,125.596v70.404C61,204.284,67.717,211.001,76,211.001z"/>
	<path d="M391,316.001c0,16.538,13.462,30,30,30s30-13.462,30-30s-13.462-30-30-30S391,299.462,391,316.001z"/>
	<path d="M451,256.001c0-16.538-13.462-30-30-30s-30,13.462-30,30s13.462,30,30,30S451,272.539,451,256.001z"/>
	<path d="M391,376.001c0,16.538,13.462,30,30,30s30-13.462,30-30s-13.462-30-30-30S391,359.462,391,376.001z"/>
	<path d="M345.396,0.858C318.758-2.312,293.074,3.41,271,16.28v58.72c0,74.559,60.441,136,135,136h30c8.284,0,15-6.716,15-15
		v-70.404C451,63.829,406.731,8.162,345.396,0.858z"/>
	<path d="M91,421.001c-16.538,0-30,13.462-30,30c0,4.424,0.952,8.423,2.534,12.085l21.4,45.399c2.684,4.68,9.465,4.691,12.158,0.016
		l20.407-43.452c2.3-4.307,3.501-9.17,3.501-14.048C121,434.462,107.538,421.001,91,421.001z"/>
	<path d="M61,376.001c0,16.538,13.462,30,30,30s30-13.462,30-30s-13.462-30-30-30S61,359.462,61,376.001z"/>
	<path d="M61,316.001c0,16.538,13.462,30,30,30s30-13.462,30-30s-13.462-30-30-30S61,299.462,61,316.001z"/>
	<path d="M369.344,346.001c-5.167-8.86-8.344-19.023-8.344-30s3.177-21.14,8.344-30c-5.167-8.86-8.344-19.023-8.344-30
		c0-3.697,0.397-7.291,1.089-10.781c0.624-3.419,1.62-6.683,2.8-9.875c-48.371-12.499-88.369-46.02-108.889-90.628
		c-20.521,44.608-60.518,78.129-108.889,90.628c2.39,6.467,3.889,13.369,3.889,20.656c0,10.977-3.177,21.14-8.344,30
		c5.167,8.86,8.344,19.023,8.344,30s-3.177,21.14-8.344,30c5.167,8.86,8.344,19.023,8.344,30c0,14.26-5.204,27.195-13.539,37.5
		c6.528,8.071,11.03,17.789,12.72,28.46c29.244,24.695,66.18,39.04,105.818,39.04c39.575,0,76.567-14.154,105.795-38.776
		c1.657-10.774,6.163-20.587,12.744-28.724c-9.058-11.199-13.539-26.014-13.539-37.5C361,365.023,364.177,354.861,369.344,346.001z
		 M181,286.001c0-8.286,6.716-15,15-15s15,6.714,15,15c0,8.284-6.716,15-15,15S181,294.284,181,286.001z M309.042,399.028
		c-14.165,14.165-32.988,21.973-53.042,21.973s-38.877-7.808-53.042-21.973c-5.845-5.874-5.845-15.366,0.015-21.226
		c5.859-5.83,15.366-5.845,21.226,0.015c16.963,17.021,46.641,17.021,63.604,0c5.859-5.859,15.366-5.845,21.226-0.015
		C314.887,383.662,314.887,393.154,309.042,399.028z M316,301.001c-8.284,0-15-6.716-15-15c0-8.286,6.716-15,15-15s15,6.714,15,15
		C331,294.284,324.284,301.001,316,301.001z"/>
	<path d="M121,256.001c0-16.538-13.462-30-30-30s-30,13.462-30,30s13.462,30,30,30S121,272.539,121,256.001z"/>
</g>
<g>
</g>
<g>
</g>
<g>
</g>
<g>
</g>
<g>
</g>
<g>
</g>
<g>
</g>
<g>
</g>
<g>
</g>
<g>
</g>
<g>
</g>
<g>
</g>
<g>
</g>
<g>
</g>
<g>
</g>
</svg>
