<?xml version="1.0" encoding="iso-8859-1"?>
<!-- Generator: Adobe Illustrator 19.0.0, SVG Export Plug-In . SVG Version: 6.00 Build 0)  -->
<svg version="1.1" id="Layer_1" xmlns="http://www.w3.org/2000/svg" xmlns:xlink="http://www.w3.org/1999/xlink" x="0px" y="0px"
	 viewBox="0 0 512 512" style="enable-background:new 0 0 512 512;" xml:space="preserve">
<path d="M90,344.395c-0.066-25.101,0-53.798,0-64.05c-17.706,10.323-29.762,29.253-29.949,51.149v1.022
	C60.24,354.405,72.298,373.317,90,383.638V344.395z"/>
<g>
	<path d="M108.951,429.104l-33.497-19.219c-27.354-15.685-44.495-44.674-45.211-75.839C11.543,353.253,0,379.029,0,407
		c0,57.891,47.109,105,105,105c19.819,0,38.641-5.649,54.884-15.634C138.19,478.166,121.071,455.025,108.951,429.104z"/>
	<path d="M269.801,210.5C232,178.1,206.201,134.7,192.4,89.7c-5.7,4.2-27.1,20.4-30.101,26.1C137.701,141.301,120,185.6,120,227v120
		c0,90.901,75.099,165,166,165s166-74.099,166-165v-75.901C386.6,274.999,321.099,254.599,269.801,210.5z M211,317
		c0-8.284,6.716-15,15-15s15,6.716,15,15s-6.716,15-15,15S211,325.284,211,317z M339.042,430.027
		C324.877,444.192,306.054,452,286,452s-38.877-7.808-53.042-21.973c-5.845-5.874-5.845-15.366,0.015-21.226
		c5.859-5.83,15.366-5.845,21.226,0.015c16.963,17.021,46.641,17.021,63.604,0c5.859-5.859,15.366-5.845,21.226-0.015
		C344.887,414.661,344.887,424.153,339.042,430.027z M346,332c-8.284,0-15-6.716-15-15s6.716-15,15-15s15,6.716,15,15
		S354.284,332,346,332z"/>
	<path d="M482,280.344v103.312c17.847-10.406,30-29.542,30-51.656S499.847,290.75,482,280.344z"/>
	<path d="M286,0c-26.1,0-51.301,4.799-74.7,12.9c-0.3,27.001,4.2,53.401,13.2,78.3C237.1,127.2,259.3,160.6,289.6,186.7
		c32.1,27.599,70.3,45.7,109.9,52.301c27.585,4.557,29.434,1.895,52.41,3.087c0.026,0.002,0.044-0.007,0.062-0.026
		S452,242.026,452,242h30c10.977,0,21.14,3.177,30,8.344v-20.643V227C512,102.8,410.2,0,286,0z"/>
	<path d="M60.005,265.947c4.625-4.213,9.386-8.317,14.892-11.525l15.742-9.163V245H91v-33.058
		c4.952-62.12,40.429-121.231,94.177-153.806c-1.8-10.675-2.834-21.473-3.276-32.419C110.136,63.358,60,140.497,60,227.015
		l0.005,8.39V265.947z"/>
</g>
<g>
</g>
<g>
</g>
<g>
</g>
<g>
</g>
<g>
</g>
<g>
</g>
<g>
</g>
<g>
</g>
<g>
</g>
<g>
</g>
<g>
</g>
<g>
</g>
<g>
</g>
<g>
</g>
<g>
</g>
</svg>
