<?xml version="1.0" encoding="iso-8859-1"?>
<!-- Generator: Adobe Illustrator 19.0.0, SVG Export Plug-In . SVG Version: 6.00 Build 0)  -->
<svg version="1.1" id="Layer_1" xmlns="http://www.w3.org/2000/svg" xmlns:xlink="http://www.w3.org/1999/xlink" x="0px" y="0px"
	 viewBox="0 0 512 512" style="enable-background:new 0 0 512 512;" xml:space="preserve">
<g>
	<path d="M256,421c69.307,0,125.911-52.685,133.484-120H122.516C130.089,368.315,186.693,421,256,421z M202.973,332.802
		c5.859-5.83,15.366-5.845,21.226,0.015c16.963,17.021,46.641,17.021,63.604,0c5.859-5.859,15.366-5.845,21.226-0.015
		c5.859,5.859,5.859,15.352,0.015,21.226C294.877,368.192,276.054,376,256,376s-38.877-7.808-53.042-21.973
		C197.113,348.153,197.113,338.661,202.973,332.802z"/>
	<path d="M256,91c-46.701,0-87.898,23.859-112.147,60h224.293C343.898,114.859,302.701,91,256,91z"/>
	<path d="M121,226v45h270v-45c0-15.855-3.25-30.855-8.293-45H129.293C124.25,195.145,121,210.145,121,226z M316,211
		c8.284,0,15,6.716,15,15s-6.716,15-15,15s-15-6.716-15-15S307.716,211,316,211z M196,211c8.284,0,15,6.716,15,15s-6.716,15-15,15
		s-15-6.716-15-15S187.716,211,196,211z"/>
	<path d="M256,0C131.928,0,31,101.928,31,226v271c0,8.291,6.709,15,15,15h420c8.291,0,15-6.709,15-15V226
		C481,101.928,380.072,0,256,0z M421,286c0,90.981-74.019,165-165,165S91,376.981,91,286v-60c0-89.8,73.167-165,165-165
		c91.564,0,165,74.908,165,165V286z"/>
</g>
<g>
</g>
<g>
</g>
<g>
</g>
<g>
</g>
<g>
</g>
<g>
</g>
<g>
</g>
<g>
</g>
<g>
</g>
<g>
</g>
<g>
</g>
<g>
</g>
<g>
</g>
<g>
</g>
<g>
</g>
</svg>
