<?xml version="1.0" encoding="iso-8859-1"?>
<!-- Generator: Adobe Illustrator 19.0.0, SVG Export Plug-In . SVG Version: 6.00 Build 0)  -->
<svg version="1.1" id="Layer_1" xmlns="http://www.w3.org/2000/svg" xmlns:xlink="http://www.w3.org/1999/xlink" x="0px" y="0px"
	 viewBox="0 0 512.011 512.011" style="enable-background:new 0 0 512.011 512.011;" xml:space="preserve">
<g>
	<path d="M496.303,401.053c9.648-10.657,15.703-24.628,15.703-40.047c0-22.029-12.294-41.699-30.793-52.165
		c0.342-2.591,0.793-5.153,0.793-7.835c0-33.091-27.909-60-61-60v-15c0-61.657-35.327-117.759-88.585-145.893l1.236,6.176
		c4.658,23.394-1.333,47.344-16.436,65.742c-15.088,18.413-37.397,28.975-61.216,28.975s-46.128-10.562-61.23-28.989
		c-15.088-18.369-21.079-42.334-16.436-65.698l1.241-6.2c-53.254,28.136-88.575,84.234-88.575,145.887v15c-33.091,0-61,26.909-61,60
		c0,2.682,0.45,5.244,0.793,7.835c-18.499,10.466-30.793,30.135-30.793,52.165c0,15.419,6.055,29.39,15.703,40.047L1.588,429.297
		c-3.706,7.412-0.703,16.421,6.709,20.127c7.487,3.718,16.441,0.642,20.127-6.709l12.556-25.111
		c6.017,2.042,12.343,3.402,19.026,3.402c15.901,0,31.3-6,41.8-16.5c23.701,62.098,84,107.5,154.2,107.5s130.499-45.401,154.2-107.5
		c10.499,10.499,25.899,16.5,41.8,16.5c6.683,0,13.01-1.36,19.026-3.402l12.556,25.111c3.686,7.351,12.64,10.427,20.127,6.709
		c7.412-3.706,10.415-12.715,6.709-20.127L496.303,401.053z M60.006,391.006c-16.5,0-30-13.5-30-30c0-9.712,4.774-18.521,12.301-24
		c10.963,14.485,29.169,24,48.699,24C91.006,377.505,76.505,391.006,60.006,391.006z M309.106,399.104
		c-14.101,14.101-33.001,21.901-53.101,21.901s-39-7.8-53.101-21.901c-5.7-5.999-5.7-15.298,0-21.299c6-5.7,15.3-5.7,21.301,0
		c17.1,17.1,46.5,17.1,63.6,0c6-5.7,15.3-5.7,21.301,0C314.806,383.806,314.806,393.106,309.106,399.104z M376.006,361.006h-30
		c-36.301,0-66.599-25.8-73.5-60h-32.999c-6.901,34.2-37.2,60-73.5,60h-30c-24.849,0-45-20.775-45-45v-30c0-24.814,20.186-45,45-45
		h60c19.53,0,36.024,12.578,42.237,30h35.526c6.213-17.422,22.707-30,42.237-30h60c24.814,0,45,20.186,45,45v30
		C421.006,340.137,400.984,361.006,376.006,361.006z M421.006,361.006c19.53,0,37.736-9.514,48.699-24
		c7.527,5.479,12.301,14.288,12.301,24c0,16.5-13.5,30-30,30S421.006,377.505,421.006,361.006z"/>
	<path d="M196.006,271.006h-60c-8.276,0-15,6.724-15,15v30c0,8.276,6.724,15,15,15h30c24.814,0,45-20.186,45-45
		C211.006,277.729,204.282,271.006,196.006,271.006z"/>
	<path d="M376.006,271.006h-60c-8.276,0-15,6.724-15,15c0,24.814,20.186,45,45,45h30c8.276,0,15-6.724,15-15v-30
		C391.006,277.729,384.282,271.006,376.006,271.006z"/>
	<path d="M256.006,150.006c14.795,0,28.652-6.563,38.027-18.003c9.39-11.44,13.096-26.323,10.21-40.825L291.894,29.42
		c-3.413-17.036-18.516-29.414-35.889-29.414S223.53,12.384,220.117,29.42l-12.349,61.743c-2.886,14.517,0.82,29.399,10.21,40.84
		C227.353,143.443,241.211,150.006,256.006,150.006z"/>
</g>
<g>
</g>
<g>
</g>
<g>
</g>
<g>
</g>
<g>
</g>
<g>
</g>
<g>
</g>
<g>
</g>
<g>
</g>
<g>
</g>
<g>
</g>
<g>
</g>
<g>
</g>
<g>
</g>
<g>
</g>
</svg>
