<?xml version="1.0" encoding="iso-8859-1"?>
<!-- Generator: Adobe Illustrator 19.0.0, SVG Export Plug-In . SVG Version: 6.00 Build 0)  -->
<svg version="1.1" id="Layer_1" xmlns="http://www.w3.org/2000/svg" xmlns:xlink="http://www.w3.org/1999/xlink" x="0px" y="0px"
	 viewBox="0 0 512 512" style="enable-background:new 0 0 512 512;" xml:space="preserve">
<g>
	<path d="M31,271c0,22.114,12.153,41.25,30,51.656V219.344C43.153,229.75,31,248.886,31,271z"/>
	<path d="M376,0c-11.514,0-22.031,4.351-30,11.484c-17.105-15.313-42.895-15.313-60,0c-17.105-15.313-42.895-15.313-60,0
		c-17.105-15.313-42.895-15.313-60,0C158.031,4.351,147.514,0,136,0c-24.814,0-45,20.186-45,45v113.789l64.395-64.395
		c5.083-5.068,13.008-5.859,18.926-1.875c49.629,33.076,113.73,33.076,163.359,0c5.903-3.999,13.843-3.193,18.926,1.875L421,158.789
		V45C421,20.186,400.814,0,376,0z"/>
	<path d="M168.227,123.999L91,201.218V347c0,90.981,74.019,165,165,165s165-74.019,165-165V201.216l-77.227-77.217
		C289.281,155.112,222.719,155.112,168.227,123.999z M181,257c0-8.286,6.716-15,15-15s15,6.714,15,15c0,8.284-6.716,15-15,15
		S181,265.284,181,257z M309.042,400.027C294.877,414.192,276.054,422,256,422s-38.877-7.808-53.042-21.973
		c-5.845-5.874-5.845-15.366,0.015-21.226c5.859-5.83,15.366-5.845,21.226,0.015c16.963,17.021,46.641,17.021,63.604,0
		c5.859-5.859,15.366-5.845,21.226-0.015C314.887,384.661,314.887,394.153,309.042,400.027z M316,272c-8.284,0-15-6.716-15-15
		c0-8.286,6.716-15,15-15s15,6.714,15,15C331,265.284,324.284,272,316,272z"/>
	<path d="M451,219.344v103.312c17.847-10.406,30-29.542,30-51.656S468.847,229.75,451,219.344z"/>
</g>
<g>
</g>
<g>
</g>
<g>
</g>
<g>
</g>
<g>
</g>
<g>
</g>
<g>
</g>
<g>
</g>
<g>
</g>
<g>
</g>
<g>
</g>
<g>
</g>
<g>
</g>
<g>
</g>
<g>
</g>
</svg>
