<?xml version="1.0" encoding="iso-8859-1"?>
<!-- Generator: Adobe Illustrator 19.0.0, SVG Export Plug-In . SVG Version: 6.00 Build 0)  -->
<svg version="1.1" id="Layer_1" xmlns="http://www.w3.org/2000/svg" xmlns:xlink="http://www.w3.org/1999/xlink" x="0px" y="0px"
	 viewBox="0 0 512 512" style="enable-background:new 0 0 512 512;" xml:space="preserve">
<g>
	<path d="M504.954,152.285l-241-150c-4.863-3.047-11.045-3.047-15.908,0l-241,150c-5.669,3.545-8.306,10.415-6.46,16.846
		S8.306,180,15,180h482c6.694,0,12.568-4.438,14.414-10.869S510.623,155.83,504.954,152.285z"/>
	<path d="M91,346c0,90.981,74.019,166,165,166s165-75.019,165-166V211H91V346z M316,241c8.284,0,15,6.714,15,15
		c0,8.284-6.716,15-15,15s-15-6.716-15-15C301,247.714,307.716,241,316,241z M275.395,305.395c5.859-5.859,15.352-5.859,21.211,0
		l30,30c5.859,5.859,5.859,15.352,0,21.211s-15.352,5.859-21.211,0l-30-30C269.535,320.746,269.535,311.254,275.395,305.395z
		 M287.802,378.816c5.859-5.859,15.366-5.845,21.226-0.015c5.859,5.859,5.859,15.352,0.015,21.226
		C294.877,414.192,276.054,422,256,422s-38.877-7.808-53.042-21.973c-5.845-5.874-5.845-15.366,0.015-21.226
		c5.859-5.83,15.366-5.845,21.226,0.015C241.161,395.838,270.839,395.838,287.802,378.816z M196,241c8.284,0,15,6.714,15,15
		c0,8.284-6.716,15-15,15s-15-6.716-15-15C181,247.714,187.716,241,196,241z M185.395,335.395l30-30
		c5.859-5.859,15.352-5.859,21.211,0s5.859,15.352,0,21.211l-30,30c-5.859,5.859-15.352,5.859-21.211,0
		S179.535,341.254,185.395,335.395z"/>
	<path d="M451,219.344v103.312c17.847-10.406,30-29.542,30-51.656S468.847,229.75,451,219.344z"/>
	<path d="M31,271c0,22.114,12.153,41.25,30,51.656V219.344C43.153,229.75,31,248.886,31,271z"/>
</g>
<g>
</g>
<g>
</g>
<g>
</g>
<g>
</g>
<g>
</g>
<g>
</g>
<g>
</g>
<g>
</g>
<g>
</g>
<g>
</g>
<g>
</g>
<g>
</g>
<g>
</g>
<g>
</g>
<g>
</g>
</svg>
