<?xml version="1.0" encoding="iso-8859-1"?>
<!-- Generator: Adobe Illustrator 19.0.0, SVG Export Plug-In . SVG Version: 6.00 Build 0)  -->
<svg version="1.1" id="Layer_1" xmlns="http://www.w3.org/2000/svg" xmlns:xlink="http://www.w3.org/1999/xlink" x="0px" y="0px"
	 viewBox="0 0 512.007 512.007" style="enable-background:new 0 0 512.007 512.007;" xml:space="preserve">
<g>
	<path d="M420.55,215.384c11.382,3.992,21.669,10.102,30.45,18.021V123.864C451,63.41,407.992,10.851,350.951,1.608
		c-37.817-6.119-74.324,5.685-100.829,30.042C343.14,43.204,415.886,120.433,420.55,215.384z"/>
	<path d="M503.709,392.579c-17.236-8.622-31.78-22.04-40.739-38.097c-11.446,15.357-27.61,26.744-46.39,32.362
		c-2.538,11.801-6.059,23.242-10.624,34.153H497c6.958,0,12.993-4.79,14.604-11.558
		C513.201,402.672,509.935,395.699,503.709,392.579z"/>
	<path d="M288.946,127.376c6.476-15.948,9.474-32.413,9.717-49.019c-22.61-11.27-48.065-17.629-75.015-17.349
		c-85.913,0.899-155.927,67.665-162.664,151.708l104.235-1.089C219.84,211.057,268.409,177.985,288.946,127.376z"/>
	<path d="M327.133,96.318c-1.699,14.348-4.788,28.566-10.382,42.341c-25.107,61.848-84.468,102.27-151.218,102.966l-104.995,1.097
		l1.097,105.995c0.95,90.978,75.738,164.218,166.716,163.268c90.976-0.95,164.216-75.738,163.266-166.714l-1.252-120.995
		C389.821,172.303,365.124,126.188,327.133,96.318z M151.004,286.78c-0.086-8.286,6.559-15.07,14.843-15.157
		c8.284-0.086,15.07,6.559,15.156,14.843c0.088,8.284-6.559,15.07-14.843,15.157C157.877,301.709,151.09,295.062,151.004,286.78z
		 M280.219,399.464c-14.017,14.312-32.756,22.315-52.809,22.526c-20.052,0.209-38.956-7.401-53.269-21.418
		c-5.905-5.814-6.004-15.304-0.207-21.224c5.799-5.892,15.304-6.006,21.226-0.209c17.139,16.844,46.815,16.534,63.6-0.663
		c5.797-5.922,15.304-6.006,21.224-0.236C285.903,384.037,286.004,393.529,280.219,399.464z M286.154,300.369
		c-8.284,0.086-15.07-6.559-15.156-14.843c-0.088-8.286,6.559-15.07,14.843-15.156c8.282-0.086,15.068,6.557,15.156,14.843
		C301.082,293.497,294.437,300.283,286.154,300.369z"/>
	<path d="M421,345.997v6.584c17.831-10.408,30-29.487,30-51.584c0-22.114-12.153-41.25-30-51.656V345.997z"/>
	<path d="M0,300.997c0,22.114,12.153,41.25,30,51.656V249.341C12.153,259.747,0,278.883,0,300.997z"/>
</g>
<g>
</g>
<g>
</g>
<g>
</g>
<g>
</g>
<g>
</g>
<g>
</g>
<g>
</g>
<g>
</g>
<g>
</g>
<g>
</g>
<g>
</g>
<g>
</g>
<g>
</g>
<g>
</g>
<g>
</g>
</svg>
