<?xml version="1.0" encoding="iso-8859-1"?>
<!-- Generator: Adobe Illustrator 19.0.0, SVG Export Plug-In . SVG Version: 6.00 Build 0)  -->
<svg version="1.1" id="Layer_1" xmlns="http://www.w3.org/2000/svg" xmlns:xlink="http://www.w3.org/1999/xlink" x="0px" y="0px"
	 viewBox="0 0 512 512" style="enable-background:new 0 0 512 512;" xml:space="preserve">
<g>
	<path d="M391,240H121v107c0,74.443,60.557,135,135,135s135-60.557,135-135V240z M181,285c0-8.286,6.716-15,15-15s15,6.714,15,15
		c0,8.284-6.716,15-15,15S181,293.284,181,285z M309.042,400.027C294.877,414.192,276.054,422,256,422s-38.877-7.808-53.042-21.973
		c-5.845-5.874-5.845-15.366,0.015-21.226c5.859-5.83,15.366-5.845,21.226,0.015c16.963,17.021,46.641,17.021,63.604,0
		c5.859-5.859,15.366-5.845,21.226-0.015C314.887,384.661,314.887,394.153,309.042,400.027z M316,300c-8.284,0-15-6.716-15-15
		c0-8.286,6.716-15,15-15s15,6.714,15,15C331,293.284,324.284,300,316,300z"/>
	<rect x="121" y="180" width="270" height="30"/>
	<path d="M256,0C115.39,0,0,114.39,0,255v242c0,8.291,6.709,15,15,15h241c-90.981,0-165-74.019-165-165
		c0-103.156,0-135.127,0-142.625c0-1.545,0-2.206,0-2.28c0-3.924,0-13.903,0-37.095c0-8.291,6.709-15,15-15h135v-30h-15
		c-8.291,0-15-6.709-15-15s6.709-15,15-15h15V75c0-8.291,6.709-15,15-15s15,6.709,15,15v15h15c8.291,0,15,6.709,15,15
		s-6.709,15-15,15h-15v30h135c8.291,0,15,6.709,15,15c0,23.242,0,33.215,0,37.121c0,1.747,0,2.307,0,2.249
		c0,7.434,0,39.306,0,142.63c0,90.981-74.019,165-165,165h241c8.291,0,15-6.709,15-15V255C512,114.39,396.61,0,256,0z"/>
</g>
<g>
</g>
<g>
</g>
<g>
</g>
<g>
</g>
<g>
</g>
<g>
</g>
<g>
</g>
<g>
</g>
<g>
</g>
<g>
</g>
<g>
</g>
<g>
</g>
<g>
</g>
<g>
</g>
<g>
</g>
</svg>
