<?xml version="1.0" encoding="iso-8859-1"?>
<!-- Generator: Adobe Illustrator 19.0.0, SVG Export Plug-In . SVG Version: 6.00 Build 0)  -->
<svg version="1.1" id="Layer_1" xmlns="http://www.w3.org/2000/svg" xmlns:xlink="http://www.w3.org/1999/xlink" x="0px" y="0px"
	 viewBox="0 0 512 512" style="enable-background:new 0 0 512 512;" xml:space="preserve">
<g>
	<path d="M271,121.76V75c0-24.814,20.186-45,45-45s45,20.186,45,45c0,8.276-6.724,15-15,15s-15-6.724-15-15c0-8.291-6.709-15-15-15
		s-15,6.709-15,15c0,24.814,20.186,45,45,45s45-20.186,45-45c0-41.353-33.647-75-75-75s-75,33.647-75,75v46.76
		C157.031,129.373,91,200.081,91,286v90c0,74.443,60.557,136,135,136h60c74.443,0,135-61.557,135-136v-90
		C421,200.081,354.969,129.373,271,121.76z M181,286c0-8.286,6.716-15,15-15s15,6.714,15,15c0,8.284-6.716,15-15,15
		S181,294.284,181,286z M309.042,399.027C294.877,413.192,276.054,421,256,421s-38.877-7.808-53.042-21.973
		c-5.845-5.874-5.845-15.366,0.015-21.226c5.859-5.83,15.366-5.845,21.226,0.015c16.963,17.021,46.641,17.021,63.604,0
		c5.859-5.859,15.366-5.845,21.226-0.015C314.887,383.661,314.887,393.153,309.042,399.027z M316,301c-8.284,0-15-6.716-15-15
		c0-8.286,6.716-15,15-15s15,6.714,15,15C331,294.284,324.284,301,316,301z"/>
	<path d="M31,301c0,22.114,12.153,41.25,30,51.656V286c0-13.275,1.357-26.237,3.896-38.774C44.912,256.97,31,277.306,31,301z"/>
	<path d="M447.104,247.226C449.643,259.763,451,272.725,451,286v66.656c17.847-10.406,30-29.542,30-51.656
		C481,277.306,467.088,256.97,447.104,247.226z"/>
</g>
<g>
</g>
<g>
</g>
<g>
</g>
<g>
</g>
<g>
</g>
<g>
</g>
<g>
</g>
<g>
</g>
<g>
</g>
<g>
</g>
<g>
</g>
<g>
</g>
<g>
</g>
<g>
</g>
<g>
</g>
</svg>
