<?xml version="1.0" encoding="iso-8859-1"?>
<!-- Generator: Adobe Illustrator 19.0.0, SVG Export Plug-In . SVG Version: 6.00 Build 0)  -->
<svg version="1.1" id="Layer_1" xmlns="http://www.w3.org/2000/svg" xmlns:xlink="http://www.w3.org/1999/xlink" x="0px" y="0px"
	 viewBox="0 0 512.013 512.013" style="enable-background:new 0 0 512.013 512.013;" xml:space="preserve">
<g>
	<path d="M503.715,121.589l-241-120c-4.219-2.109-9.199-2.109-13.418,0l-241,120c-6.226,3.105-9.492,10.093-7.896,16.86
		s7.646,11.558,14.604,11.558h482c6.958,0,13.008-4.79,14.604-11.558C513.208,131.681,509.941,124.694,503.715,121.589z"/>
	<path d="M91.766,361.007h-0.76c-33.091,0-60-26.909-60-60v196c0,8.291,6.709,15,15,15h210
		C170.088,512.007,99.38,444.975,91.766,361.007z"/>
	<path d="M91.007,241.007L91.007,241.007h40.137c42.964,0,81.694-23.408,101.968-60l0,0H31.007v120
		C31.007,267.916,57.916,241.007,91.007,241.007z"/>
	<path d="M421.007,361.007h-0.76c-7.614,83.969-78.322,151-164.24,151h210c8.291,0,15-6.709,15-15v-196
		C481.007,334.097,454.097,361.007,421.007,361.007z"/>
	<path d="M121.007,271.007v75c0,74.443,60.557,136,135,136s135-61.557,135-136v-75H380.87c-51.989,0-98.685-27.519-124.863-70.565
		c-26.179,43.046-72.874,70.565-124.863,70.565H121.007z M316.007,301.007c8.284,0,15,6.714,15,15c0,8.284-6.716,15-15,15
		s-15-6.716-15-15C301.007,307.721,307.723,301.007,316.007,301.007z M224.205,378.823c16.963,17.021,46.641,17.021,63.604,0
		c5.859-5.859,15.366-5.845,21.226-0.015c5.859,5.859,5.859,15.352,0.015,21.226c-14.165,14.165-32.988,21.973-53.042,21.973
		s-38.877-7.808-53.042-21.973c-5.845-5.874-5.845-15.366,0.015-21.226C208.839,372.978,218.345,372.964,224.205,378.823z
		 M196.007,301.007c8.284,0,15,6.714,15,15c0,8.284-6.716,15-15,15s-15-6.716-15-15
		C181.007,307.721,187.723,301.007,196.007,301.007z"/>
	<path d="M421.007,271.007v60c16.538,0,30-13.462,30-30S437.545,271.007,421.007,271.007z"/>
	<path d="M91.007,331.007v-60c-16.538,0-30,13.462-30,30S74.468,331.007,91.007,331.007z"/>
	<path d="M278.902,181.007c20.273,36.592,59.004,60,101.968,60h40.137l0,0c33.091,0,60,26.909,60,60v-120l0,0H278.902z"/>
</g>
<g>
</g>
<g>
</g>
<g>
</g>
<g>
</g>
<g>
</g>
<g>
</g>
<g>
</g>
<g>
</g>
<g>
</g>
<g>
</g>
<g>
</g>
<g>
</g>
<g>
</g>
<g>
</g>
<g>
</g>
</svg>
