<?xml version="1.0" encoding="iso-8859-1"?>
<!-- Generator: Adobe Illustrator 19.0.0, SVG Export Plug-In . SVG Version: 6.00 Build 0)  -->
<svg version="1.1" id="Layer_1" xmlns="http://www.w3.org/2000/svg" xmlns:xlink="http://www.w3.org/1999/xlink" x="0px" y="0px"
	 viewBox="0 0 512.003 512.003" style="enable-background:new 0 0 512.003 512.003;" xml:space="preserve">
<g>
	<path d="M151.002,136.003v-15h15c24.814,0,45-20.186,45-45s-20.186-45-45-45c-12.898,0-19.514,4.422-30,10.576
		c-10.486-6.154-17.102-10.576-30-10.576c-24.814,0-45,20.186-45,45c0,12.898,4.422,19.514,10.576,30
		c-6.154,10.486-10.576,17.102-10.576,30c0,24.814,20.186,45,45,45S151.002,160.818,151.002,136.003z"/>
	<path d="M314.464,96.463c-10.272-18.241-14.529-38.28-13.149-58.583L238.23,55.906c1.421,5.354,2.329,10.891,2.574,16.615
		l0.491,2.454c15.645,78.237,84.917,135.029,164.707,135.029h17.3l9.066-63.463c-8.509,2.208-17.336,3.463-26.365,3.463
		C368.136,150.003,333.053,129.496,314.464,96.463z"/>
	<path d="M431.886,0.575l-98.45,28.129c-3.851,18.45-1.967,36.837,7.161,53.038c13.301,23.599,38.35,38.262,65.405,38.262
		c11.076,0,21.52-3.005,31.227-7.495l13.627-95.381c0.718-5.039-1.157-10.093-4.995-13.433S436.749-0.817,431.886,0.575z"/>
	<path d="M225.013,121.946c-11.052,14.165-26.926,24.386-45.271,27.797c-6.475,34.819-37.075,61.26-73.74,61.26
		c-4.841,0-9.547-0.549-14.136-1.43c-0.54,5.449-0.864,10.931-0.864,16.43v121c0,90.981,74.019,165,165,165s165-74.019,165-165v-106
		h-15C326.329,241.003,255.987,192.7,225.013,121.946z M256.002,302.003c24.814,0,45,20.186,45,45s-20.186,45-45,45
		s-45-20.186-45-45S231.187,302.003,256.002,302.003z M181.002,287.003c0-8.286,6.716-15,15-15s15,6.714,15,15
		c0,8.284-6.716,15-15,15S181.002,295.287,181.002,287.003z M309.044,430.031c-14.165,14.165-32.988,21.973-53.042,21.973
		s-38.877-7.808-53.042-21.973c-5.845-5.874-5.845-15.366,0.015-21.226c5.859-5.83,15.366-5.845,21.226,0.015
		c16.963,17.021,46.641,17.021,63.604,0c5.859-5.859,15.366-5.845,21.226-0.015C314.888,414.665,314.888,424.157,309.044,430.031z
		 M316.002,302.003c-8.284,0-15-6.716-15-15c0-8.286,6.716-15,15-15s15,6.714,15,15
		C331.002,295.287,324.285,302.003,316.002,302.003z"/>
	<path d="M256.002,362.003c8.276,0,15-6.724,15-15s-6.724-15-15-15c-8.276,0-15,6.724-15,15S247.725,362.003,256.002,362.003z"/>
	<path d="M451.002,249.348c0,12.823,0,90.939,0,103.239c17.829-10.41,30-29.484,30-51.583
		C481.002,278.89,468.849,259.753,451.002,249.348z"/>
	<path d="M31.002,301.003c0,22.099,12.171,41.173,30,51.583c0-22.452,0-80.786,0-103.239
		C43.154,259.753,31.002,278.89,31.002,301.003z"/>
</g>
<g>
</g>
<g>
</g>
<g>
</g>
<g>
</g>
<g>
</g>
<g>
</g>
<g>
</g>
<g>
</g>
<g>
</g>
<g>
</g>
<g>
</g>
<g>
</g>
<g>
</g>
<g>
</g>
<g>
</g>
</svg>
