<?xml version="1.0" encoding="iso-8859-1"?>
<!-- Generator: Adobe Illustrator 19.0.0, SVG Export Plug-In . SVG Version: 6.00 Build 0)  -->
<svg version="1.1" id="Layer_1" xmlns="http://www.w3.org/2000/svg" xmlns:xlink="http://www.w3.org/1999/xlink" x="0px" y="0px"
	 viewBox="0 0 512 512" style="enable-background:new 0 0 512 512;" xml:space="preserve">
<g>
	<path d="M173.866,192.349c1.08-3.944,2.633-7.775,4.775-11.349c-8.174-13.638-8.774-30.82-0.586-45
		c8.057-13.945,22.896-22.002,38.511-22.002c0.249,0,0.498,0.015,0.762,0.015C225.048,100.111,239.638,91,256,91
		s30.952,9.111,38.672,23.013c16.362-0.615,31.069,7.808,39.272,21.987c8.188,14.18,7.588,31.362-0.586,45
		c2.164,3.609,3.715,7.48,4.794,11.466c24.796,14.447,54.205,20.272,83.033,17.465C413.077,126.469,341.556,61,256,61
		c-85.505,0-156.997,65.385-165.178,148.775C119.535,212.657,148.755,207.03,173.866,192.349z"/>
	<path d="M307.958,151c-3.501-6.094-10.854-8.599-17.93-6.035c-8.934,3.135-18.197-2.446-19.834-11.455
		C268.861,126.142,263.031,121,256,121s-12.861,5.142-14.194,12.51c-1.657,9.119-11.063,14.566-19.834,11.455
		c-7.061-2.607-14.414-0.073-17.93,6.035c-3.516,6.094-1.978,13.711,3.735,18.545c7.059,6.011,7.059,16.899,0,22.91
		c-5.713,4.834-7.251,12.451-3.735,18.545c3.53,6.108,10.928,8.628,17.93,6.035c8.692-3.104,18.162,2.261,19.834,11.455
		C243.139,235.858,248.969,241,256,241s12.861-5.142,14.194-12.51c1.648-9.066,11.008-14.614,19.834-11.455
		c7.017,2.534,14.414,0.059,17.93-6.035s1.978-13.711-3.735-18.545c-7.059-6.011-7.059-16.899,0-22.91
		C309.936,164.711,311.474,157.094,307.958,151z M256,196c-8.284,0-15-6.716-15-15s6.716-15,15-15s15,6.716,15,15
		S264.284,196,256,196z"/>
	<path d="M323.09,42.144C310.858,17.292,285.517,0,256,0s-54.858,17.291-67.09,42.144C209.867,34.427,232.4,30,256,30
		S302.133,34.427,323.09,42.144z"/>
	<path d="M481.209,308.817c0.341-2.585,0.791-5.14,0.791-7.817c0-33.091-26.909-60-60-60v-1.509
		c-5.013,0.439-10.047,1.45-15.029,1.45c-24.835,0-50.078-5.649-72.426-16.417c-0.253,0.478-0.328,1.003-0.601,1.476
		c-8.203,14.165-23.071,21.606-39.272,21.987C286.952,261.889,272.362,271,256,271s-30.952-9.111-38.672-23.013
		c-17.344-0.22-31.084-7.808-39.272-21.987c-0.267-0.461-0.341-0.978-0.588-1.445c-22.441,10.897-47.467,16.527-72.041,16.531
		c-0.15-0.004-0.275-0.086-0.427-0.086h-0.701c-4.744-0.097-9.527-0.712-14.299-1.146V241c-33.091,0-60,26.909-60,60
		c0,2.677,0.45,5.231,0.791,7.817C12.206,319.252,0,338.98,0,361c0,33.091,26.909,60,60,60c15.866,0,30.211-6.301,40.952-16.388
		C124.66,466.703,185.68,512,256,512s131.34-45.297,155.048-107.388C421.789,414.699,436.134,421,452,421c33.091,0,60-26.909,60-60
		C512,338.98,499.794,319.252,481.209,308.817z M60,391c-16.538,0-30-13.462-30-30c0-9.714,4.812-18.474,12.29-24.012
		C53.253,351.48,70.464,361,90,361C90,377.538,76.538,391,60,391z M181,286c0-8.284,6.716-15,15-15s15,6.716,15,15s-6.716,15-15,15
		S181,294.284,181,286z M309.042,399.027C294.877,413.192,276.054,421,256,421s-38.877-7.808-53.042-21.973
		c-5.845-5.874-5.845-15.366,0.015-21.226c5.859-5.83,15.366-5.845,21.226,0.015c16.963,17.021,46.641,17.021,63.604,0
		c5.859-5.859,15.366-5.845,21.226-0.015C314.887,383.661,314.887,393.153,309.042,399.027z M316,301c-8.284,0-15-6.716-15-15
		s6.716-15,15-15s15,6.716,15,15S324.284,301,316,301z M452,391c-16.538,0-30-13.462-30-30c19.536,0,36.747-9.52,47.71-24.012
		C477.188,342.526,482,351.286,482,361C482,377.538,468.538,391,452,391z"/>
</g>
<g>
</g>
<g>
</g>
<g>
</g>
<g>
</g>
<g>
</g>
<g>
</g>
<g>
</g>
<g>
</g>
<g>
</g>
<g>
</g>
<g>
</g>
<g>
</g>
<g>
</g>
<g>
</g>
<g>
</g>
</svg>
