<?xml version="1.0" encoding="iso-8859-1"?>
<!-- Generator: Adobe Illustrator 19.0.0, SVG Export Plug-In . SVG Version: 6.00 Build 0)  -->
<svg version="1.1" id="Layer_1" xmlns="http://www.w3.org/2000/svg" xmlns:xlink="http://www.w3.org/1999/xlink" x="0px" y="0px"
	 viewBox="0 0 512 512" style="enable-background:new 0 0 512 512;" xml:space="preserve">
<g>
	<path d="M256,31c-63.964,0-119.416,36.658-146.785,90h293.569C375.416,67.658,319.964,31,256,31z"/>
	<path d="M232.839,151H97.396C93.324,165.328,91,180.385,91,196v15h40.195C174.002,211,212.494,187.519,232.839,151z"/>
	<path d="M0,331v22.295c0,4.329,3.739,7.731,8.047,7.313c9.593-0.928,18.961-3.479,27.761-7.3C31.667,340.079,30,327.295,30,316
		c0-24.738,7.961-46.688,16.573-63.338C18.948,268.045,0,297.199,0,331z"/>
	<path d="M96.98,248.614c-2.927-4.085-9.002-4.089-11.933-0.007C76.271,260.83,61,286.357,61,316
		c0,23.97,10.571,49.334,23.877,67.403c2.956,4.015,9.001,3.967,11.891-0.095C110.995,363.325,121,340.661,121,316
		C121,286.363,105.734,260.839,96.98,248.614z"/>
	<path d="M481.209,278.817c0.341-2.585,0.791-5.14,0.791-7.817c0-33.091-27.909-60-61-60v-15c0-15.615-2.324-30.672-6.396-45
		H265.868c-22.809,54.122-75.361,90-134.672,90h-3.29C138.769,258.47,151,284.9,151,316c0,42.367-23.036,76.474-33.122,89.427
		C147.827,451.599,199.234,481,256,481c70.32,0,130.34-44.297,154.048-106.388C420.789,384.699,436.134,391,452,391
		c33.091,0,60-26.909,60-60C512,308.98,499.794,289.252,481.209,278.817z M181,256c0-8.284,6.716-15,15-15s15,6.716,15,15
		s-6.716,15-15,15S181,264.284,181,256z M309.042,369.027C294.877,383.192,276.054,391,256,391s-38.877-7.808-53.042-21.973
		c-5.845-5.874-5.845-15.366,0.015-21.226c5.859-5.83,15.366-5.845,21.226,0.015c16.963,17.021,46.641,17.021,63.604,0
		c5.859-5.859,15.366-5.845,21.226-0.015C314.887,353.661,314.887,363.153,309.042,369.027z M316,271c-8.284,0-15-6.716-15-15
		s6.716-15,15-15s15,6.716,15,15S324.284,271,316,271z M452,361c-16.538,0-31-13.462-31-30c19.536,0,37.747-9.52,48.71-24.012
		C477.188,312.526,482,321.286,482,331C482,347.538,468.538,361,452,361z"/>
</g>
<g>
</g>
<g>
</g>
<g>
</g>
<g>
</g>
<g>
</g>
<g>
</g>
<g>
</g>
<g>
</g>
<g>
</g>
<g>
</g>
<g>
</g>
<g>
</g>
<g>
</g>
<g>
</g>
<g>
</g>
</svg>
