<?xml version="1.0" encoding="iso-8859-1"?>
<!-- Generator: Adobe Illustrator 19.0.0, SVG Export Plug-In . SVG Version: 6.00 Build 0)  -->
<svg version="1.1" id="Layer_1" xmlns="http://www.w3.org/2000/svg" xmlns:xlink="http://www.w3.org/1999/xlink" x="0px" y="0px"
	 viewBox="0 0 512.249 512.249" style="enable-background:new 0 0 512.249 512.249;" xml:space="preserve">
<g>
	<path d="M391.125,316.249c0-24.814-20.186-45-45-45s-45,20.186-45,45s20.186,45,45,45S391.125,341.063,391.125,316.249z"/>
	<path d="M461.686,170.171c6.797-40.737-16.406-80.903-55.093-95.391c-14.473-38.672-54.551-61.802-95.391-55.093
		c-31.875-26.25-78.281-26.25-110.156,0c-40.708-6.826-80.918,16.406-95.391,55.093c-38.687,14.487-61.89,54.653-55.093,95.391
		c-20.68,25.122-24.807,59.158-12.905,88.094c8.419-6.273,17.948-10.942,28.259-13.978c13.433-63.3,57.008-116.396,119.28-140.737
		c4.424-1.729,4.177-1.791,7.983-2.648c9.644-2.228,17.704,5.149,18.237,13.37c4.658,70.635,63.823,125.977,134.707,125.977h75
		c20.092,0,38.474,6.846,53.467,18.016C486.493,229.329,482.366,195.293,461.686,170.171z"/>
	<path d="M166.125,241.249c36.216,0,66.513,25.809,73.482,60h33.036c3.082-15.123,10.798-28.521,21.502-38.855
		c-55.248-18.646-97.744-65.782-109.277-124.501c-57.189,27.398-93.743,84.1-93.743,148.356v18.757v11.243
		C91.125,274.896,124.772,241.249,166.125,241.249z"/>
	<path d="M121.125,316.249c0,24.814,20.186,45,45,45s45-20.186,45-45s-20.186-45-45-45S121.125,291.435,121.125,316.249z"/>
	<path d="M346.125,391.249c-36.216,0-66.513-25.809-73.482-60h-33.036c-6.969,34.191-37.266,60-73.482,60c-41.353,0-75-33.647-75-75
		v91c0,57.891,47.109,105,105,105h47.886h72.114c57.891,0,105-47.109,105-105v-91C421.125,357.602,387.477,391.249,346.125,391.249z
		 M309.167,430.276c-14.165,14.165-32.988,21.973-53.042,21.973s-38.877-7.808-53.042-21.973
		c-5.845-5.874-5.845-15.366,0.015-21.226c5.859-5.83,15.366-5.845,21.226,0.015c16.963,17.021,46.641,17.021,63.604,0
		c5.859-5.859,15.366-5.845,21.226-0.015C315.011,414.91,315.011,424.402,309.167,430.276z"/>
	<path d="M31.125,331.249c0,22.114,12.153,41.25,30,51.656V279.593C43.277,289.999,31.125,309.135,31.125,331.249z"/>
	<path d="M451.125,279.593v103.312c17.847-10.406,30-29.542,30-51.656S468.972,289.999,451.125,279.593z"/>
	<path d="M421.125,316.249v-10.9v-34.1h-15.383C415.26,283.823,421.125,299.301,421.125,316.249z"/>
</g>
<g>
</g>
<g>
</g>
<g>
</g>
<g>
</g>
<g>
</g>
<g>
</g>
<g>
</g>
<g>
</g>
<g>
</g>
<g>
</g>
<g>
</g>
<g>
</g>
<g>
</g>
<g>
</g>
<g>
</g>
</svg>
