<?xml version="1.0" encoding="iso-8859-1"?>
<!-- Generator: Adobe Illustrator 19.0.0, SVG Export Plug-In . SVG Version: 6.00 Build 0)  -->
<svg version="1.1" id="Layer_1" xmlns="http://www.w3.org/2000/svg" xmlns:xlink="http://www.w3.org/1999/xlink" x="0px" y="0px"
	 viewBox="0 0 512 512" style="enable-background:new 0 0 512 512;" xml:space="preserve">
<g>
	<path d="M256,151.839c-25.708,50.742-76.245,85.181-134.121,89.663C121.293,246.644,121,251.829,121,257v60
		c0,57.891,47.109,105,105,105h60c57.891,0,105-47.109,105-105v-60c0-5.171-0.293-10.356-0.879-15.498
		C332.245,237.02,281.708,202.581,256,151.839z M181,257c0-8.286,6.716-15,15-15s15,6.714,15,15c0,8.284-6.716,15-15,15
		S181,265.284,181,257z M309.042,370.027C294.877,384.192,276.054,392,256,392s-38.877-7.808-53.042-21.973
		c-5.845-5.874-5.845-15.366,0.015-21.226c5.859-5.83,15.366-5.845,21.226,0.015c16.963,17.021,46.641,17.021,63.604,0
		c5.859-5.859,15.366-5.845,21.226-0.015C314.887,354.661,314.887,364.153,309.042,370.027z M316,272c-8.284,0-15-6.716-15-15
		c0-8.286,6.716-15,15-15s15,6.714,15,15C331,265.284,324.284,272,316,272z"/>
	<path d="M496.722,302C506.551,289.065,512,273.304,512,257c0-24.478-12.158-47.3-32.197-61.26C464.422,84.778,368.925,0,256,0
		S47.578,84.778,32.197,195.74C12.158,209.7,0,232.522,0,257c0,16.304,5.449,32.065,15.278,45C5.449,314.935,0,330.696,0,347
		s5.449,32.065,15.278,45C5.449,404.935,0,420.696,0,437c0,41.353,34.647,75,76,75h360c41.353,0,76-33.647,76-75
		c0-16.304-5.449-32.065-15.278-45C506.551,379.065,512,363.304,512,347S506.551,314.935,496.722,302z M421,317
		c0,74.443-60.557,135-135,135h-60c-74.443,0-135-60.557-135-135v-60c0-11.06,1.113-22.148,3.296-32.974
		c1.421-7.002,7.573-12.026,14.707-12.026c61.992,0,115.796-44.012,130.825-104.144l1.626-6.504c3.34-13.33,25.752-13.33,29.092,0
		l1.626,6.489C287.201,167.988,341.005,212,402.997,212c7.134,0,13.286,5.024,14.707,12.026C419.887,234.852,421,245.94,421,257V317
		z"/>
</g>
<g>
</g>
<g>
</g>
<g>
</g>
<g>
</g>
<g>
</g>
<g>
</g>
<g>
</g>
<g>
</g>
<g>
</g>
<g>
</g>
<g>
</g>
<g>
</g>
<g>
</g>
<g>
</g>
<g>
</g>
</svg>
