<?xml version="1.0" encoding="iso-8859-1"?>
<!-- Generator: Adobe Illustrator 19.0.0, SVG Export Plug-In . SVG Version: 6.00 Build 0)  -->
<svg version="1.1" id="Layer_1" xmlns="http://www.w3.org/2000/svg" xmlns:xlink="http://www.w3.org/1999/xlink" x="0px" y="0px"
	 viewBox="0 0 512 512" style="enable-background:new 0 0 512 512;" xml:space="preserve">
<g>
	<path d="M16,497c0,8.291,6.709,15,15,15h45V123.668c-38.035,39.911-60,93.051-60,149.496V497z"/>
	<polygon points="436,150 436,86.158 223.202,150 	"/>
	<path d="M106,285c0,90.981,74.019,166,165,166s165-75.019,165-166V180H106V285z M331,210c8.284,0,15,6.714,15,15
		c0,8.284-6.716,15-15,15s-15-6.716-15-15C316,216.714,322.716,210,331,210z M239.198,317.816c16.963,17.021,46.641,17.021,63.604,0
		c5.859-5.859,15.366-5.845,21.226-0.015c5.859,5.859,5.859,15.352,0.015,21.226C309.877,353.192,291.054,361,271,361
		s-38.877-7.808-53.042-21.973c-5.845-5.874-5.845-15.366,0.015-21.226C223.832,311.972,233.339,311.957,239.198,317.816z M211,210
		c8.284,0,15,6.714,15,15c0,8.284-6.716,15-15,15s-15-6.716-15-15C196,216.714,202.716,210,211,210z"/>
	<path d="M433.16,55.686C424.576,23.723,395.633,0,361,0H181c-41.353,0-75,33.647-75,75v75h12.794L433.16,55.686z"/>
	<path d="M466,158.344v103.312c17.847-10.406,30-29.542,30-51.656S483.847,168.75,466,158.344z"/>
</g>
<g>
</g>
<g>
</g>
<g>
</g>
<g>
</g>
<g>
</g>
<g>
</g>
<g>
</g>
<g>
</g>
<g>
</g>
<g>
</g>
<g>
</g>
<g>
</g>
<g>
</g>
<g>
</g>
<g>
</g>
</svg>
