<?xml version="1.0" encoding="iso-8859-1"?>
<!-- Generator: Adobe Illustrator 19.0.0, SVG Export Plug-In . SVG Version: 6.00 Build 0)  -->
<svg version="1.1" id="Layer_1" xmlns="http://www.w3.org/2000/svg" xmlns:xlink="http://www.w3.org/1999/xlink" x="0px" y="0px"
	 viewBox="0 0 512 512" style="enable-background:new 0 0 512 512;" xml:space="preserve">
<g>
	<path d="M316,181H196c-57.891,0-105,47.109-105,105v60c0,11.851,1.128,23.027,3.296,32.974C109.735,455.468,177.733,512,256,512
		s146.265-56.532,161.646-132.807C419.872,369.027,421,357.851,421,346v-60C421,228.109,373.891,181,316,181z M181,286
		c0-8.286,6.716-15,15-15s15,6.714,15,15c0,8.284-6.716,15-15,15S181,294.284,181,286z M309.042,399.027
		C294.877,413.192,276.054,421,256,421s-38.877-7.808-53.042-21.973c-5.845-5.874-5.845-15.366,0.015-21.226
		c5.859-5.83,15.366-5.845,21.226,0.015c16.963,17.021,46.641,17.021,63.604,0c5.859-5.859,15.366-5.845,21.226-0.015
		C314.887,383.661,314.887,393.153,309.042,399.027z M316,301c-8.284,0-15-6.716-15-15c0-8.286,6.716-15,15-15s15,6.714,15,15
		C331,294.284,324.284,301,316,301z"/>
	<path d="M333.371,73.123c-1.553,8.586-4.845,16.904-10.179,24.337c-11.367,15.894-29.194,25.034-48.896,25.034h-36.592
		c-19.688,0-37.515-9.126-48.911-25.034c-5.319-7.434-8.602-15.745-10.148-24.342C74.299,106.359,0,204.397,0,316
		c0,38.064,29.612,69.252,66.396,74.028c-0.405-1.752-1.157-3.349-1.514-5.121C62.318,373.158,61,359.989,61,346v-60
		c0-74.443,60.557-135,135-135h120c74.443,0,135,60.557,135,135v60c0,13.989-1.362,27.319-4.028,39.595
		c-0.309,1.533-0.967,2.91-1.311,4.427C482.417,385.223,512,354.044,512,316C512,204.403,437.71,106.37,333.371,73.123z"/>
	<path d="M136,45h74.978l-1.78,5.391C202.597,69.855,216.896,90,237.704,90h36.592c20.724,0,35.134-20.05,28.506-39.595L301.02,45
		H376c8.291,0,15-6.709,15-15s-6.709-15-15-15h-85.988c-5.411-9.047-14.905-15-25.604-15h-16.816c-10.692,0-20.198,6.008-25.593,15
		H136c-8.291,0-15,6.709-15,15S127.709,45,136,45z"/>
</g>
<g>
</g>
<g>
</g>
<g>
</g>
<g>
</g>
<g>
</g>
<g>
</g>
<g>
</g>
<g>
</g>
<g>
</g>
<g>
</g>
<g>
</g>
<g>
</g>
<g>
</g>
<g>
</g>
<g>
</g>
</svg>
