<?xml version="1.0" encoding="iso-8859-1"?>
<!-- Generator: Adobe Illustrator 19.0.0, SVG Export Plug-In . SVG Version: 6.00 Build 0)  -->
<svg version="1.1" id="Layer_1" xmlns="http://www.w3.org/2000/svg" xmlns:xlink="http://www.w3.org/1999/xlink" x="0px" y="0px"
	 viewBox="0 0 512 512" style="enable-background:new 0 0 512 512;" xml:space="preserve">
<g>
	<path d="M466,286h15c8.284,0,15-6.716,15-15v-15c0-33.138-26.863-60-60-60v81.678C444.855,282.832,455.016,286,466,286z"/>
	<path d="M496,136v-15c0-8.286-6.716-15-15-15h-15c-16.481,0-31.393,6.661-42.239,17.417C431.565,146.225,436,170.579,436,196
		C469.137,196,496,169.137,496,136z"/>
	<path d="M16,301h390v-90c-55.887,0-334.129,0-390,0V301z M271,241c8.284,0,15,6.714,15,15c0,8.284-6.716,15-15,15s-15-6.716-15-15
		C256,247.714,262.716,241,271,241z M151,241c8.284,0,15,6.714,15,15c0,8.284-6.716,15-15,15s-15-6.716-15-15
		C136,247.714,142.716,241,151,241z"/>
	<path d="M211,512c102.457,0,186.531-80.484,194.24-181H16.76C24.469,431.516,108.543,512,211,512z"/>
	<polygon points="231.728,181 246.728,151 175.272,151 190.272,181 	"/>
	<path d="M141.728,151H21.451c-2.316,9.749-3.906,19.752-4.691,30h139.968L141.728,151z"/>
	<path d="M265.272,181H405.24c-0.786-10.248-2.375-20.251-4.691-30H280.272L265.272,181z"/>
	<path d="M211,0C130.049,0,60.496,50.607,31.046,121c116.475,0,220.302,0,359.91,0C361.505,50.607,291.951,0,211,0z"/>
</g>
<g>
</g>
<g>
</g>
<g>
</g>
<g>
</g>
<g>
</g>
<g>
</g>
<g>
</g>
<g>
</g>
<g>
</g>
<g>
</g>
<g>
</g>
<g>
</g>
<g>
</g>
<g>
</g>
<g>
</g>
</svg>
