<?xml version="1.0" encoding="iso-8859-1"?>
<!-- Generator: Adobe Illustrator 19.0.0, SVG Export Plug-In . SVG Version: 6.00 Build 0)  -->
<svg version="1.1" id="Layer_1" xmlns="http://www.w3.org/2000/svg" xmlns:xlink="http://www.w3.org/1999/xlink" x="0px" y="0px"
	 viewBox="0 0 512 512" style="enable-background:new 0 0 512 512;" xml:space="preserve">
<g>
	<path d="M418.305,146.44c10.768,1.789,20.499,5.991,29.088,11.68C430.091,68.19,350.904,0,256,0
		C161.1,0,81.916,68.181,64.609,158.11c8.588-5.687,18.311-9.886,29.072-11.669C200.702,128.584,311.313,128.584,418.305,146.44z"/>
	<path d="M109.3,422H76c-8.401,0-15-6.601-15-15c0-34.442,0-28.748,0-91.383c-16.011-12.122-26.832-30.41-29.167-51.381
		C31.337,262.528,31,260.138,31,256c0-13.87,0-24.591,0-38.701c0.5-1.752,1.201-9.351,2.908-15.626C13.726,218.357,0,243.439,0,271
		c0,26.462,12.713,49.951,31,66.326V407c0,24.899,20.099,45,45,45h53.401c-5.187-4.149-16.926-23.804-20.101-29.7V422z"/>
	<path d="M451,221.499c0-0.018-0.007-0.033-0.007-0.051c0,0,0.007-0.022,0.007-0.033c0-0.084-0.042-0.156-0.042-0.238
		c-0.157-22.123-17.617-40.829-37.59-44.147c-104.414-17.402-210.322-17.402-314.766,0c-19.968,3.32-37.401,21.92-37.56,44.147
		c0,0.084-0.042,0.154-0.042,0.238c0,0.011,0.007,0.022,0.007,0.022c0,0.029-0.007,0.044-0.007,0.062V256
		c0.004,24.86,20.147,45,45,45h107.578c3.94,0,7.808-1.597,10.605-4.395l21.211-21.211c5.859-5.859,15.352-5.859,21.211,0
		l21.211,21.211c2.798,2.798,6.665,4.395,10.605,4.395H406c24.849,0,44.996-20.142,45-45V221.499z"/>
	<path d="M266.605,317.816L256,307.211l-10.605,10.605C236.898,326.313,225.59,331,213.578,331H91v16c0,26.988,6.81,51.949,18.3,75
		H196c8.401,0,15,6.599,15,15c0,8.399-6.599,15-15,15h-66.599c29.947,38.514,79.79,60,126.599,60c91.935,0,165-75.743,165-165v-16
		H298.422C286.41,331,275.102,326.313,266.605,317.816z M309.042,400.027C294.877,414.192,276.054,422,256,422
		s-38.877-7.808-53.042-21.973c-5.845-5.874-5.845-15.366,0.015-21.226c5.859-5.83,15.366-5.845,21.226,0.015
		c16.963,17.021,46.641,17.021,63.604,0c5.859-5.859,15.366-5.845,21.226-0.015C314.887,384.661,314.887,394.153,309.042,400.027z"
		/>
	<path d="M478.092,201.671c1.622,5.973,2.507,14.119,2.878,15.423C480.998,247.491,481,187.015,481,256
		c0,4.138-0.337,6.528-0.833,8.236c-2.335,20.971-13.156,39.26-29.167,51.381V346c0,3.248-0.33,6.414-0.487,9.624
		C485.607,343.336,512,310.238,512,271C512,243.439,498.274,218.357,478.092,201.671z"/>
</g>
<g>
</g>
<g>
</g>
<g>
</g>
<g>
</g>
<g>
</g>
<g>
</g>
<g>
</g>
<g>
</g>
<g>
</g>
<g>
</g>
<g>
</g>
<g>
</g>
<g>
</g>
<g>
</g>
<g>
</g>
</svg>
