<?xml version="1.0" encoding="iso-8859-1"?>
<!-- Generator: Adobe Illustrator 19.0.0, SVG Export Plug-In . SVG Version: 6.00 Build 0)  -->
<svg version="1.1" id="Layer_1" xmlns="http://www.w3.org/2000/svg" xmlns:xlink="http://www.w3.org/1999/xlink" x="0px" y="0px"
	 viewBox="0 0 512 512" style="enable-background:new 0 0 512 512;" xml:space="preserve">
<g>
	<path d="M61.346,352.844C61.266,350.554,61,348.311,61,346v-96.656C43.153,259.75,31,278.886,31,301
		C31,323.255,43.31,342.486,61.346,352.844z"/>
	<path d="M174.32,183.52c49.629,33.076,113.73,33.076,163.359,0c5.918-4.014,13.857-3.208,18.926,1.875L421,249.789V226
		c0-90.981-74.019-165-165-165S91,135.019,91,226v23.789l64.395-64.395C160.463,180.341,168.388,179.521,174.32,183.52z"/>
	<path d="M421,346v-53.784l-77.227-77.217c-54.492,31.113-121.055,31.113-175.547,0L91,292.216V346c0,90.981,74.019,166,165,166
		S421,436.981,421,346z M181,286c0-8.286,6.716-15,15-15s15,6.714,15,15c0,8.284-6.716,15-15,15S181,294.284,181,286z
		 M309.042,400.027C294.877,414.192,276.054,422,256,422s-38.877-7.808-53.042-21.973c-5.845-5.874-5.845-15.366,0.015-21.226
		c5.859-5.83,15.366-5.845,21.226,0.015c16.963,17.021,46.641,17.021,63.604,0c5.859-5.859,15.366-5.845,21.226-0.015
		C314.887,384.661,314.887,394.153,309.042,400.027z M316,301c-8.284,0-15-6.716-15-15c0-8.286,6.716-15,15-15s15,6.714,15,15
		C331,294.284,324.284,301,316,301z"/>
	<path d="M359.442,512H466c8.291,0,15-6.709,15-15v-5.142c0-41.217-11.486-80.583-32.56-114.822
		C439.594,433.86,406.245,482.549,359.442,512z"/>
	<path d="M63.56,377.037C42.486,411.276,31,450.641,31,491.858V497c0,8.291,6.709,15,15,15h106.558
		C105.755,482.549,72.406,433.86,63.56,377.037z"/>
	<path d="M481,301c0-22.114-12.153-41.25-30-51.656V346c0,2.311-0.266,4.554-0.346,6.844C468.69,342.486,481,323.255,481,301z"/>
	<path d="M323.09,42.144C310.858,17.292,285.517,0,256,0s-54.858,17.291-67.09,42.144C209.867,34.427,232.4,30,256,30
		S302.133,34.427,323.09,42.144z"/>
</g>
<g>
</g>
<g>
</g>
<g>
</g>
<g>
</g>
<g>
</g>
<g>
</g>
<g>
</g>
<g>
</g>
<g>
</g>
<g>
</g>
<g>
</g>
<g>
</g>
<g>
</g>
<g>
</g>
<g>
</g>
</svg>
