<?xml version="1.0" encoding="iso-8859-1"?>
<!-- Generator: Adobe Illustrator 19.0.0, SVG Export Plug-In . SVG Version: 6.00 Build 0)  -->
<svg version="1.1" id="Layer_1" xmlns="http://www.w3.org/2000/svg" xmlns:xlink="http://www.w3.org/1999/xlink" x="0px" y="0px"
	 viewBox="0 0 512.009 512.009" style="enable-background:new 0 0 512.009 512.009;" xml:space="preserve">
<g>
	<path d="M27.485,6.688C23.808,1.181,16.982-1.28,10.654,0.653C4.326,2.572,0.004,8.402,0.004,15.009v60
		c0,41.783,24.721,77.653,60.143,94.545c-0.778-37.465,9.311-74.095,28.614-105.809C64.501,49.473,43.223,30.291,27.485,6.688z"/>
	<path d="M271.004,166.009V1.474c-5.012-0.454-9.911-1.465-15-1.465c-5.063,0-10.052,0.311-15,0.76v165.24c0,8.291-6.709,15-15,15
		h-135v30h330v-30h-135C277.713,181.009,271.004,174.3,271.004,166.009z"/>
	<path d="M372.752,48.143c-20.31-20.083-45.077-33.604-71.748-41.158v144.024h118.535C416.07,112.795,400.297,75.999,372.752,48.143
		z"/>
	<path d="M211.004,6.405C146.5,24.739,97.993,82.3,91.764,151.009h119.24V6.405z"/>
	<path d="M337.684,358.489c-49.629-33.076-113.76-33.062-163.359,0c-2.461,1.641-5.361,2.52-8.32,2.52h-74.24
		c7.614,83.969,78.322,151,164.24,151s156.627-67.031,164.24-151h-74.24C343.045,361.009,340.145,360.13,337.684,358.489z
		 M309.046,399.036c-14.165,14.165-32.988,21.973-53.042,21.973s-38.877-7.808-53.042-21.973
		c-5.845-5.874-5.845-15.366,0.015-21.226c5.859-5.83,15.366-5.845,21.226,0.015c16.963,17.021,46.641,17.021,63.604,0
		c5.859-5.859,15.366-5.845,21.226-0.015C314.891,383.67,314.891,393.162,309.046,399.036z"/>
	<path d="M91.004,331.009h70.547c57.847-36.431,131.016-36.46,188.892,0h70.562v-90h-330V331.009z M316.004,271.009
		c8.284,0,15,6.714,15,15c0,8.284-6.716,15-15,15s-15-6.716-15-15C301.004,277.723,307.721,271.009,316.004,271.009z
		 M196.004,271.009c8.284,0,15,6.714,15,15c0,8.284-6.716,15-15,15s-15-6.716-15-15
		C181.004,277.723,187.721,271.009,196.004,271.009z"/>
	<path d="M501.355,0.653c-6.343-1.934-13.169,0.527-16.831,6.035c-15.727,23.584-36.987,42.755-61.223,57.023
		c19.283,31.707,29.24,68.441,28.44,105.908c35.491-16.866,60.264-52.778,60.264-94.611v-60
		C512.004,8.402,507.683,2.572,501.355,0.653z"/>
	<path d="M31.004,301.009c0,22.099,12.171,41.173,30,51.583c0-38.677,0-64.404,0-103.239
		C43.157,259.759,31.004,278.895,31.004,301.009z"/>
	<path d="M451.004,249.353c0,38.923,0,64.614,0,103.239c17.829-10.41,30-29.484,30-51.583
		C481.004,278.895,468.852,259.759,451.004,249.353z"/>
</g>
<g>
</g>
<g>
</g>
<g>
</g>
<g>
</g>
<g>
</g>
<g>
</g>
<g>
</g>
<g>
</g>
<g>
</g>
<g>
</g>
<g>
</g>
<g>
</g>
<g>
</g>
<g>
</g>
<g>
</g>
</svg>
