<?xml version="1.0" encoding="iso-8859-1"?>
<!-- Generator: Adobe Illustrator 19.0.0, SVG Export Plug-In . SVG Version: 6.00 Build 0)  -->
<svg version="1.1" id="Layer_1" xmlns="http://www.w3.org/2000/svg" xmlns:xlink="http://www.w3.org/1999/xlink" x="0px" y="0px"
	 viewBox="0 0 512 512" style="enable-background:new 0 0 512 512;" xml:space="preserve">
<g>
	<path d="M31,271c0,22.114,12.153,41.25,30,51.656V226c0-2.353,0.472-4.618,0.555-6.958C43.405,229.369,31,248.661,31,271z"/>
	<path d="M226,151h194.24C412.627,67.031,341.919,0,256,0H76c-7.681,0-13.533,6.947-12.144,14.566
		C77.846,91.461,145.131,151,226,151z"/>
	<path d="M166,241c-24.814,0-45,20.186-45,45s20.186,45,45,45s45-20.186,45-45S190.814,241,166,241z"/>
	<path d="M346,241c-24.814,0-45,20.186-45,45s20.186,45,45,45s45-20.186,45-45S370.814,241,346,241z"/>
	<path d="M346,361c-36.216,0-66.513-25.809-73.482-60h-33.036c-6.969,34.191-37.266,60-73.482,60c-41.353,0-75-33.647-75-75v60
		c0,85.919,66.031,158.386,150,166v-45c0-8.291,6.709-15,15-15s15,6.709,15,15v45c83.969-7.614,150-80.081,150-166v-60
		C421,327.353,387.353,361,346,361z M309.042,399.027C294.877,413.192,276.054,421,256,421s-38.877-7.808-53.042-21.973
		c-5.845-5.874-5.845-15.366,0.015-21.226c5.859-5.83,15.366-5.845,21.226,0.015c16.963,17.021,46.641,17.021,63.604,0
		c5.859-5.859,15.366-5.845,21.226-0.015C314.887,383.661,314.887,393.153,309.042,399.027z"/>
	<path d="M113.267,144.82C99.088,169.532,91,197.024,91,226v60c0-41.353,33.647-75,75-75c36.216,0,66.513,25.809,73.482,60h33.036
		c6.969-34.191,37.266-60,73.482-60c41.353,0,75,33.647,75,75V181H226C183.986,181,145.137,167.511,113.267,144.82z"/>
	<path d="M451,219.344v103.312c17.847-10.406,30-29.542,30-51.656S468.847,229.75,451,219.344z"/>
</g>
<g>
</g>
<g>
</g>
<g>
</g>
<g>
</g>
<g>
</g>
<g>
</g>
<g>
</g>
<g>
</g>
<g>
</g>
<g>
</g>
<g>
</g>
<g>
</g>
<g>
</g>
<g>
</g>
<g>
</g>
</svg>
