<?xml version="1.0" encoding="iso-8859-1"?>
<!-- Generator: Adobe Illustrator 19.0.0, SVG Export Plug-In . SVG Version: 6.00 Build 0)  -->
<svg version="1.1" id="Layer_1" xmlns="http://www.w3.org/2000/svg" xmlns:xlink="http://www.w3.org/1999/xlink" x="0px" y="0px"
	 viewBox="0 0 512 512" style="enable-background:new 0 0 512 512;" xml:space="preserve">
<g>
	<path d="M416.825,67.95c-2.247,6.634-5.193,13.145-9.39,19.34C381.625,125.391,322.182,150,256,150
		c-67.925,0-127.954-25.532-152.959-65.039c-3.444-5.442-6.063-11.087-8.026-16.835C55.476,108.691,31,164.008,31,225v272
		c0,8.291,6.709,15,15,15h210c-89.8,0-165-73.167-165-165v-62c0-5.273,2.769-10.151,7.28-12.861l150-90
		c4.746-2.842,10.693-2.842,15.439,0l150,90c4.512,2.71,7.28,7.588,7.28,12.861v62c0,91.564-74.908,165-165,165h210
		c8.291,0,15-6.709,15-15V225C481,163.923,456.46,108.532,416.825,67.95z"/>
	<path d="M391,293.496L256,212.49l-135,81.006V347c0,46.701,23.859,87.898,60,112.147v-69.651c0-5.684,3.208-10.869,8.291-13.418
		c41.777-20.889,91.641-20.889,133.418,0c5.083,2.549,8.291,7.734,8.291,13.418v69.651c36.141-24.249,60-65.446,60-112.147V293.496z
		 M196,300.004c-8.284,0-15-6.716-15-15s6.716-15,15-15s15,6.716,15,15S204.284,300.004,196,300.004z M316,300.004
		c-8.284,0-15-6.716-15-15s6.716-15,15-15s15,6.716,15,15S324.284,300.004,316,300.004z"/>
	<path d="M211,399.163v74.544c14.145,5.043,29.145,8.293,45,8.293s30.855-3.25,45-8.293v-74.544
		C272.26,387.474,239.74,387.474,211,399.163z"/>
	<path d="M256,120c55.649,0,106.523-19.907,126.592-49.541c5.554-8.192,8.013-16.67,8.053-25.3C353.05,16.939,306.524,0,256,0
		c-50.574,0-97.139,16.972-134.755,45.242c0.053,8.064,2.276,15.989,7.137,23.679C147.719,99.478,199.003,120,256,120z"/>
</g>
<g>
</g>
<g>
</g>
<g>
</g>
<g>
</g>
<g>
</g>
<g>
</g>
<g>
</g>
<g>
</g>
<g>
</g>
<g>
</g>
<g>
</g>
<g>
</g>
<g>
</g>
<g>
</g>
<g>
</g>
</svg>
