<?xml version="1.0" encoding="iso-8859-1"?>
<!-- Generator: Adobe Illustrator 19.0.0, SVG Export Plug-In . SVG Version: 6.00 Build 0)  -->
<svg version="1.1" id="Layer_1" xmlns="http://www.w3.org/2000/svg" xmlns:xlink="http://www.w3.org/1999/xlink" x="0px" y="0px"
	 viewBox="0 0 512 512" style="enable-background:new 0 0 512 512;" xml:space="preserve">
<g>
	<path d="M241,181c0,18.311,8.877,30,15,30s15-11.689,15-30s-8.877-30-15-30S241,162.689,241,181z"/>
	<path d="M399.698,15.26l-131.01,105.808l158.734,110.665c9.944,6.932,23.578-0.181,23.578-12.305V106
		C451,67.804,430.28,33.635,399.698,15.26z"/>
	<path d="M345.216,211l-44.28-30.872C300.94,180.427,301,180.7,301,181c0,11.063-2.303,21.191-6.068,30H345.216z"/>
	<path d="M156.272,211h60.797c-3.765-8.809-6.068-18.937-6.068-30c0-5.233,0.628-10.199,1.531-15.007L156.272,211z"/>
	<path d="M346,0H166C108.01,0,61,48.01,61,106v111.568c0,12.578,14.55,19.57,24.37,11.713L367.797,2.344
		C360.755,0.85,353.48,0,346,0z"/>
	<path d="M211,386.668v118.936c14.328,4.072,29.385,6.396,45,6.396s30.672-2.324,45-6.396V386.668
		C272.26,374.979,239.74,374.979,211,386.668z"/>
	<path d="M118.772,241L91,263.216V347c0,63.964,36.658,119.416,90,146.785V377c0-5.684,3.208-10.869,8.291-13.418
		c41.777-20.889,91.641-20.889,133.418,0C327.792,366.131,331,371.316,331,377v116.785c53.342-27.369,90-82.82,90-146.785v-83.165
		L388.246,241H118.772z M196,301c-8.284,0-15-6.716-15-15c0-8.286,6.716-15,15-15s15,6.714,15,15C211,294.284,204.284,301,196,301z
		 M316,301c-8.284,0-15-6.716-15-15c0-8.286,6.716-15,15-15s15,6.714,15,15C331,294.284,324.284,301,316,301z"/>
</g>
<g>
</g>
<g>
</g>
<g>
</g>
<g>
</g>
<g>
</g>
<g>
</g>
<g>
</g>
<g>
</g>
<g>
</g>
<g>
</g>
<g>
</g>
<g>
</g>
<g>
</g>
<g>
</g>
<g>
</g>
</svg>
