<?xml version="1.0" encoding="iso-8859-1"?>
<!-- Generator: Adobe Illustrator 19.0.0, SVG Export Plug-In . SVG Version: 6.00 Build 0)  -->
<svg version="1.1" id="Layer_1" xmlns="http://www.w3.org/2000/svg" xmlns:xlink="http://www.w3.org/1999/xlink" x="0px" y="0px"
	 viewBox="0 0 512 512" style="enable-background:new 0 0 512 512;" xml:space="preserve">
<g>
	<path d="M451.341,249.527l0.201,31.8c6.205,21.768,8.542,43.863,7.584,65.618C472.374,335.931,481,319.539,481,301
		C481,279.026,469.003,259.981,451.341,249.527z"/>
	<path d="M187.467,12.673C177.314,4.841,164.755,0,151,0c-21.855,0-41.631,12.026-52.075,30.542C63.49,25.62,31,54.258,31,90
		c0,10.576,2.856,20.903,8.188,30C33.856,129.097,31,139.424,31,150c0,22.114,12.153,41.25,30,51.656V195
		C61,111.623,113.705,40.499,187.467,12.673z"/>
	<path d="M346,241c-24.814,0-45,20.186-45,45s20.186,45,45,45s45-20.186,45-45S370.814,241,346,241z"/>
	<path d="M166,241c-24.814,0-45,20.186-45,45s20.186,45,45,45s45-20.186,45-45S190.814,241,166,241z"/>
	<path d="M421,196c0-43.887-17.095-85.356-48.252-116.865C341.356,48.095,299.887,31,256,31c-90.981,0-165,74.019-165,165v87.817
		c-17.833,60.057-6.299,115.695,26.587,159.232C150.663,486.878,201.112,512,256,512s105.337-25.122,138.413-68.95
		c32.717-43.314,44.48-98.952,26.587-159.232V196z M196,151h120c8.291,0,15,6.709,15,15s-6.709,15-15,15H196
		c-8.291,0-15-6.709-15-15S187.709,151,196,151z M309.042,400.027C294.877,414.192,276.054,422,256,422s-38.877-7.808-53.042-21.973
		c-5.845-5.874-5.845-15.366,0.015-21.226c5.859-5.83,15.366-5.845,21.226,0.015c16.963,17.021,46.641,17.021,63.604,0
		c5.859-5.859,15.366-5.845,21.226-0.015C314.887,384.661,314.887,394.153,309.042,400.027z M346,361
		c-36.216,0-66.513-25.809-73.482-60h-33.036c-6.969,34.191-37.266,60-73.482,60c-99.078,0-99.133-150,0-150
		c36.216,0,66.513,25.809,73.482,60h33.036c6.969-34.191,37.266-60,73.482-60C445.078,211,445.133,361,346,361z"/>
	<path d="M477.016,150c0-10.576-2.856-20.903-8.188-30c5.332-9.097,8.188-19.424,8.188-30c0-35.742-32.651-64.438-67.925-59.458
		C398.646,12.026,378.871,0,357.016,0c-13.224,0-25.305,4.38-35.224,11.576c26.675,9.536,51.275,24.686,72.05,45.231
		C430.741,94.116,451,143.159,451,195l0.027,4.34C466.698,188.503,477.016,170.457,477.016,150z"/>
	<path d="M31,301c0,18.516,8.602,34.885,21.821,45.899c-1.022-23.137,1.69-45.615,8.179-67.432v-30.123
		C43.153,259.75,31,278.886,31,301z"/>
</g>
<g>
</g>
<g>
</g>
<g>
</g>
<g>
</g>
<g>
</g>
<g>
</g>
<g>
</g>
<g>
</g>
<g>
</g>
<g>
</g>
<g>
</g>
<g>
</g>
<g>
</g>
<g>
</g>
<g>
</g>
</svg>
