<?xml version="1.0" encoding="iso-8859-1"?>
<!-- Generator: Adobe Illustrator 19.0.0, SVG Export Plug-In . SVG Version: 6.00 Build 0)  -->
<svg version="1.1" id="Layer_1" xmlns="http://www.w3.org/2000/svg" xmlns:xlink="http://www.w3.org/1999/xlink" x="0px" y="0px"
	 viewBox="0 0 512 512" style="enable-background:new 0 0 512 512;" xml:space="preserve">
<g>
	<path d="M120,178.872L60,28.879v109.9c-0.002,42.149-10.102,83.571-28.832,121.331c-21.085,42.504-31.895,90.247-31.13,137.811
		c0.586,36.376,20.46,69.767,50.733,89.945l15.91,10.604C76.649,505.115,90,497.968,90,485.989v-82.601
		c0-30.086,4.854-62.756,14.301-92.611c9.472-29.932,15.698-60.798,15.699-92.194V178.872z"/>
	<path d="M241,100.986c0,19.277,7.881,36.958,15,49.014c7.119-12.056,15-29.736,15-49.014s-7.881-36.958-15-49.014
		C248.88,64.028,241,81.709,241,100.986z"/>
	<path d="M121.157,100.986l24,60h82.588c-8.405-15.284-16.745-36.354-16.745-60H121.157z"/>
	<path d="M480.833,260.112c-18.73-37.76-28.832-79.184-28.834-121.333V28.881l-25.162,62.902c-0.011,0.026-0.022,0.051-0.031,0.075
		L392,178.872v39.712c0.002,31.397,6.227,62.265,15.701,92.199C417.21,340.831,422,373.185,422,403.389v82.597
		c0,11.981,13.352,19.127,23.32,12.48l15.879-10.585c30.293-20.195,50.184-53.611,50.764-90.015
		C512.719,350.323,501.909,302.602,480.833,260.112z"/>
	<path d="M366.843,160.986l24-60H301c0,23.646-8.34,44.716-16.745,60H366.843z"/>
	<path d="M215.449,70.986c8.875-31.496,28.297-53.804,29.359-54.99c5.713-6.387,16.67-6.387,22.383,0
		c1.062,1.187,20.484,23.494,29.359,54.99h106.293l24.001-60H85.155l24.001,60H215.449z"/>
	<path d="M362,218.584v-27.598H150v27.598c0,33.076-5.303,65.757-15.776,97.148C119.972,358.568,120,390.384,120,420.386
		c30.02,43.198,80.36,70.6,136,70.6s105.98-27.402,136-70.6c0-30.011-0.053-62.058-14.224-104.654
		C367.302,284.341,362,251.66,362,218.584z M181,265.986c0-8.286,6.716-15,15-15s15,6.714,15,15c0,8.284-6.716,15-15,15
		S181,274.27,181,265.986z M309.042,379.014c-14.165,14.165-32.988,21.973-53.042,21.973s-38.877-7.808-53.042-21.973
		c-5.845-5.874-5.845-15.366,0.015-21.226c5.859-5.83,15.366-5.845,21.226,0.015c16.963,17.021,46.641,17.021,63.604,0
		c5.859-5.859,15.366-5.845,21.226-0.015C314.886,363.647,314.886,373.14,309.042,379.014z M316,280.986c-8.284,0-15-6.716-15-15
		c0-8.286,6.716-15,15-15s15,6.714,15,15C331,274.27,324.283,280.986,316,280.986z"/>
</g>
<g>
</g>
<g>
</g>
<g>
</g>
<g>
</g>
<g>
</g>
<g>
</g>
<g>
</g>
<g>
</g>
<g>
</g>
<g>
</g>
<g>
</g>
<g>
</g>
<g>
</g>
<g>
</g>
<g>
</g>
</svg>
