<?xml version="1.0" encoding="iso-8859-1"?>
<!-- Generator: Adobe Illustrator 19.0.0, SVG Export Plug-In . SVG Version: 6.00 Build 0)  -->
<svg version="1.1" id="Layer_1" xmlns="http://www.w3.org/2000/svg" xmlns:xlink="http://www.w3.org/1999/xlink" x="0px" y="0px"
	 viewBox="0 0 512 512" style="enable-background:new 0 0 512 512;" xml:space="preserve">
<g>
	<path d="M266.637,0.967C263.143,0.341,259.598,0,256,0C259.631,0,263.053,0.769,266.637,0.967z"/>
	<path d="M266.637,0.967C317.67,10.109,356.849,84.483,360.604,180h72.642c9.023,0,16.428-7.983,14.956-16.886
		C433.51,74.196,358.404,6.013,266.637,0.967z"/>
	<path d="M271,34.18V180h59.244C326.93,104.218,299.835,48.875,271,34.18z"/>
	<path d="M63.798,163.114C62.326,172.017,69.73,180,78.754,180h72.642c3.755-95.517,42.935-169.891,93.968-179.033
		C153.596,6.013,78.49,74.196,63.798,163.114z"/>
	<path d="M256,0c-3.598,0-7.143,0.341-10.637,0.967C248.947,0.769,252.369,0,256,0z"/>
	<path d="M181.756,180H241V34.18C212.165,48.875,185.07,104.218,181.756,180z"/>
	<path d="M91,347c0,90.981,74.019,165,165,165s165-74.019,165-165V210H91V347z M316,271c8.284,0,15,6.714,15,15
		c0,8.284-6.716,15-15,15s-15-6.716-15-15C301,277.714,307.716,271,316,271z M224.198,378.816c16.963,17.021,46.641,17.021,63.604,0
		c5.859-5.859,15.366-5.845,21.226-0.015c5.859,5.859,5.859,15.352,0.015,21.226C294.877,414.192,276.054,422,256,422
		s-38.877-7.808-53.042-21.973c-5.845-5.874-5.845-15.366,0.015-21.226C208.832,372.972,218.339,372.957,224.198,378.816z M196,271
		c8.284,0,15,6.714,15,15c0,8.284-6.716,15-15,15s-15-6.716-15-15C181,277.714,187.716,271,196,271z"/>
	<path d="M451,249.344v103.312c17.847-10.406,30-29.542,30-51.656S468.847,259.75,451,249.344z"/>
	<path d="M31,301c0,22.114,12.153,41.25,30,51.656V249.344C43.153,259.75,31,278.886,31,301z"/>
</g>
<g>
</g>
<g>
</g>
<g>
</g>
<g>
</g>
<g>
</g>
<g>
</g>
<g>
</g>
<g>
</g>
<g>
</g>
<g>
</g>
<g>
</g>
<g>
</g>
<g>
</g>
<g>
</g>
<g>
</g>
</svg>
