<?xml version="1.0" encoding="iso-8859-1"?>
<!-- Generator: Adobe Illustrator 19.0.0, SVG Export Plug-In . SVG Version: 6.00 Build 0)  -->
<svg version="1.1" id="Layer_1" xmlns="http://www.w3.org/2000/svg" xmlns:xlink="http://www.w3.org/1999/xlink" x="0px" y="0px"
	 viewBox="0 0 512.015 512.015" style="enable-background:new 0 0 512.015 512.015;" xml:space="preserve">
<g>
	<path d="M445.855,182.161c3.261,14.116,5.153,28.748,5.153,43.839v113.555c0,6.381-0.304,12.704-0.884,18.957
		c17.877-5.96,30.884-22.657,30.884-42.512v-90C481.007,204.577,465.936,186.674,445.855,182.161z"/>
	<path d="M256.007,0C154.847,0,69.115,67.112,40.886,159.141C51.414,153.499,63.252,150,76.007,150l0.044,0.004
		C105.5,79.607,175.055,30,256.007,30s150.509,49.607,179.958,120.004l0.042-0.004c12.755,0,24.593,3.499,35.121,9.141
		C442.899,67.112,357.168,0,256.007,0z"/>
	<path d="M331.007,361c-31.309,0-58.872-16.108-75-40.432c-16.128,24.324-43.691,40.432-75,40.432c-49.629,0-90-40.371-90-90v75
		c0,46.377,19.688,91.894,54.023,123.109c30.762,27.964,69.595,42.905,110.757,42.905c5.42,0,10.884-0.264,16.377-0.791
		c83.467-7.954,148.843-83.925,148.843-171.669V271C421.007,320.629,380.636,361,331.007,361z M309.049,399.027
		C294.884,413.192,276.061,421,256.007,421s-38.877-7.808-53.042-21.973c-5.845-5.874-5.845-15.366,0.015-21.226
		c5.859-5.83,15.366-5.845,21.226,0.015c16.963,17.021,46.641,17.021,63.604,0c5.859-5.859,15.366-5.845,21.226-0.015
		C314.894,383.661,314.894,393.153,309.049,399.027z"/>
	<path d="M320.019,73.931C300.326,65.609,278.696,61,256.007,61c-75.366,0-138.95,50.85-158.604,120h68.604
		C235.523,181,296.129,137.67,320.019,73.931z"/>
	<path d="M391.007,271h-120c0,33.091,26.909,60,60,60S391.007,304.091,391.007,271z"/>
	<path d="M346.71,88.314C317.494,161.569,246.775,211,166.007,211h-74.24c-0.449,4.948-0.76,9.937-0.76,15v30
		c0-8.291,6.709-15,15-15c108.558,0,191.442,0,300,0c8.291,0,15,6.709,15,15v-30C421.007,168.514,391.417,117.863,346.71,88.314z"/>
	<path d="M241.007,271h-120c0,33.091,26.909,60,60,60S241.007,304.091,241.007,271z"/>
	<path d="M61.007,226c0-15.092,1.891-29.724,5.153-43.839C46.079,186.674,31.007,204.577,31.007,226v90
		c0,19.761,12.885,36.4,30.63,42.433c-0.262-4.131-0.63-8.236-0.63-12.433v-30V226z"/>
</g>
<g>
</g>
<g>
</g>
<g>
</g>
<g>
</g>
<g>
</g>
<g>
</g>
<g>
</g>
<g>
</g>
<g>
</g>
<g>
</g>
<g>
</g>
<g>
</g>
<g>
</g>
<g>
</g>
<g>
</g>
</svg>
