<?xml version="1.0" encoding="iso-8859-1"?>
<!-- Generator: Adobe Illustrator 19.0.0, SVG Export Plug-In . SVG Version: 6.00 Build 0)  -->
<svg version="1.1" id="Layer_1" xmlns="http://www.w3.org/2000/svg" xmlns:xlink="http://www.w3.org/1999/xlink" x="0px" y="0px"
	 viewBox="0 0 512 512" style="enable-background:new 0 0 512 512;" xml:space="preserve">
<g>
	<path d="M256,91C113.002,91,0,150.297,0,226c0,12.424,3.188,24.602,9.104,36.281C19.334,241.007,37.57,224.526,60,216.528v-9.996
		c0-5.918,3.486-11.294,8.892-13.696C135.432,163.158,197.699,151,256,151c58.059,0,120.333,12.054,187.108,41.836
		c5.405,2.402,8.892,7.778,8.892,13.696v9.996c22.43,7.998,40.666,24.479,50.896,45.753C508.812,250.602,512,238.424,512,226
		C512,150.297,398.998,91,256,91z"/>
	<path d="M408.617,84.32C384.231,34.675,325.516,0,256,0S127.769,34.675,103.383,84.32C147.008,68.897,198.944,60,256,60
		S364.992,68.897,408.617,84.32z"/>
	<path d="M296.314,183.399C283.393,182.022,270.055,181,256,181c-52.238,0-112.053,11.596-165,35.273c0,49.763,0,35.462,0,84.727
		h42.026C200.557,301,263.297,265.018,296.314,183.399z"/>
	<path d="M133.026,331H91v15c0,90.981,74.019,166,165,166s165-75.019,165-166c0-26.697,0-37.474,0-41.395c0-1.421,0-1.959,0-2.005
		c0-5.585,0-25.313,0-86.327c-30.423-13.607-62.108-22.689-94.098-28.506C286.414,287.837,215.085,331,133.026,331z
		 M309.042,399.027C294.877,413.192,276.054,421,256,421s-38.877-7.808-53.042-21.973c-5.845-5.874-5.845-15.366,0.015-21.226
		c5.859-5.83,15.366-5.845,21.226,0.015c16.963,17.021,46.641,17.021,63.604,0c5.859-5.859,15.366-5.845,21.226-0.015
		C314.887,383.661,314.887,393.153,309.042,399.027z M316,301c-8.284,0-15-6.716-15-15c0-8.286,6.716-15,15-15s15,6.714,15,15
		C331,294.284,324.284,301,316,301z"/>
	<path d="M30,301c0,22.114,12.153,41.25,30,51.656V249.344C42.153,259.75,30,278.886,30,301z"/>
	<path d="M452,249.344v103.312c17.847-10.406,30-29.542,30-51.656S469.847,259.75,452,249.344z"/>
</g>
<g>
</g>
<g>
</g>
<g>
</g>
<g>
</g>
<g>
</g>
<g>
</g>
<g>
</g>
<g>
</g>
<g>
</g>
<g>
</g>
<g>
</g>
<g>
</g>
<g>
</g>
<g>
</g>
<g>
</g>
</svg>
