<?xml version="1.0" encoding="iso-8859-1"?>
<!-- Generator: Adobe Illustrator 19.0.0, SVG Export Plug-In . SVG Version: 6.00 Build 0)  -->
<svg version="1.1" id="Layer_1" xmlns="http://www.w3.org/2000/svg" xmlns:xlink="http://www.w3.org/1999/xlink" x="0px" y="0px"
	 viewBox="0 0 512 512" style="enable-background:new 0 0 512 512;" xml:space="preserve">
<g>
	<path d="M256,0C165.019,0,91,74.019,91,165v16.558C125.539,126.669,186.499,90,256,90s130.461,36.669,165,91.558V165
		C421,74.019,346.981,0,256,0z"/>
	<path d="M256,120c-39.798,0-76.351,14.165-104.883,37.716C170.523,152.721,190.503,150,211,150
		c89.996,0,168.283,49.076,209.363,122.41C413.89,187.308,342.732,120,256,120z"/>
	<path d="M211,180c-33.413,0-65.405,7.632-95.068,22.69c-1.053,0.529-2.172,0.63-3.268,0.897C98.947,227.64,91,255.386,91,285v61
		c0,90.981,74.019,166,165,166c83.765,0,152.992-63.792,163.473-144.749C407.681,261.682,318.985,180,211,180z M181,285
		c0-8.286,6.716-15,15-15s15,6.714,15,15c0,8.284-6.716,15-15,15S181,293.284,181,285z M309.042,399.027
		C294.877,413.192,276.054,421,256,421s-38.877-7.808-53.042-21.973c-5.845-5.874-5.845-15.366,0.015-21.226
		c5.859-5.83,15.366-5.845,21.226,0.015c16.963,17.021,46.641,17.021,63.604,0c5.859-5.859,15.366-5.845,21.226-0.015
		C314.887,383.661,314.887,393.153,309.042,399.027z M316,300c-8.284,0-15-6.716-15-15c0-8.286,6.716-15,15-15s15,6.714,15,15
		C331,293.284,324.284,300,316,300z"/>
	<path d="M31,301c0,22.114,12.153,41.25,30,51.656V249.344C43.153,259.75,31,278.886,31,301z"/>
	<path d="M451,249.344v103.312c17.847-10.406,30-29.542,30-51.656S468.847,259.75,451,249.344z"/>
</g>
<g>
</g>
<g>
</g>
<g>
</g>
<g>
</g>
<g>
</g>
<g>
</g>
<g>
</g>
<g>
</g>
<g>
</g>
<g>
</g>
<g>
</g>
<g>
</g>
<g>
</g>
<g>
</g>
<g>
</g>
</svg>
