<?xml version="1.0" encoding="iso-8859-1"?>
<!-- Generator: Adobe Illustrator 19.0.0, SVG Export Plug-In . SVG Version: 6.00 Build 0)  -->
<svg version="1.1" id="Layer_1" xmlns="http://www.w3.org/2000/svg" xmlns:xlink="http://www.w3.org/1999/xlink" x="0px" y="0px"
	 viewBox="0 0 512 512" style="enable-background:new 0 0 512 512;" xml:space="preserve">
<g>
	<path d="M31,301c0,22.039,12.25,40.869,30,51.297V249.344C43.153,259.75,31,278.886,31,301z"/>
	<path d="M91,347c0,90.981,74.019,165,165,165s165-74.019,165-165V241H91V347z M316,271c8.284,0,15,6.714,15,15
		c0,8.284-6.716,15-15,15s-15-6.716-15-15C301,277.714,307.716,271,316,271z M224.198,378.816c16.963,17.021,46.641,17.021,63.604,0
		c5.859-5.859,15.366-5.845,21.226-0.015c5.859,5.859,5.859,15.352,0.015,21.226C294.877,414.192,276.054,422,256,422
		s-38.877-7.808-53.042-21.973c-5.845-5.874-5.845-15.366,0.015-21.226C208.832,372.972,218.339,372.957,224.198,378.816z M196,271
		c8.284,0,15,6.714,15,15c0,8.284-6.716,15-15,15s-15-6.716-15-15C181,277.714,187.716,271,196,271z"/>
	<path d="M48.54,211H463.46c9.739,0,17.615-9.348,14.59-18.605C470.204,168.386,447.6,151,421,151H91
		c-26.6,0-49.204,17.386-57.05,41.395C30.925,201.652,38.8,211,48.54,211z"/>
	<path d="M328.244,121h86.36C394.95,51.85,331.366,0,256,0C295.571,0,320.338,57.078,328.244,121z"/>
	<path d="M256,0C180.634,0,117.05,51.85,97.396,121h86.36C191.662,57.078,216.429,0,256,0z"/>
	<path d="M256,31c-14.711,0-34.517,34.164-41.895,90h83.789C290.517,65.164,270.711,31,256,31z"/>
	<path d="M451,249.344v103.054c17.78-10.421,30-29.337,30-51.398C481,278.886,468.847,259.75,451,249.344z"/>
</g>
<g>
</g>
<g>
</g>
<g>
</g>
<g>
</g>
<g>
</g>
<g>
</g>
<g>
</g>
<g>
</g>
<g>
</g>
<g>
</g>
<g>
</g>
<g>
</g>
<g>
</g>
<g>
</g>
<g>
</g>
</svg>
