<?xml version="1.0" encoding="iso-8859-1"?>
<!-- Generator: Adobe Illustrator 19.0.0, SVG Export Plug-In . SVG Version: 6.00 Build 0)  -->
<svg version="1.1" id="Layer_1" xmlns="http://www.w3.org/2000/svg" xmlns:xlink="http://www.w3.org/1999/xlink" x="0px" y="0px"
	 viewBox="0 0 512.015 512.015" style="enable-background:new 0 0 512.015 512.015;" xml:space="preserve">
<g>
	<path d="M31.007,301c0,21.989,12.314,40.593,30,51.037V249.344C43.16,259.75,31.007,278.886,31.007,301z"/>
	<path d="M376.447,117.906c15.72,0,27.673-2.103,39.315-6.132L401.73,56.045C393.468,23.042,363.952,0,329.938,0
		c-11.396,0-22.837,2.695-33.105,7.808l-40.825,20.42l-40.854-20.42C204.928,2.695,193.488,0,182.077,0
		c-34.014,0-63.53,23.042-71.792,56.06l-14.028,55.7c11.631,4.032,23.571,6.146,39.311,6.146H376.447z"/>
	<path d="M508.686,136.923c-7.784-15.507-26.547-21.989-42.261-14.106c-30,15.033-51.107,26.289-89.979,26.289H135.568
		c-38.945,0-59.973-11.297-89.979-26.289c-15.604-7.828-34.497-1.465-42.261,14.092c-7.764,15.542-1.45,34.497,14.092,42.275
		c30.002,14.989,63.264,32.711,118.148,32.711h240.879c54.88,0,88.146-17.709,118.148-32.711
		C510.137,171.405,516.45,152.45,508.686,136.923z"/>
	<path d="M135.568,242.094c-16.445,0-31.108-1.555-44.561-3.992V346c0,6.502,0.482,12.947,1.241,19.345l158.192-63.276
		c3.574-1.436,7.559-1.436,11.133,0l157.094,62.833c1.221-8.335,2.34-16.714,2.34-25.347V238.102
		c-13.453,2.437-28.118,3.992-44.561,3.992H135.568z M196.007,301c-8.284,0-15-6.716-15-15s6.716-15,15-15s15,6.716,15,15
		S204.291,301,196.007,301z M316.007,301c-8.284,0-15-6.716-15-15s6.716-15,15-15s15,6.716,15,15S324.291,301,316.007,301z"/>
	<path d="M98.601,396.12c8.677,27.751,24.538,53.086,46.43,72.99c30.762,27.964,69.595,42.905,110.757,42.905
		c5.42,0,10.884-0.264,16.377-0.791c65.248-6.218,118.943-53.599,139.493-115.812l-155.651-62.254L98.601,396.12z"/>
	<path d="M451.007,249.401v103.198c17.999-10.199,30-29.399,30-51.599S468.708,259.6,451.007,249.401z"/>
</g>
<g>
</g>
<g>
</g>
<g>
</g>
<g>
</g>
<g>
</g>
<g>
</g>
<g>
</g>
<g>
</g>
<g>
</g>
<g>
</g>
<g>
</g>
<g>
</g>
<g>
</g>
<g>
</g>
<g>
</g>
</svg>
