<?xml version="1.0" encoding="iso-8859-1"?>
<!-- Generator: Adobe Illustrator 19.0.0, SVG Export Plug-In . SVG Version: 6.00 Build 0)  -->
<svg version="1.1" id="Layer_1" xmlns="http://www.w3.org/2000/svg" xmlns:xlink="http://www.w3.org/1999/xlink" x="0px" y="0px"
	 viewBox="0 0 512 512" style="enable-background:new 0 0 512 512;" xml:space="preserve">
<g>
	<path d="M256,436c-26.6,0-49.204,17.388-57.05,41.395c-3.025,9.26,4.85,18.605,14.59,18.605h84.921
		c9.739,0,17.615-9.346,14.59-18.605C305.204,453.388,282.6,436,256,436z"/>
	<path d="M357.113,50.894C329.147,29.112,294.112,16,256,16c-38.113,0-73.151,13.114-101.116,34.898L256,131.796L357.113,50.894z"/>
	<path d="M481.209,233.817c0.341-2.585,0.791-5.14,0.791-7.817c0-33.091-27.909-60-61-60h-1.41
		c-3.329-35.971-17.635-68.769-40.371-94.358l-113.844,91.077C262.636,164.901,259.311,166,256,166s-6.636-1.099-9.375-3.281
		L132.779,71.646C110.045,97.233,95.739,130.029,92.41,166H91c-33.091,0-61,26.909-61,60c0,2.677,0.45,5.231,0.791,7.817
		C12.206,244.252,0,263.98,0,286c0,33.091,26.909,60,60,60c12.621,0,25.311-3.957,34.984-10.637
		c10.241,48.254,41.259,89.643,85.375,112.322C196.617,422.194,224.709,406,256,406c31.296,0,59.392,16.198,75.648,41.682
		c44.11-22.681,75.126-64.065,85.367-112.319C426.689,342.043,439.379,346,452,346c33.091,0,60-26.909,60-60
		C512,263.98,499.794,244.252,481.209,233.817z M60,316c-16.538,0-30-13.462-30-30c0-9.714,4.812-18.474,12.29-24.012
		C53.253,276.48,71.464,286,91,286C91,302.538,76.538,316,60,316z M181,241c0-8.284,6.716-15,15-15s15,6.716,15,15s-6.716,15-15,15
		S181,249.284,181,241z M309.042,354.027C294.877,368.192,276.054,376,256,376s-38.877-7.808-53.042-21.973
		c-5.845-5.874-5.845-15.366,0.015-21.226c5.859-5.83,15.366-5.845,21.226,0.015c16.963,17.021,46.641,17.021,63.604,0
		c5.859-5.859,15.366-5.845,21.226-0.015C314.887,338.661,314.887,348.153,309.042,354.027z M316,256c-8.284,0-15-6.716-15-15
		s6.716-15,15-15s15,6.716,15,15S324.284,256,316,256z M452,316c-16.538,0-31-13.462-31-30c19.536,0,37.747-9.52,48.71-24.012
		C477.188,267.526,482,276.286,482,286C482,302.538,468.538,316,452,316z"/>
</g>
<g>
</g>
<g>
</g>
<g>
</g>
<g>
</g>
<g>
</g>
<g>
</g>
<g>
</g>
<g>
</g>
<g>
</g>
<g>
</g>
<g>
</g>
<g>
</g>
<g>
</g>
<g>
</g>
<g>
</g>
</svg>
