<?xml version="1.0" encoding="iso-8859-1"?>
<!-- Generator: Adobe Illustrator 19.0.0, SVG Export Plug-In . SVG Version: 6.00 Build 0)  -->
<svg version="1.1" id="Layer_1" xmlns="http://www.w3.org/2000/svg" xmlns:xlink="http://www.w3.org/1999/xlink" x="0px" y="0px"
	 viewBox="0 0 512 512" style="enable-background:new 0 0 512 512;" xml:space="preserve">
<g>
	<path d="M443.5,90c-4.958,0-9.648,1-14.114,2.488L317.875,3.281c-0.253-0.203-0.566-0.244-0.828-0.427
		C314.393,0.988,310.946,0,308.5,0h-180c-7.148,0-13.301,5.054-14.707,12.056L97.872,91.653
		c25.488-5.416,50.718,2.802,68.128,20.099c27.656-27.48,77.344-27.48,105,0c17.41-17.298,42.64-25.516,68.128-20.099l-7.842-39.207
		l73.958,59.163c-4.197,6.837-6.744,14.795-6.744,23.39c0,24.814,20.186,45,45,45s45-20.186,45-45S468.314,90,443.5,90z"/>
	<path d="M113.5,211c16.304,0,31.377-9.067,39.331-23.687c5.244-9.639,21.094-9.639,26.338,0C187.123,201.933,202.196,211,218.5,211
		s31.377-9.067,39.331-23.687c2.622-4.819,7.676-7.822,13.169-7.822s10.547,3.003,13.169,7.822
		C292.123,201.933,307.196,211,323.5,211c24.814,0,45-20.186,45-45s-20.186-45-45-45c-16.304,0-31.377,9.067-39.331,23.687
		c-5.244,9.639-21.094,9.639-26.338,0C249.877,130.067,234.804,121,218.5,121s-31.377,9.067-39.331,23.687
		c-5.244,9.639-21.094,9.639-26.338,0C144.877,130.067,129.804,121,113.5,121c-24.814,0-45,20.186-45,45S88.686,211,113.5,211z"/>
	<path d="M279.408,308.119c-6.284-6.284-14.956-9.082-23.701-7.646c-7.969,1.289-14.736,5.859-18.882,12.642l6.445,6.445
		c8.73,8.73,19.526,15.396,31.23,19.307c31.289,10.356,65.728,0.322,86.543-24.58l-22.983,7.661
		C317.304,328.905,294.848,323.588,279.408,308.119z"/>
	<path d="M136.381,286.908c13.198-13.184,31.377-19.116,49.717-16.04c12.786,2.075,23.901,8.35,32.402,17.446
		c8.502-9.097,19.616-15.372,32.402-17.446c18.369-3.062,36.519,2.856,49.717,16.04c7.383,7.368,18.091,9.902,27.949,6.592
		l54.932-18.307v-64.656v-0.002C369.817,228.913,348.12,241,323.5,241c-19.907,0-38.672-8.013-52.5-21.753
		c-27.656,27.48-77.344,27.48-105,0C152.172,232.987,133.407,241,113.5,241c-24.62,0-46.317-12.087-60-30.465v0.002v64.656
		l54.932,18.307C118.319,296.811,129.013,294.276,136.381,286.908z"/>
	<path d="M157.592,308.119c-15.439,15.454-37.925,20.742-58.652,13.828l-22.983-7.661c20.801,24.902,55.21,35.01,86.543,24.565
		c11.704-3.896,22.5-10.562,31.23-19.292l6.445-6.445c-4.146-6.782-10.913-11.353-18.882-12.642
		C172.533,299.022,163.891,301.835,157.592,308.119z"/>
	<path d="M391.176,325.027c-20.757,31.143-55.562,48.896-91.597,48.896c-11.528,0-23.188-1.816-34.57-5.596
		c-16.099-5.376-30.952-14.561-42.949-26.558l-3.56-3.56l-3.56,3.56c-11.997,11.997-26.851,21.182-42.949,26.543
		c-11.367,3.794-23.042,5.61-34.57,5.61c-36.035,0-70.84-17.754-91.597-48.896l-4.072-6.107C30.249,330.066,23.5,345.515,23.5,362
		c0,20.874,10.62,39.946,28.389,51.006c9.683,6.021,20.713,9.829,31.611,8.979V422c0,33.091,26.909,60,60,60
		c7.295,0,14.458-1.348,21.182-3.926C174.438,498.201,195.033,512,218.5,512s44.063-13.799,53.818-33.926
		c6.724,2.578,13.887,3.926,21.182,3.926c33.091,0,60-26.909,60-60c33.091,0,60-26.909,60-60c0-16.485-6.749-31.934-18.252-43.079
		L391.176,325.027z"/>
	<path d="M339.134,92.655l0.004,0.04l0.009-0.04C339.141,92.653,339.134,92.655,339.134,92.655z"/>
	<path d="M97.863,92.696l0.009-0.042c0,0-0.013,0-0.018,0.002L97.863,92.696z"/>
</g>
<g>
</g>
<g>
</g>
<g>
</g>
<g>
</g>
<g>
</g>
<g>
</g>
<g>
</g>
<g>
</g>
<g>
</g>
<g>
</g>
<g>
</g>
<g>
</g>
<g>
</g>
<g>
</g>
<g>
</g>
</svg>
