<?xml version="1.0" encoding="iso-8859-1"?>
<!-- Generator: Adobe Illustrator 19.0.0, SVG Export Plug-In . SVG Version: 6.00 Build 0)  -->
<svg version="1.1" id="Layer_1" xmlns="http://www.w3.org/2000/svg" xmlns:xlink="http://www.w3.org/1999/xlink" x="0px" y="0px"
	 viewBox="0 0 512 512" style="enable-background:new 0 0 512 512;" xml:space="preserve">
<g>
	<path d="M421,458.819c0,4.424,0.952,8.423,2.534,12.085l21.605,37.69c1.207,2.104,3.444,3.402,5.87,3.406
		c2.424,0.004,4.667-1.289,5.878-3.391l20.612-35.742c2.3-4.307,3.501-9.17,3.501-14.048c0-16.538-13.462-30-30-30
		S421,442.281,421,458.819z"/>
	<path d="M31,458.819c0,4.424,0.952,8.423,2.534,12.085l21.605,37.69c1.207,2.104,3.444,3.402,5.87,3.406
		c2.424,0.004,4.667-1.289,5.878-3.391l20.612-35.742c2.3-4.307,3.501-9.17,3.501-14.048c0-16.538-13.462-30-30-30
		S31,442.281,31,458.819z"/>
	<path d="M421,90c0-19.277-7.881-36.958-15-49.014C398.881,53.042,391,70.723,391,90s7.881,36.958,15,49.014
		C413.119,126.958,421,109.277,421,90z"/>
	<path d="M361,90c0-21.26,6.793-40.263,14.262-55.034l-0.004,0.007C339.481,12.448,298.761,0,256,0
		C169.847,0,94.944,48.715,57.151,120h308.298C362.824,110.678,361,100.644,361,90z"/>
	<rect x="31" y="301" width="60" height="31"/>
	<path d="M237.843,150H44.125C35.779,173.5,31,198.673,31,225v46h60v-46c0-8.291,6.709-15,15-15h30
		C174.906,210,225.123,182.12,237.843,150z"/>
	<path d="M480.077,204.551c-3.047-33.62-13.713-66.052-31.069-95.035c0-0.002,0-0.004,0-0.004
		c-6.905,36.962-30.639,64.164-31.816,65.479c-2.856,3.193-6.914,5.01-11.191,5.01s-8.335-1.816-11.191-5.01
		c-0.679-0.758-8.903-10.148-17.064-24.99H274.157c12.72,32.12,62.937,60,101.843,60h30c8.291,0,15,6.709,15,15v46h60v-61.249
		C481,207.92,480.678,206.162,480.077,204.551z"/>
	<rect x="421" y="301" width="60" height="31"/>
	<path d="M256,179.37C230.102,216.182,175.961,240,136,240h-15v137c0,74.522,60.385,134.958,134.907,135c0.031,0,0.062,0,0.093,0
		c74.559,0,135-60.441,135-135V240h-15C336.039,240,281.898,216.182,256,179.37z M181,286c0-8.286,6.716-15,15-15s15,6.714,15,15
		c0,8.284-6.716,15-15,15S181,294.284,181,286z M309.042,400.027C294.877,414.192,276.054,422,256,422s-38.877-7.808-53.042-21.973
		c-5.845-5.874-5.845-15.366,0.015-21.226c5.859-5.83,15.366-5.845,21.226,0.015c16.963,17.021,46.641,17.021,63.604,0
		c5.859-5.859,15.366-5.845,21.226-0.015C314.887,384.661,314.887,394.153,309.042,400.027z M316,301c-8.284,0-15-6.716-15-15
		c0-8.286,6.716-15,15-15s15,6.714,15,15C331,294.284,324.284,301,316,301z"/>
	<path d="M31,398.819c0,16.567,13.431,30,30,30s30-13.433,30-30V362H31V398.819z"/>
	<path d="M421,398.819c0,16.567,13.431,30,30,30s30-13.433,30-30V362h-60V398.819z"/>
</g>
<g>
</g>
<g>
</g>
<g>
</g>
<g>
</g>
<g>
</g>
<g>
</g>
<g>
</g>
<g>
</g>
<g>
</g>
<g>
</g>
<g>
</g>
<g>
</g>
<g>
</g>
<g>
</g>
<g>
</g>
</svg>
