<?xml version="1.0" encoding="iso-8859-1"?>
<!-- Generator: Adobe Illustrator 19.0.0, SVG Export Plug-In . SVG Version: 6.00 Build 0)  -->
<svg version="1.1" id="Layer_1" xmlns="http://www.w3.org/2000/svg" xmlns:xlink="http://www.w3.org/1999/xlink" x="0px" y="0px"
	 viewBox="0 0 512 512" style="enable-background:new 0 0 512 512;" xml:space="preserve">
<g>
	<path d="M406,242h15v-32h-57.237C369.976,227.422,386.47,242,406,242z"/>
	<path d="M365.175,0h-218.35C100.386,0,65.25,41.744,72.851,87.319L88.296,180h335.409l15.445-92.681
		C446.759,41.695,411.566,0,365.175,0z M286,120h-15v15c0,8.291-6.709,15-15,15s-15-6.709-15-15v-15h-15c-8.291,0-15-6.709-15-15
		s6.709-15,15-15h15V75c0-8.291,6.709-15,15-15s15,6.709,15,15v15h15c8.291,0,15,6.709,15,15S294.291,120,286,120z"/>
	<path d="M148.237,210H91v32h15C125.53,242,142.024,227.422,148.237,210z"/>
	<path d="M332.518,210H179.482c-6.969,34.191-37.266,62-73.482,62H91v75c0,90.981,74.019,165,165,165s165-74.019,165-165v-75h-15
		C369.784,272,339.487,244.191,332.518,210z M181,287c0-8.286,6.716-15,15-15s15,6.714,15,15c0,8.284-6.716,15-15,15
		S181,295.284,181,287z M309.042,400.027C294.877,414.192,276.054,422,256,422s-38.877-7.808-53.042-21.973
		c-5.845-5.874-5.845-15.366,0.015-21.226c5.859-5.83,15.366-5.845,21.226,0.015c16.963,17.021,46.641,17.021,63.604,0
		c5.859-5.859,15.366-5.845,21.226-0.015C314.887,384.661,314.887,394.153,309.042,400.027z M316,302c-8.284,0-15-6.716-15-15
		c0-8.286,6.716-15,15-15s15,6.714,15,15C331,295.284,324.284,302,316,302z"/>
	<path d="M31,302c0,22.114,12.153,41.25,30,51.656V250.344C43.153,260.75,31,279.886,31,302z"/>
	<path d="M451,250.344v103.312c17.847-10.406,30-29.542,30-51.656S468.847,260.75,451,250.344z"/>
</g>
<g>
</g>
<g>
</g>
<g>
</g>
<g>
</g>
<g>
</g>
<g>
</g>
<g>
</g>
<g>
</g>
<g>
</g>
<g>
</g>
<g>
</g>
<g>
</g>
<g>
</g>
<g>
</g>
<g>
</g>
</svg>
