<?xml version="1.0" encoding="iso-8859-1"?>
<!-- Generator: Adobe Illustrator 19.0.0, SVG Export Plug-In . SVG Version: 6.00 Build 0)  -->
<svg version="1.1" id="Layer_1" xmlns="http://www.w3.org/2000/svg" xmlns:xlink="http://www.w3.org/1999/xlink" x="0px" y="0px"
	 viewBox="0 0 512 512" style="enable-background:new 0 0 512 512;" xml:space="preserve">
<g>
	<path d="M242.957,123.49l-1.421,8.32l7.456-3.926c4.384-2.309,9.591-2.309,13.975,0l7.456,3.926l-1.421-8.32
		c-0.835-4.863,0.776-9.829,4.307-13.271l6.035-5.889l-8.335-1.216c-4.893-0.703-9.111-3.779-11.294-8.203l-3.735-7.559
		l-3.735,7.559c-2.183,4.424-6.401,7.5-11.294,8.203l-8.335,1.216l6.035,5.889C242.18,113.661,243.792,118.627,242.957,123.49z"/>
	<path d="M105.979,211h300c24.814,0,45-20.186,45-45V75c0-41.353-33.647-75-75-75h-240c-41.353,0-75,33.647-75,75v91
		C60.979,190.814,81.165,211,105.979,211z M198.22,79.018l30.615-4.453l13.696-27.744c5.039-10.254,21.855-10.254,26.895,0
		l13.696,27.744l30.615,4.453c12.264,1.778,17.194,16.924,8.32,25.576L299.895,126.2l5.229,30.498
		c2.098,12.206-10.765,21.599-21.768,15.806l-27.378-14.399l-27.378,14.399c-10.941,5.804-23.873-3.55-21.768-15.806l5.229-30.498
		L189.9,104.594C181.027,95.942,185.956,80.796,198.22,79.018z"/>
	<path d="M61.003,225.637L60.979,226v123.695c0,18.867-7.764,37.456-21.299,51.006c-12.034,12.065-11.342,31.208-0.015,42.598
		c12.252,11.585,30.37,11.596,42.612,0c24.803-25.792,38.701-57.801,38.701-93.604V241h-15
		C89.042,241,73.573,235.144,61.003,225.637z"/>
	<path d="M360.979,241h-210v108.695c0,33.376-9.437,63.669-29.401,92.501C152.001,485.325,201.326,512,255.979,512
		c54.662,0,103.997-26.686,134.418-69.825c-20.264-29.149-29.418-59.542-29.418-92.479V241z M180.979,286c0-8.286,6.716-15,15-15
		s15,6.714,15,15c0,8.284-6.716,15-15,15S180.979,294.284,180.979,286z M309.021,400.027C294.856,414.192,276.033,422,255.979,422
		s-38.877-7.808-53.042-21.973c-5.845-5.874-5.845-15.366,0.015-21.226c5.859-5.83,15.366-5.845,21.226,0.015
		c16.963,17.021,46.641,17.021,63.604,0c5.859-5.859,15.366-5.845,21.226-0.015C314.866,384.661,314.866,394.153,309.021,400.027z
		 M315.979,301c-8.284,0-15-6.716-15-15c0-8.286,6.716-15,15-15s15,6.714,15,15C330.979,294.284,324.263,301,315.979,301z"/>
	<path d="M472.278,400.701c-14.429-14.429-21.299-35.717-21.299-112.006v-63.078c-12.574,9.518-28.052,15.383-45,15.383h-15v108.695
		c0,36.015,14.039,67.967,38.687,93.604c12.277,11.609,30.399,11.578,42.612,0C484.026,431.551,484.026,412.449,472.278,400.701z"/>
</g>
<g>
</g>
<g>
</g>
<g>
</g>
<g>
</g>
<g>
</g>
<g>
</g>
<g>
</g>
<g>
</g>
<g>
</g>
<g>
</g>
<g>
</g>
<g>
</g>
<g>
</g>
<g>
</g>
<g>
</g>
</svg>
