<?xml version="1.0" encoding="iso-8859-1"?>
<!-- Generator: Adobe Illustrator 19.0.0, SVG Export Plug-In . SVG Version: 6.00 Build 0)  -->
<svg version="1.1" id="Layer_1" xmlns="http://www.w3.org/2000/svg" xmlns:xlink="http://www.w3.org/1999/xlink" x="0px" y="0px"
	 viewBox="0 0 512 512" style="enable-background:new 0 0 512 512;" xml:space="preserve">
<g>
	<path d="M504.46,122.267c-0.3-0.178-0.436-0.527-0.751-0.685l-241-120c-4.219-2.109-9.199-2.109-13.418,0l-241,120
		C3.208,124.131,0,129.316,0,135s3.208,10.869,8.291,13.418L96.728,180l25.854-51.709C125.131,123.208,130.316,120,136,120h240
		c5.684,0,10.869,3.208,13.418,8.291L415.272,180L482,156.259V255c0,8.291,6.709,15,15,15s15-6.709,15-15V135
		C512,130.261,509.008,124.938,504.46,122.267z"/>
	<polygon points="145.272,151 130.272,181 381.728,181 366.728,151 	"/>
	<path d="M166,331c24.814,0,45-20.186,45-45c0-8.276-6.724-15-15-15h-60c-8.276,0-15,6.724-15,15v30c0,8.276,6.724,15,15,15H166z"/>
	<path d="M376,361h-30c-36.216,0-66.513-25.809-73.482-60h-33.036c-6.969,34.191-37.266,60-73.482,60h-30c-24.814,0-45-20.186-45-45
		v30c0,90.981,74.019,166,165,166s165-75.019,165-166v-30C421,340.814,400.814,361,376,361z M309.042,399.027
		C294.877,413.192,276.054,421,256,421s-38.877-7.808-53.042-21.973c-5.845-5.874-5.845-15.366,0.015-21.226
		c5.859-5.83,15.366-5.845,21.226,0.015c16.963,17.021,46.641,17.021,63.604,0c5.859-5.859,15.366-5.845,21.226-0.015
		C314.887,383.661,314.887,393.153,309.042,399.027z"/>
	<path d="M376,331c8.276,0,15-6.724,15-15v-30c0-8.276-6.724-15-15-15h-60c-8.276,0-15,6.724-15,15c0,24.814,20.186,45,45,45H376z"
		/>
	<path d="M91,286c0-24.814,20.186-45,45-45h60c19.53,0,36.024,12.578,42.237,30h35.526c6.213-17.422,22.707-30,42.237-30h60
		c24.814,0,45,20.186,45,45v-75c-337.471,0-196.71,0-330,0V286z"/>
	<path d="M31,301c0,22.114,12.153,41.25,30,51.656V249.344C43.153,259.75,31,278.886,31,301z"/>
	<path d="M451,249.344v103.312c17.847-10.406,30-29.542,30-51.656S468.847,259.75,451,249.344z"/>
</g>
<g>
</g>
<g>
</g>
<g>
</g>
<g>
</g>
<g>
</g>
<g>
</g>
<g>
</g>
<g>
</g>
<g>
</g>
<g>
</g>
<g>
</g>
<g>
</g>
<g>
</g>
<g>
</g>
<g>
</g>
</svg>
