<?xml version="1.0" encoding="iso-8859-1"?>
<!-- Generator: Adobe Illustrator 19.0.0, SVG Export Plug-In . SVG Version: 6.00 Build 0)  -->
<svg version="1.1" id="Layer_1" xmlns="http://www.w3.org/2000/svg" xmlns:xlink="http://www.w3.org/1999/xlink" x="0px" y="0px"
	 viewBox="0 0 511.991 511.991" style="enable-background:new 0 0 511.991 511.991;" xml:space="preserve">
<g>
	<path d="M495.695,34.399c0-2.1-0.601-4.199-2.1-6c-1.8-1.5-3.9-2.098-6-2.098c-19.199,1.8-37.2,9.899-51.899,23.099
		s-24.6,30.901-27.9,50.101c3.3,5.099,6.601,10.499,9.3,15.899c19.801-2.401,38.101-11.4,52.5-25.8
		C484.595,74.6,493.595,55.099,495.695,34.399z"/>
	<path d="M350.84,27.719c-15.544-2.261-31.694-1.827-47.455,1.512c15.507,3.1,30.064,8.644,43.654,15.802
		C347.823,38.997,349.05,33.198,350.84,27.719z"/>
	<path d="M384.995,72.199c6.601-17.1,16.8-32.699,30.901-45.3c2.699-2.699,6-4.499,9.3-6.899c-4.801-7.8-9.901-13.401-13.801-17.599
		c-1.199-1.5-3.3-2.401-5.4-2.401s-3.9,0.901-5.4,2.401c-8.699,9.6-24.6,29.898-24.6,53.599c0,2.999,0.3,6,0.601,8.699
		C379.595,66.8,382.296,69.5,384.995,72.199z"/>
	<path d="M375.995,176c-16.694,0-30.201,13.632-29.998,30.374C346.199,222.807,332.431,236,315.995,236h-210
		c-10.571,0-20.57-2.168-30-5.53v108.182c0,86.125,62.8,164.182,148.517,172.542C322.864,520.787,405.995,442.42,405.995,346
		c0-63.082,0-74.545,0-140C405.995,189.431,392.565,176,375.995,176z M165.995,281c0-8.286,6.716-15,15-15s15,6.714,15,15
		c0,8.284-6.716,15-15,15S165.995,289.284,165.995,281z M294.037,399.027C279.872,413.192,261.049,421,240.995,421
		s-38.877-7.808-53.042-21.973c-5.845-5.874-5.845-15.366,0.015-21.226c5.859-5.83,15.366-5.845,21.226,0.015
		c16.963,17.021,46.641,17.021,63.604,0c5.859-5.859,15.366-5.845,21.226-0.015C299.882,383.661,299.882,393.153,294.037,399.027z
		 M300.995,296c-8.284,0-15-6.716-15-15c0-8.286,6.716-15,15-15s15,6.714,15,15C315.995,289.284,309.279,296,300.995,296z"/>
	<path d="M309.078,206c3.907,0,6.868-3.06,7.317-6.942C319.842,169.227,345.25,146,375.995,146c8.209,0,16.029,1.672,23.159,4.667
		C381.884,96.001,331.299,56,270.995,56h-135c-49.629,0-90,40.371-90,90c0,4.193,0.734,8.227,1.291,12.301
		C52.977,185.505,77.121,206,105.995,206H309.078z"/>
	<path d="M456.84,209.911c6.021-15.513,9.155-32.109,9.155-48.911c0-10.106-1.399-19.99-3.589-29.703
		c-10.605,5.704-21.779,10.203-33.671,12.479c4.539,14.995,7.26,30.764,7.26,47.225v135c33.091,0,60-26.909,60-60
		C495.995,240.424,479.911,218.539,456.84,209.911z"/>
	<path d="M15.995,301c0,22.114,12.153,41.25,30,51.656V249.344C28.148,259.75,15.995,278.886,15.995,301z"/>
</g>
<g>
</g>
<g>
</g>
<g>
</g>
<g>
</g>
<g>
</g>
<g>
</g>
<g>
</g>
<g>
</g>
<g>
</g>
<g>
</g>
<g>
</g>
<g>
</g>
<g>
</g>
<g>
</g>
<g>
</g>
</svg>
