<?xml version="1.0" encoding="iso-8859-1"?>
<!-- Generator: Adobe Illustrator 19.0.0, SVG Export Plug-In . SVG Version: 6.00 Build 0)  -->
<svg version="1.1" id="Layer_1" xmlns="http://www.w3.org/2000/svg" xmlns:xlink="http://www.w3.org/1999/xlink" x="0px" y="0px"
	 viewBox="0 0 512 512" style="enable-background:new 0 0 512 512;" xml:space="preserve">
<g>
	<path d="M211,136c0-5.284,1.082-10.285,2.763-15H91v30h122.763C212.082,146.285,211,141.284,211,136z"/>
	<path d="M426.931,181H164.304c55.305,25.457,113.593,43.436,173.932,52.617c31.362,4.688,61.699-5.64,83.745-27.671
		c4.195-4.186,7.833-8.745,11.047-13.555c1.501-2.249,1.642-5.142,0.366-7.526C432.12,182.481,429.635,181,426.931,181z"/>
	<path d="M241,136c0,8.276,6.724,15,15,15s15-6.724,15-15s-6.724-15-15-15S241,127.724,241,136z"/>
	<path d="M421,45c0-24.814-20.186-45-45-45H136c-24.814,0-45,20.186-45,45v46h330V45z"/>
	<path d="M421,151v-30H298.237c1.681,4.715,2.763,9.716,2.763,15s-1.082,10.285-2.763,15H421z"/>
	<path d="M333.739,263.28c-70.4-10.723-138.369-32.285-202.031-64.116L95.369,181H91v165c0,90.981,74.019,166,165,166
		s165-75.019,165-166V244.682c-20.268,12.907-43.597,20.048-68.013,20.048C346.659,264.73,340.229,264.247,333.739,263.28z M181,316
		c0-8.286,6.716-15,15-15s15,6.714,15,15c0,8.284-6.716,15-15,15S181,324.284,181,316z M309.042,430.027
		C294.877,444.192,276.054,452,256,452s-38.877-7.808-53.042-21.973c-5.845-5.874-5.845-15.366,0.015-21.226
		c5.859-5.83,15.366-5.845,21.226,0.015c16.963,17.021,46.641,17.021,63.604,0c5.859-5.859,15.366-5.845,21.226-0.015
		C314.887,414.661,314.887,424.153,309.042,430.027z M316,331c-8.284,0-15-6.716-15-15c0-8.286,6.716-15,15-15s15,6.714,15,15
		C331,324.284,324.284,331,316,331z"/>
	<path d="M451,249.344v103.312c17.847-10.406,30-29.542,30-51.656S468.847,259.75,451,249.344z"/>
	<path d="M31,301c0,22.114,12.153,41.25,30,51.656V249.344C43.153,259.75,31,278.886,31,301z"/>
</g>
<g>
</g>
<g>
</g>
<g>
</g>
<g>
</g>
<g>
</g>
<g>
</g>
<g>
</g>
<g>
</g>
<g>
</g>
<g>
</g>
<g>
</g>
<g>
</g>
<g>
</g>
<g>
</g>
<g>
</g>
</svg>
