<?xml version="1.0" encoding="iso-8859-1"?>
<!-- Generator: Adobe Illustrator 19.0.0, SVG Export Plug-In . SVG Version: 6.00 Build 0)  -->
<svg version="1.1" id="Layer_1" xmlns="http://www.w3.org/2000/svg" xmlns:xlink="http://www.w3.org/1999/xlink" x="0px" y="0px"
	 viewBox="0 0 512 512" style="enable-background:new 0 0 512 512;" xml:space="preserve">
<g>
	<path d="M234.535,414.926c13.268,6.771,29.661,6.771,42.931,0c-10.708-6.973-14.535-10.785-21.465-17.715
		C249.073,404.138,245.237,407.959,234.535,414.926z"/>
	<path d="M195.092,368.119c-15.439,15.454-37.925,20.713-58.652,13.828l-22.983-7.661c20.801,24.902,55.21,35.024,86.543,24.565
		c17.75-5.909,25.995-14.057,37.676-25.737C228.772,358.548,208.032,355.238,195.092,368.119z"/>
	<path d="M308.568,428.809C294.611,442.632,275.839,451,256,451c-19.843,0-38.619-8.37-52.575-22.198
		c-9.445,2.558-19.006,4.122-28.504,4.122c-26.596,0-52.44-9.798-72.543-27.385C126.889,468.717,187.938,512,256,512
		s129.111-43.283,153.622-106.461c-20.103,17.587-45.947,27.385-72.543,27.385C327.578,432.924,318.018,431.358,308.568,428.809z"/>
	<path d="M398.544,374.286l-22.983,7.661c-20.713,6.943-43.213,1.655-58.652-13.828c-12.883-12.854-33.673-9.584-42.583,4.995
		c11.73,11.728,19.933,19.823,37.676,25.752C343.305,409.237,377.729,399.188,398.544,374.286z"/>
	<path d="M406,0c-16.538,0-30,13.462-30,30c0,5.885,2.146,11.067,5.089,15.705L331,86.796l-50.096-41.08
		C283.85,41.074,286,35.891,286,30c0-16.538-13.462-30-30-30s-30,13.462-30,30c0,5.885,2.146,11.065,5.089,15.703L181,86.796
		l-50.089-41.093C133.852,41.065,136,35.885,136,30c0-16.538-13.462-30-30-30S76,13.462,76,30c0,10.957,6.2,20.151,15,25.388
		c0,42.839,0,80.693,0,125.612h128.789l-16.816-16.816c-5.859-5.859-5.859-15.352,0-21.211l42.422-42.437
		c5.625-5.625,15.586-5.625,21.211,0l42.422,42.437c5.859,5.859,5.859,15.352,0,21.211L292.211,181H421c0-47.166,0-81.967,0-125.612
		c8.8-5.237,15-14.431,15-25.388C436,13.462,422.538,0,406,0z"/>
	<path d="M31,241c0,22.114,12.153,41.25,30,51.656V189.344C43.153,199.75,31,218.886,31,241z"/>
	<path d="M451,189.344v103.312c17.847-10.406,30-29.542,30-51.656S468.847,199.75,451,189.344z"/>
	<path d="M91,335.193l54.932,18.307c9.888,3.325,20.596,0.776,27.949-6.592c23.047-23.047,59.956-22.31,82.119,1.406
		c22.213-23.767,59.105-24.397,82.119-1.406c7.397,7.368,18.091,9.917,27.949,6.592L421,335.193V211H91V335.193z M316,241
		c8.284,0,15,6.714,15,15c0,8.284-6.716,15-15,15s-15-6.716-15-15C301,247.714,307.716,241,316,241z M196,241
		c8.284,0,15,6.714,15,15c0,8.284-6.716,15-15,15s-15-6.716-15-15C181,247.714,187.716,241,196,241z"/>
	<polygon points="256,132.353 234.789,153.578 256,174.789 277.211,153.578 	"/>
</g>
<g>
</g>
<g>
</g>
<g>
</g>
<g>
</g>
<g>
</g>
<g>
</g>
<g>
</g>
<g>
</g>
<g>
</g>
<g>
</g>
<g>
</g>
<g>
</g>
<g>
</g>
<g>
</g>
<g>
</g>
</svg>
