<?xml version="1.0" encoding="utf-8" ?>	<!-- Generator: Assembly 1.8 - http://assemblyapp.co -->	<svg version="1.1" xmlns="http://www.w3.org/2000/svg" xmlns:xlink="http://www.w3.org/1999/xlink" width="2048.00" height="2048.00" viewBox="0 0 2048.0 2048.0">		<rect x="0" y="0" width="2048.00" height="2048.00" fill="#ffffff" />		<g id="document" transform="matrix(1,0,0,1,1024.0,1024.0)">			<path d="M-467.538,-117.742 C-529.713,-117.742 -580.046,-67.4097 -580.046,-5.23394 C-580.046,56.9418 -529.713,107.275 -467.538,107.275 L-467.538,-117.742 Z " fill="#ffdacb" fill-opacity="1.00" />			<path d="M470.469,1061.83 L259.147,668.101 C236.903,626.949 194.638,602.48 149.037,602.48 L-160.16,602.48 C-207.985,602.48 -251.362,629.173 -272.494,671.438 L-468.245,1061.83 L-347.013,1061.83 L-205.761,798.231 C-195.751,779.323 -166.833,785.996 -166.833,808.241 L-166.833,1003.99 L154.599,1003.99 L154.599,811.577 C154.599,789.333 183.516,782.66 193.526,801.567 L333.666,1062.94 L470.469,1062.94 L470.469,1061.83 Z M479.367,1091.86 L368.145,1091.86 C364.808,1112.99 368.145,1137.46 379.267,1163.04 C400.399,1214.2 442.663,1245.34 473.806,1232 C504.948,1218.65 513.846,1167.49 491.601,1116.33 C488.265,1107.43 483.816,1099.64 479.367,1091.86 Z M-476.03,1091.86 C-480.479,1099.64 -484.928,1107.43 -488.264,1116.33 C-510.509,1167.49 -501.611,1218.65 -470.469,1232 C-439.327,1245.34 -397.062,1214.2 -375.93,1163.04 C-364.808,1137.46 -361.471,1112.99 -364.808,1091.86 L-476.03,1091.86 Z " fill="#4d4d4d" fill-opacity="1.00" />			<path d="M-112.971,603.941 L-51.4646,710.473 L9.42527,690.666 L-68.2202,560.297 L-112.971,603.941 Z " fill="#ccdbe0" fill-opacity="1.00" />			<path d="M121.678,602.504 L60.1716,709.036 L-3.2685e-13,692.102 L76.9272,558.861 L121.678,602.504 Z " fill="#ccdbe0" fill-opacity="1.00" />			<path d="M502.289,-100.191 C502.289,-378.053 277.862,-602.48 1.53277e-05,-602.48 C-277.862,-602.48 -502.289,-378.053 -502.289,-100.191 C-502.289,177.672 -303.244,602.48 1.53277e-05,602.48 C303.244,602.48 502.289,177.672 502.289,-100.191 Z " fill="#ffdacb" fill-opacity="1.00" />			<path d="M474.724,-122.044 C536.899,-122.044 587.232,-71.7113 587.232,-9.53549 C587.232,52.6403 536.899,102.973 474.724,102.973 L474.724,-122.044 Z " fill="#ffdacb" fill-opacity="1.00" />			<path d="M500.067,-136.129 L417.834,-136.129 C394.497,-162.8 360.048,-179.468 321.154,-179.468 L186.692,-179.468 C117.794,-179.468 61.1193,-129.462 50.0067,-63.8974 C35.5603,-72.7875 17.7801,-78.3438 -8.53981e-06,-78.3438 C-17.7802,-78.3438 -35.5603,-72.7875 -51.118,-63.8974 C-62.2306,-129.462 -120.016,-179.468 -188.914,-179.468 L-324.488,-179.468 C-362.271,-179.468 -396.72,-162.8 -421.167,-136.129 L-502.289,-136.129 L-502.289,-102.792 L-442.281,-102.792 C-448.949,-87.2339 -453.394,-69.4537 -453.394,-51.6736 L-453.394,-5.00067 C-453.394,96.124 -371.161,179.468 -268.925,179.468 C-153.354,179.468 -58.8968,89.4564 -50.0067,-23.8921 L-47.7842,-22.7808 C-35.5603,-37.2272 -18.8914,-45.006 -8.61659e-06,-45.006 C18.8914,-45.006 35.5603,-37.2272 47.7842,-22.7808 L48.8954,-23.8921 C57.7855,89.4564 152.243,178.357 267.814,178.357 C368.938,178.357 452.283,96.124 452.283,-6.11192 L452.283,-52.7848 C452.283,-70.565 448.949,-88.3451 441.17,-103.903 L502.289,-103.903 L502.289,-136.129 L500.067,-136.129 Z M-268.925,146.131 C-352.269,146.131 -420.056,78.3438 -420.056,-5.00067 L-420.056,-51.6736 C-420.056,-103.903 -377.828,-146.131 -325.599,-146.131 L-190.025,-146.131 C-131.129,-146.131 -84.4557,-98.3465 -84.4557,-40.561 C-82.2332,62.7862 -165.578,146.131 -268.925,146.131 Z M416.722,-5.00067 C416.722,78.3438 348.936,146.131 265.591,146.131 C163.355,146.131 80.0107,62.7862 80.0107,-39.4497 C80.0107,-98.3465 127.795,-145.019 185.58,-145.019 L321.154,-145.019 C373.383,-145.019 415.611,-102.792 415.611,-50.5623 L415.611,-5.00067 L416.722,-5.00067 Z " fill="#4d4d4d" fill-opacity="1.00" />			<path d="M-354.076,60.6588 C-320.457,118.889 -245.944,138.855 -187.714,105.235 C-129.484,71.6161 -109.518,-2.8963 -143.138,-61.1265 C-176.757,-119.357 -251.269,-139.322 -309.499,-105.703 C-367.73,-72.0838 -387.695,2.42859 -354.076,60.6588 Z M-255.581,-61.9991 C-247.21,-47.5 -252.25,-28.6875 -266.749,-20.3164 C-281.249,-11.9454 -300.061,-16.9862 -308.432,-31.4853 C-316.803,-45.9844 -311.762,-64.7969 -297.263,-73.168 C-282.629,-81.3052 -263.952,-76.4982 -255.581,-61.9991 Z " fill="#594a4a" fill-opacity="1.00" />			<path d="M161.752,60.8927 C195.371,119.123 269.884,139.088 328.114,105.469 C386.344,71.85 406.31,-2.66244 372.691,-60.8927 C339.071,-119.123 264.559,-139.088 206.329,-105.469 C148.098,-71.85 128.133,2.66244 161.752,60.8927 Z M260.247,-61.7653 C268.619,-47.2662 263.578,-28.4536 249.079,-20.0826 C234.58,-11.7115 215.767,-16.7523 207.396,-31.2514 C199.025,-45.7505 204.066,-64.5631 218.565,-72.9341 C233.199,-81.0713 251.876,-76.2644 260.247,-61.7653 Z " fill="#594a4a" fill-opacity="1.00" />			<path d="M-326.382,38.7257 C-352.329,5.39557 -335.303,61.6892 -305.813,91.1794 C-276.323,120.67 -192.889,81.2042 -241.562,90.0416 C-290.235,98.879 -300.435,72.0558 -326.382,38.7257 Z " fill="#ffffff" fill-opacity="1.00" />			<path d="M190.863,39.3917 C164.916,6.06158 181.941,62.3552 211.432,91.8455 C240.922,121.336 324.356,81.8702 275.683,90.7076 C227.01,99.5451 216.809,72.7218 190.863,39.3917 Z " fill="#ffffff" fill-opacity="1.00" />			<path d="M-267.952,-11.1095 C-250.665,-18.0595 -242.298,-37.6795 -249.248,-54.9659 C-256.197,-72.2524 -275.817,-80.62 -293.104,-73.67 C-310.39,-66.7201 -318.758,-47.1001 -311.808,-29.8137 C-304.858,-12.5272 -285.238,-4.15957 -267.952,-11.1095 Z " fill="#ffffff" fill-opacity="1.00" />			<path d="M245.834,-17.9048 C263.12,-24.8547 271.488,-44.4747 264.538,-61.7611 C257.588,-79.0476 237.968,-87.4152 220.681,-80.4653 C203.395,-73.5153 195.027,-53.8953 201.977,-36.6089 C208.927,-19.3224 228.547,-10.9548 245.834,-17.9048 Z " fill="#ffffff" fill-opacity="1.00" />			<path d="M-599.97,-172.392 C-599.97,-172.392 -598.304,-95.2053 -594.754,-93.9854 L-594.95,-72.6167 C-595.321,-32.2538 -581.381,1.11718 -542.205,1.47716 C-503.029,1.83714 -489.665,-31.2829 -489.294,-71.6459 L-488.422,-166.618 L-488.4,-168.992 C-478.868,-301.876 -440.334,-360.884 -310.935,-359.695 C-310.935,-359.695 -196.085,-316.604 -100.975,-433.624 C-5.8655,-550.644 51.9584,-503.167 51.9584,-503.167 C200.352,-501.803 481.348,-272.869 479.7,-93.6103 L479.428,-63.9317 C479.057,-23.5687 490.623,9.78041 530.997,8.96418 C570.173,9.32416 583.537,-23.7959 583.907,-64.1589 L584.027,-77.2175 L587.176,-161.483 L587.198,-163.857 C590.569,-530.685 343.679,-795.335 -0.593368,-798.499 C-346.053,-801.673 -596.588,-540.407 -599.97,-172.392 Z " fill="#393636" fill-opacity="1.00" />			<path d="M-728.517,-488.183 C-728.517,-488.183 -579.072,-428.23 -315.278,-708.561 C-116.738,-919.547 203.019,-563.43 132.212,-488.183 C132.212,-488.183 -15.3425,-538.523 -84.8724,-405.508 C-360.157,125.51 -728.517,-488.183 -728.517,-488.183 Z " fill="#393636" fill-opacity="1.00" />			<path d="M109.343,267.221 C109.343,327.452 60.2311,376.564 -1.17367e-06,376.564 C-60.2311,376.564 -109.343,327.452 -109.343,267.221 L-139.304,267.221 C-139.304,344.132 -76.9105,406.525 -1.17367e-06,406.525 C76.9105,406.525 139.304,344.132 139.304,267.221 L109.343,267.221 Z " fill="#594a4a" fill-opacity="1.00" />			<path d="M75.8894,634.993 C84.2316,620.448 73.7504,602.694 57.4938,602.48 L-53.7354,602.48 C-70.4197,602.48 -80.9009,620.448 -72.5588,634.779 L-16.9442,731.035 C-8.81588,745.367 11.9326,745.367 20.2748,731.035 L75.8894,634.993 Z " fill="#ccdbe0" fill-opacity="1.00" />			<path d="M-4.50286,694.06 L-1.21483e-06,694.06 L-44.8418,602.48 L-47.8922,602.48 L-4.50286,694.06 Z " fill="#343838" fill-opacity="1.00" />			<path d="M7.81574,694.06 L3.31288,694.06 L48.1547,602.48 L51.205,602.48 L7.81574,694.06 Z " fill="#343838" fill-opacity="1.00" />			<path d="M64.6739,679.913 C65.6,678.308 65.8288,676.499 65.5037,674.819 C67.1295,674.294 68.5736,673.158 69.4997,671.554 C71.4983,668.092 70.3207,663.697 66.8591,661.699 C63.3974,659.7 59.0025,660.878 57.0039,664.339 C56.0778,665.944 55.849,667.753 56.1741,669.433 C54.5483,669.958 53.1042,671.094 52.1781,672.698 C50.1795,676.16 51.3571,680.555 54.8187,682.553 C58.2593,684.54 62.6753,683.374 64.6739,679.913 Z M61.1411,666.728 C61.7991,665.588 63.2763,665.175 64.4372,665.845 C65.577,666.503 65.9907,667.98 65.3204,669.141 C64.6501,670.302 63.1852,670.694 62.0243,670.024 C60.8844,669.366 60.4708,667.889 61.1411,666.728 Z M56.3152,675.087 C56.9732,673.947 58.4504,673.533 59.6113,674.203 C60.7511,674.862 61.1648,676.339 60.4945,677.5 C59.8364,678.639 58.3593,679.053 57.1984,678.383 C56.0707,677.704 55.6571,676.227 56.3152,675.087 Z " fill="#343838" fill-opacity="1.00" />		</g>	</svg>